<svg id="Layer_1" data-name="Layer 1" xmlns="http://www.w3.org/2000/svg" xmlns:xlink="http://www.w3.org/1999/xlink" viewBox="0 0 1007.3 900"><defs><style>.cls-1,.cls-2{fill:none;}.cls-1{clip-rule:evenodd;}.cls-2{stroke:#023d55;stroke-miterlimit:10;stroke-width:15.93px;}.cls-3{clip-path:url(#clip-path);}.cls-4{fill:#002d44;}.cls-10,.cls-100,.cls-101,.cls-102,.cls-103,.cls-104,.cls-105,.cls-106,.cls-107,.cls-108,.cls-109,.cls-11,.cls-110,.cls-111,.cls-112,.cls-113,.cls-114,.cls-115,.cls-116,.cls-117,.cls-118,.cls-119,.cls-12,.cls-120,.cls-121,.cls-122,.cls-123,.cls-124,.cls-125,.cls-126,.cls-13,.cls-14,.cls-15,.cls-16,.cls-17,.cls-18,.cls-19,.cls-20,.cls-21,.cls-22,.cls-23,.cls-24,.cls-25,.cls-26,.cls-27,.cls-28,.cls-29,.cls-30,.cls-31,.cls-32,.cls-33,.cls-34,.cls-35,.cls-36,.cls-37,.cls-38,.cls-39,.cls-4,.cls-40,.cls-41,.cls-42,.cls-43,.cls-44,.cls-45,.cls-46,.cls-47,.cls-48,.cls-49,.cls-5,.cls-50,.cls-51,.cls-52,.cls-53,.cls-54,.cls-55,.cls-56,.cls-57,.cls-58,.cls-59,.cls-6,.cls-60,.cls-61,.cls-62,.cls-63,.cls-64,.cls-65,.cls-66,.cls-67,.cls-68,.cls-69,.cls-7,.cls-70,.cls-71,.cls-72,.cls-73,.cls-74,.cls-75,.cls-76,.cls-77,.cls-78,.cls-79,.cls-8,.cls-80,.cls-81,.cls-82,.cls-83,.cls-84,.cls-85,.cls-86,.cls-87,.cls-88,.cls-89,.cls-9,.cls-90,.cls-91,.cls-92,.cls-93,.cls-94,.cls-95,.cls-96,.cls-97,.cls-98,.cls-99{fill-rule:evenodd;}.cls-5{fill:#086e8a;}.cls-6{fill:#086d89;}.cls-7{fill:#086d88;}.cls-8{fill:#086c88;}.cls-9{fill:#086c87;}.cls-10{fill:#086b87;}.cls-11{fill:#086b86;}.cls-12{fill:#086a86;}.cls-13{fill:#076a85;}.cls-14{fill:#076985;}.cls-15{fill:#076984;}.cls-16{fill:#076884;}.cls-17{fill:#076883;}.cls-18{fill:#076783;}.cls-19{fill:#076782;}.cls-20{fill:#076682;}.cls-21{fill:#076681;}.cls-22{fill:#076581;}.cls-23{fill:#076580;}.cls-24{fill:#076480;}.cls-25{fill:#07647f;}.cls-26{fill:#07637f;}.cls-27{fill:#07637e;}.cls-28{fill:#07627d;}.cls-29{fill:#06627d;}.cls-30{fill:#06617d;}.cls-31{fill:#06617c;}.cls-32{fill:#06607b;}.cls-33{fill:#06607a;}.cls-34{fill:#065f7a;}.cls-35{fill:#065e79;}.cls-36{fill:#065e78;}.cls-37{fill:#065d78;}.cls-38{fill:#065d77;}.cls-39{fill:#065c77;}.cls-40{fill:#065c76;}.cls-41{fill:#065b76;}.cls-42{fill:#065b75;}.cls-43{fill:#065a75;}.cls-44{fill:#065a74;}.cls-45{fill:#055a74;}.cls-46{fill:#055974;}.cls-47{fill:#055973;}.cls-48{fill:#055873;}.cls-49{fill:#055872;}.cls-50{fill:#055772;}.cls-51{fill:#055771;}.cls-52{fill:#055671;}.cls-53{fill:#055670;}.cls-54{fill:#05556f;}.cls-55{fill:#05546e;}.cls-56{fill:#05536d;}.cls-57{fill:#05536c;}.cls-58{fill:#05526c;}.cls-59{fill:#04526b;}.cls-60{fill:#04516b;}.cls-61{fill:#04516a;}.cls-62{fill:#04506a;}.cls-63{fill:#045069;}.cls-64{fill:#044f69;}.cls-65{fill:#044f68;}.cls-66{fill:#044e68;}.cls-67{fill:#044e67;}.cls-68{fill:#044d67;}.cls-69{fill:#044d66;}.cls-70{fill:#044c66;}.cls-71{fill:#044c65;}.cls-72{fill:#044b65;}.cls-73{fill:#044b64;}.cls-74{fill:#044a64;}.cls-75{fill:#044a63;}.cls-76{fill:#034963;}.cls-77{fill:#034962;}.cls-78{fill:#034862;}.cls-79{fill:#034861;}.cls-80{fill:#034760;}.cls-81{fill:#03465f;}.cls-82{fill:#03465e;}.cls-83{fill:#03455e;}.cls-84{fill:#03455d;}.cls-85{fill:#03445d;}.cls-86{fill:#03445c;}.cls-87{fill:#03435c;}.cls-88{fill:#03435b;}.cls-89{fill:#03425b;}.cls-90{fill:#03425a;}.cls-91{fill:#03415a;}.cls-92{fill:#02415a;}.cls-93{fill:#024159;}.cls-94{fill:#024059;}.cls-95{fill:#024058;}.cls-96{fill:#023f58;}.cls-97{fill:#023f57;}.cls-98{fill:#023e57;}.cls-99{fill:#023e56;}.cls-100{fill:#023d56;}.cls-101{fill:#023d55;}.cls-102{fill:#023c54;}.cls-103{fill:#023b53;}.cls-104{fill:#023a52;}.cls-105{fill:#023951;}.cls-106{fill:#013951;}.cls-107{fill:#013850;}.cls-108{fill:#01384f;}.cls-109{fill:#01374f;}.cls-110{fill:#01374e;}.cls-111{fill:#01364e;}.cls-112{fill:#01364d;}.cls-113{fill:#01354d;}.cls-114{fill:#01354c;}.cls-115{fill:#01344c;}.cls-116{fill:#01344b;}.cls-117{fill:#01334b;}.cls-118{fill:#01334a;}.cls-119{fill:#01324a;}.cls-120{fill:#013249;}.cls-121{fill:#013149;}.cls-122{fill:#013148;}.cls-123{fill:#003148;}.cls-124{fill:#003047;}.cls-125{fill:#002f46;}.cls-126{fill:#002e45;}</style><clipPath id="clip-path" transform="translate(54.96 0)"><path class="cls-1" d="M440.57,160.31c5.22-1.73,9.49,1.36,9.49,6.86V732.91c0,5.5-4.27,8.57-9.48,6.82l-378.35-127c-5.21-1.75-5.32-1.47-.23.62L440.81,769.2c5.09,2.09,13.42,2.11,18.51,0L838.11,615.33c5.1-2.07,9.26-8.27,9.26-13.77V300.5c0-5.5-4.16-11.71-9.24-13.81L459.31,130.81c-5.09-2.1-13.42-2.12-18.51,0L62,284.75c-5.09,2.08-5,2.36.23.63ZM390.92,675.15c0,5.5-4.17,8.3-9.26,6.23L121.15,575.53c-5.09-2.07-9.26-8.27-9.26-13.77V338.32c0-5.5,4.17-11.7,9.26-13.77L171,304.25V532l50.8,20.63v-269L281,259.55V576.66l41.53,16.87c5.1,2.07,9.27-.74,9.27-6.24V248.92c0-5.5,4.17-11.69,9.26-13.77l40.62-16.53c5.09-2.07,9.26.73,9.26,6.23ZM778.23,420.47a10,10,0,0,1,10,10V561.76c0,5.5-4.16,11.7-9.26,13.77L518.47,681.38c-5.1,2.07-9.27-.73-9.27-6.23V548.93a10,10,0,0,1,10-10h39.14a10,10,0,0,1,10,10v38.36c0,5.5,4.17,8.31,9.27,6.24l142.22-57.8c5.09-2.07,9.26-8.27,9.26-13.77V489.61a10,10,0,0,0-10-10H519.2a10,10,0,0,1-10-10V224.85c0-5.5,4.17-8.3,9.27-6.23L779,324.55c5.1,2.08,9.26,8.27,9.26,13.77v13.27a10,10,0,0,1-10,10H723.1a61.22,61.22,0,0,1-19.26-3.76L577.61,306.55c-5.1-2.07-9.27.74-9.27,6.24v97.68a10,10,0,0,0,10,10Z"/></clipPath></defs><title>logo-new</title><rect class="cls-2" x="62.94" y="7.96" width="884.07" height="884.07" rx="10"/><g class="cls-3"><path class="cls-4" d="M146.53,20.75,945.65,300.52a10,10,0,0,1,6.13,12.74L756.9,869.9A10,10,0,0,1,744.15,876L-55,596.18" transform="translate(54.96 0)"/><path class="cls-5" d="M453.59,449.87a2.07,2.07,0,0,0-1.29-2.66,2,2,0,0,0-2.67,1.29,2,2,0,0,0,1.29,2.57A2.07,2.07,0,0,0,453.59,449.87Z" transform="translate(54.96 0)"/><path class="cls-5" d="M452.9,449.61a1.37,1.37,0,1,1-.86-1.8A1.38,1.38,0,0,1,452.9,449.61Zm2,.69a3.46,3.46,0,0,0-2.15-4.38,3.35,3.35,0,0,0-4.39,2.06,3.6,3.6,0,0,0,2.15,4.47A3.46,3.46,0,0,0,454.88,450.3Z" transform="translate(54.96 0)"/><path class="cls-5" d="M454.19,450a2.72,2.72,0,0,1-3.53,1.72,2.77,2.77,0,0,1-1.63-3.52,2.71,2.71,0,0,1,3.52-1.72A2.77,2.77,0,0,1,454.19,450Zm2,.69a4.82,4.82,0,1,0-6.18,3A4.82,4.82,0,0,0,456.16,450.73Z" transform="translate(54.96 0)"/><path class="cls-6" d="M455.56,450.47a4.14,4.14,0,0,1-5.33,2.58,4.2,4.2,0,0,1-2.57-5.24,4.14,4.14,0,0,1,5.32-2.58A4.19,4.19,0,0,1,455.56,450.47Zm1.9.69a6.13,6.13,0,0,0-3.79-7.91,6.21,6.21,0,0,0-7.91,3.87,6.13,6.13,0,0,0,3.79,7.91A6.22,6.22,0,0,0,457.46,451.16Z" transform="translate(54.96 0)"/><path class="cls-6" d="M456.85,451a5.55,5.55,0,0,1-7.05,3.35,5.45,5.45,0,0,1-3.43-7,5.56,5.56,0,0,1,7.05-3.35A5.5,5.5,0,0,1,456.85,451Zm2,.69a7.65,7.65,0,1,0-9.71,4.64A7.68,7.68,0,0,0,458.83,451.68Z" transform="translate(54.96 0)"/><path class="cls-6" d="M458.14,451.42a6.92,6.92,0,0,1-8.85,4.21,6.8,6.8,0,0,1-4.21-8.77,6.92,6.92,0,0,1,8.85-4.21A6.8,6.8,0,0,1,458.14,451.42Zm2,.69a9,9,0,1,0-11.52,5.5A9,9,0,0,0,460.12,452.11Z" transform="translate(54.96 0)"/><path class="cls-6" d="M459.43,451.85a8.28,8.28,0,1,1-5.07-10.57A8.32,8.32,0,0,1,459.43,451.85Zm2,.68a10.37,10.37,0,1,0-13.24,6.37A10.3,10.3,0,0,0,461.41,452.53Z" transform="translate(54.96 0)"/><path class="cls-7" d="M460.72,452.36A9.66,9.66,0,1,1,454.79,440,9.71,9.71,0,0,1,460.72,452.36Zm2,.69a11.76,11.76,0,1,0-15,7.22A11.75,11.75,0,0,0,462.7,453.05Z" transform="translate(54.96 0)"/><path class="cls-8" d="M462.1,452.79a11.11,11.11,0,1,1-6.8-14.09A11.12,11.12,0,0,1,462.1,452.79Zm1.89.69a13.12,13.12,0,1,0-16.77,8.08A13.16,13.16,0,0,0,464,453.48Z" transform="translate(54.96 0)"/><path class="cls-8" d="M463.39,453.22a12.47,12.47,0,1,1-7.66-15.81A12.43,12.43,0,0,1,463.39,453.22Zm2,.69a14.55,14.55,0,1,0-18.56,8.94A14.58,14.58,0,0,0,465.36,453.91Z" transform="translate(54.96 0)"/><path class="cls-8" d="M464.68,453.74a13.86,13.86,0,1,1-8.52-17.62A13.74,13.74,0,0,1,464.68,453.74Zm2,.69a15.94,15.94,0,1,0-20.28,9.71A16,16,0,0,0,466.65,454.43Z" transform="translate(54.96 0)"/><path class="cls-9" d="M466,454.17a15.21,15.21,0,1,1-9.28-19.43A15.27,15.27,0,0,1,466,454.17Zm2,.69a17.3,17.3,0,1,0-22,10.57A17.23,17.23,0,0,0,467.94,454.86Z" transform="translate(54.96 0)"/><path class="cls-10" d="M467.25,454.6a16.57,16.57,0,1,1-10.14-21.15A16.58,16.58,0,0,1,467.25,454.6Zm2,.69a18.66,18.66,0,1,0-23.81,11.52A18.68,18.68,0,0,0,469.23,455.29Z" transform="translate(54.96 0)"/><path class="cls-10" d="M468.54,455.11a18,18,0,1,1-11-22.95A17.92,17.92,0,0,1,468.54,455.11Zm2,.69A20,20,0,1,0,445,468.09,20.05,20.05,0,0,0,470.52,455.8Z" transform="translate(54.96 0)"/><path class="cls-10" d="M469.92,455.54A19.4,19.4,0,1,1,458,430.87,19.41,19.41,0,0,1,469.92,455.54Zm1.89.69a21.41,21.41,0,1,0-27.25,13.16A21.43,21.43,0,0,0,471.81,456.23Z" transform="translate(54.96 0)"/><path class="cls-10" d="M471.21,456a20.76,20.76,0,1,1-12.72-26.39A20.77,20.77,0,0,1,471.21,456Zm2,.69a22.85,22.85,0,1,0-29.15,14A22.85,22.85,0,0,0,473.19,456.66Z" transform="translate(54.96 0)"/><path class="cls-11" d="M472.5,456.49a22.15,22.15,0,1,1-13.58-28.28A22.15,22.15,0,0,1,472.5,456.49Zm2,.69A24.24,24.24,0,1,0,443.61,472,24.21,24.21,0,0,0,474.47,457.18Z" transform="translate(54.96 0)"/><path class="cls-12" d="M473.79,456.92a23.5,23.5,0,1,1-14.45-30A23.46,23.46,0,0,1,473.79,456.92Zm2,.69a25.6,25.6,0,1,0-32.58,15.73A25.67,25.67,0,0,0,475.77,457.61Z" transform="translate(54.96 0)"/><path class="cls-12" d="M475.08,457.35a24.86,24.86,0,1,1-15.22-31.72A24.86,24.86,0,0,1,475.08,457.35Zm2,.69a27,27,0,1,0-34.38,16.59A27,27,0,0,0,477.05,458Z" transform="translate(54.96 0)"/><path class="cls-12" d="M476.45,457.87a26.33,26.33,0,1,1-16.16-33.53A26.32,26.32,0,0,1,476.45,457.87Zm1.89.68a28.34,28.34,0,1,0-36.1,17.37A28.33,28.33,0,0,0,478.34,458.55Z" transform="translate(54.96 0)"/><path class="cls-13" d="M477.74,458.29a27.69,27.69,0,1,1-17-35.24A27.63,27.63,0,0,1,477.74,458.29Zm2,.69a29.78,29.78,0,1,0-37.91,18.23A29.72,29.72,0,0,0,479.72,459Z" transform="translate(54.96 0)"/><path class="cls-13" d="M479,458.72a29,29,0,1,1-17.79-37A29.2,29.2,0,0,1,479,458.72Zm2,.69a31.14,31.14,0,1,0-39.72,19.08A31.14,31.14,0,0,0,481,459.41Z" transform="translate(54.96 0)"/><path class="cls-14" d="M480.32,459.24a30.43,30.43,0,1,1-18.65-38.85A30.45,30.45,0,0,1,480.32,459.24Zm2,.69a32.52,32.52,0,1,0-41.44,19.94A32.5,32.5,0,0,0,482.3,459.93Z" transform="translate(54.96 0)"/><path class="cls-14" d="M481.61,459.67A31.79,31.79,0,1,1,462.1,419.1,31.7,31.7,0,0,1,481.61,459.67Zm2,.69a33.89,33.89,0,1,0-43.16,20.8A33.91,33.91,0,0,0,483.59,460.36Z" transform="translate(54.96 0)"/><path class="cls-14" d="M483,460.1a33.24,33.24,0,1,1-20.38-42.29A33.2,33.2,0,0,1,483,460.1Zm1.89.69a35.25,35.25,0,1,0-45,21.66A35.25,35.25,0,0,0,484.88,460.79Z" transform="translate(54.96 0)"/><path class="cls-15" d="M484.27,460.62A34.61,34.61,0,1,1,463,416.52,34.59,34.59,0,0,1,484.27,460.62Zm2,.6a36.69,36.69,0,1,0-46.76,22.52A36.74,36.74,0,0,0,486.25,461.22Z" transform="translate(54.96 0)"/><path class="cls-16" d="M485.57,461.05a36,36,0,1,1-22.1-45.82A36,36,0,0,1,485.57,461.05Zm2,.68A38.07,38.07,0,1,0,439.06,485,38,38,0,0,0,487.54,461.73Z" transform="translate(54.96 0)"/><path class="cls-16" d="M486.85,461.48A37.34,37.34,0,1,1,464,413.85,37.36,37.36,0,0,1,486.85,461.48Zm2,.68a39.43,39.43,0,1,0-50.29,24.25A39.34,39.34,0,0,0,488.83,462.16Z" transform="translate(54.96 0)"/><path class="cls-16" d="M488.14,461.91a38.7,38.7,0,1,1-23.72-49.35A38.74,38.74,0,0,1,488.14,461.91Zm2,.68a40.79,40.79,0,1,0-52,25.1A40.83,40.83,0,0,0,490.12,462.59Z" transform="translate(54.96 0)"/><path class="cls-17" d="M489.52,462.42a40.17,40.17,0,1,1-24.67-51.15A40.21,40.21,0,0,1,489.52,462.42Zm1.89.69A42.18,42.18,0,1,0,437.68,489,42.2,42.2,0,0,0,491.41,463.11Z" transform="translate(54.96 0)"/><path class="cls-17" d="M490.81,462.85A41.53,41.53,0,1,1,465.36,410,41.53,41.53,0,0,1,490.81,462.85Zm2,.69a43.62,43.62,0,1,0-55.61,26.73A43.65,43.65,0,0,0,492.78,463.54Z" transform="translate(54.96 0)"/><path class="cls-18" d="M492.1,463.28a42.89,42.89,0,1,1-26.31-54.58A42.79,42.79,0,0,1,492.1,463.28Zm2,.69a45,45,0,1,0-57.33,27.59A44.93,44.93,0,0,0,494.07,464Z" transform="translate(54.96 0)"/><path class="cls-18" d="M493.39,463.8a44.28,44.28,0,1,1-27.17-56.48A44.3,44.3,0,0,1,493.39,463.8Zm2,.68a46.36,46.36,0,1,0-59.05,28.37A46.37,46.37,0,0,0,495.36,464.48Z" transform="translate(54.96 0)"/><path class="cls-19" d="M494.67,464.23A45.63,45.63,0,1,1,466.74,406,45.66,45.66,0,0,1,494.67,464.23Zm2,.68a47.72,47.72,0,1,0-60.86,29.32A47.83,47.83,0,0,0,496.65,464.91Z" transform="translate(54.96 0)"/><path class="cls-19" d="M496.05,464.66a47.07,47.07,0,1,1-28.88-59.92A47.07,47.07,0,0,1,496.05,464.66Zm1.89.68a49.08,49.08,0,1,0-62.58,30.18A49,49,0,0,0,497.94,465.34Z" transform="translate(54.96 0)"/><path class="cls-19" d="M497.34,465.17a48.46,48.46,0,1,1-29.74-61.72A48.47,48.47,0,0,1,497.34,465.17Zm2,.69a50.55,50.55,0,1,0-64.39,30.95A50.55,50.55,0,0,0,499.32,465.86Z" transform="translate(54.96 0)"/><path class="cls-20" d="M498.63,465.6A49.82,49.82,0,1,1,468,402.16,49.81,49.81,0,0,1,498.63,465.6Zm2,.69a51.91,51.91,0,1,0-66.11,31.8A51.87,51.87,0,0,0,500.61,466.29Z" transform="translate(54.96 0)"/><path class="cls-20" d="M499.92,466a51.18,51.18,0,1,1-31.38-65.24A51.22,51.22,0,0,1,499.92,466Zm2,.69A53.27,53.27,0,1,0,434,499.39,53.2,53.2,0,0,0,501.9,466.72Z" transform="translate(54.96 0)"/><path class="cls-21" d="M501.21,466.55A52.57,52.57,0,1,1,469,399.5,52.53,52.53,0,0,1,501.21,466.55Zm2,.69a54.66,54.66,0,1,0-69.63,33.52A54.68,54.68,0,0,0,503.19,467.24Z" transform="translate(54.96 0)"/><path class="cls-21" d="M502.58,467a54,54,0,1,1-33.18-68.77A54,54,0,0,1,502.58,467Zm1.89.68a56,56,0,1,0-71.34,34.39A56,56,0,0,0,504.47,467.66Z" transform="translate(54.96 0)"/><path class="cls-21" d="M503.87,467.41a55.36,55.36,0,1,1-33.95-70.49A55.33,55.33,0,0,1,503.87,467.41Zm1.89.68a57.37,57.37,0,1,0-73.15,35.25A57.38,57.38,0,0,0,505.76,468.09Z" transform="translate(54.96 0)"/><path class="cls-22" d="M505.16,467.92a56.75,56.75,0,1,1-34.81-72.29A56.68,56.68,0,0,1,505.16,467.92Zm2,.69a58.84,58.84,0,1,0-75,36A58.8,58.8,0,0,0,507.14,468.61Z" transform="translate(54.96 0)"/><path class="cls-23" d="M506.45,468.35a58.11,58.11,0,1,1-35.67-74.1A58.14,58.14,0,0,1,506.45,468.35Zm2,.69a60.2,60.2,0,1,0-76.68,36.88A60.16,60.16,0,0,0,508.43,469Z" transform="translate(54.96 0)"/><path class="cls-23" d="M507.74,468.78A59.47,59.47,0,1,1,471.29,393,59.52,59.52,0,0,1,507.74,468.78Zm2,.69a61.56,61.56,0,1,0-78.48,37.82A61.61,61.61,0,0,0,509.72,469.47Z" transform="translate(54.96 0)"/><path class="cls-23" d="M509,469.3a60.86,60.86,0,1,1-37.31-77.62A60.83,60.83,0,0,1,509,469.3Zm2,.69a63,63,0,1,0-80.2,38.59A63,63,0,0,0,511,470Z" transform="translate(54.96 0)"/><path class="cls-24" d="M510.41,469.73a62.3,62.3,0,1,1-38.26-79.34A62.37,62.37,0,0,1,510.41,469.73Zm1.89.69a64.31,64.31,0,1,0-81.92,39.45A64.29,64.29,0,0,0,512.3,470.42Z" transform="translate(54.96 0)"/><path class="cls-25" d="M511.7,470.16a63.66,63.66,0,1,1-39-81.06A63.61,63.61,0,0,1,511.7,470.16Zm2,.69a65.75,65.75,0,1,0-83.81,40.31A65.77,65.77,0,0,0,513.67,470.85Z" transform="translate(54.96 0)"/><path class="cls-25" d="M513,470.67a65,65,0,1,1-39.89-82.95A65.08,65.08,0,0,1,513,470.67Zm2,.69a67.12,67.12,0,1,0-85.53,41.09A67.14,67.14,0,0,0,515,471.36Z" transform="translate(54.96 0)"/><path class="cls-25" d="M514.28,471.1a66.41,66.41,0,1,1-40.75-84.67A66.38,66.38,0,0,1,514.28,471.1Zm2,.69a68.49,68.49,0,1,0-87.25,42A68.58,68.58,0,0,0,516.25,471.79Z" transform="translate(54.96 0)"/><path class="cls-25" d="M515.56,471.53a67.76,67.76,0,1,1-41.51-86.39A67.81,67.81,0,0,1,515.56,471.53Zm2,.69a69.85,69.85,0,1,0-89,42.9A69.86,69.86,0,0,0,517.54,472.22Z" transform="translate(54.96 0)"/><path class="cls-26" d="M516.94,472a69.2,69.2,0,1,1-42.47-88.11A69.19,69.19,0,0,1,516.94,472Zm1.89.69a71.21,71.21,0,1,0-90.77,43.75A71.16,71.16,0,0,0,518.83,472.65Z" transform="translate(54.96 0)"/><path class="cls-27" d="M518.23,472.48a70.59,70.59,0,1,1-43.33-89.92A70.53,70.53,0,0,1,518.23,472.48Zm2,.69a72.69,72.69,0,1,0-92.58,44.53A72.65,72.65,0,0,0,520.21,473.17Z" transform="translate(54.96 0)"/><path class="cls-27" d="M519.52,472.91a71.95,71.95,0,1,1-44.1-91.64A72.07,72.07,0,0,1,519.52,472.91Zm2,.69A74,74,0,1,0,427.11,519,74.05,74.05,0,0,0,521.5,473.6Z" transform="translate(54.96 0)"/><path class="cls-27" d="M520.81,473.34a73.31,73.31,0,1,1-45-93.44A73.38,73.38,0,0,1,520.81,473.34Zm2,.69a75.4,75.4,0,1,0-96.1,46.33A75.35,75.35,0,0,0,522.78,474Z" transform="translate(54.96 0)"/><path class="cls-27" d="M522.1,473.85a74.7,74.7,0,1,1-45.82-95.24A74.62,74.62,0,0,1,522.1,473.85Zm2,.69a76.79,76.79,0,1,0-97.83,47.11A76.82,76.82,0,0,0,524.08,474.54Z" transform="translate(54.96 0)"/><path class="cls-28" d="M523.47,474.28a76.13,76.13,0,1,1-46.67-97A76.1,76.1,0,0,1,523.47,474.28Zm1.89.69a78.15,78.15,0,1,0-99.63,48A78.16,78.16,0,0,0,525.36,475Z" transform="translate(54.96 0)"/><path class="cls-28" d="M524.76,474.71A77.49,77.49,0,1,1,477.23,376,77.49,77.49,0,0,1,524.76,474.71Zm2,.69a79.59,79.59,0,1,0-101.43,48.83A79.65,79.65,0,0,0,526.74,475.4Z" transform="translate(54.96 0)"/><path class="cls-28" d="M526.05,475.23a78.88,78.88,0,1,1-48.39-100.49A78.79,78.79,0,0,1,526.05,475.23Zm2,.69a81,81,0,1,0-103.16,49.6A81,81,0,0,0,528,475.92Z" transform="translate(54.96 0)"/><path class="cls-29" d="M527.34,475.66a80.24,80.24,0,1,1-49.17-102.3A80.28,80.28,0,0,1,527.34,475.66Zm2,.69a82.34,82.34,0,1,0-105,50.46A82.24,82.24,0,0,0,529.32,476.35Z" transform="translate(54.96 0)"/><path class="cls-30" d="M528.63,476.09a81.6,81.6,0,1,1-50-104A81.65,81.65,0,0,1,528.63,476.09Zm2,.69a83.7,83.7,0,1,0-106.68,51.4A83.76,83.76,0,0,0,530.61,476.78Z" transform="translate(54.96 0)"/><path class="cls-31" d="M530,476.61a83.07,83.07,0,1,1-51-105.82A83.13,83.13,0,0,1,530,476.61Zm1.89.68a85.08,85.08,0,1,0-108.4,52.18A85.12,85.12,0,0,0,531.9,477.29Z" transform="translate(54.96 0)"/><path class="cls-31" d="M531.3,477A84.43,84.43,0,1,1,479.46,369.5,84.39,84.39,0,0,1,531.3,477Zm2,.69a86.52,86.52,0,1,0-110.2,53A86.55,86.55,0,0,0,533.27,477.72Z" transform="translate(54.96 0)"/><path class="cls-31" d="M532.58,477.46A85.78,85.78,0,1,1,480,368.21,85.69,85.69,0,0,1,532.58,477.46Zm2,.69a87.88,87.88,0,1,0-112,53.9A87.85,87.85,0,0,0,534.56,478.15Z" transform="translate(54.96 0)"/><path class="cls-31" d="M533.88,478a87.18,87.18,0,1,1-53.47-111.15A87.23,87.23,0,0,1,533.88,478Zm2,.69a89.27,89.27,0,1,0-113.72,54.67A89.26,89.26,0,0,0,535.85,478.67Z" transform="translate(54.96 0)"/><path class="cls-32" d="M535.16,478.41a88.53,88.53,0,1,1-54.32-112.87A88.49,88.49,0,0,1,535.16,478.41Zm2,.69a90.63,90.63,0,1,0-115.45,55.62A90.62,90.62,0,0,0,537.14,479.1Z" transform="translate(54.96 0)"/><path class="cls-32" d="M536.54,478.84a90,90,0,1,1-55.19-114.59A90,90,0,0,1,536.54,478.84Zm1.89.69A92,92,0,1,0,421.18,536,92,92,0,0,0,538.43,479.53Z" transform="translate(54.96 0)"/><path class="cls-32" d="M537.83,479.36A91.36,91.36,0,1,1,481.78,363,91.37,91.37,0,0,1,537.83,479.36Zm1.89.68a93.37,93.37,0,1,0-119,57.25A93.36,93.36,0,0,0,539.72,480Z" transform="translate(54.96 0)"/><path class="cls-32" d="M539.12,479.79a92.72,92.72,0,1,1-56.91-118.12A92.66,92.66,0,0,1,539.12,479.79Zm2,.68a94.82,94.82,0,1,0-120.78,58.11A94.79,94.79,0,0,0,541.1,480.47Z" transform="translate(54.96 0)"/><path class="cls-33" d="M540.41,480.22A94.08,94.08,0,1,1,482.73,360.3,94.16,94.16,0,0,1,540.41,480.22Zm2,.68a96.17,96.17,0,1,0-122.58,59A96.12,96.12,0,0,0,542.38,480.9Z" transform="translate(54.96 0)"/><path class="cls-34" d="M541.7,480.73A95.47,95.47,0,1,1,483.16,359,95.39,95.39,0,0,1,541.7,480.73Zm2,.69a97.55,97.55,0,1,0-124.3,59.83A97.62,97.62,0,0,0,543.67,481.42Z" transform="translate(54.96 0)"/><path class="cls-34" d="M543,481.16a96.83,96.83,0,1,1-59.4-123.44A96.77,96.77,0,0,1,543,481.16Zm2,.69a98.91,98.91,0,1,0-126,60.69A99,99,0,0,0,545,481.85Z" transform="translate(54.96 0)"/><path class="cls-34" d="M544.36,481.59A98.26,98.26,0,1,1,484.1,356.43,98.26,98.26,0,0,1,544.36,481.59Zm1.89.69a100.27,100.27,0,1,0-127.82,61.55A100.3,100.3,0,0,0,546.25,482.28Z" transform="translate(54.96 0)"/><path class="cls-34" d="M545.65,482.11a99.64,99.64,0,1,1-61.12-127A99.59,99.59,0,0,1,545.65,482.11Zm2,.6A101.72,101.72,0,1,0,418,545.12,101.67,101.67,0,0,0,547.63,482.71Z" transform="translate(54.96 0)"/><path class="cls-35" d="M546.94,482.54a101,101,0,1,1-62-128.77A101.06,101.06,0,0,1,546.94,482.54Zm2,.68a103.11,103.11,0,1,0-131.35,63.19A103.11,103.11,0,0,0,548.92,483.22Z" transform="translate(54.96 0)"/><path class="cls-35" d="M548.23,483a102.37,102.37,0,1,1-62.75-130.49A102.42,102.42,0,0,1,548.23,483Zm2,.68a104.46,104.46,0,1,0-133.16,64.13A104.53,104.53,0,0,0,550.21,483.65Z" transform="translate(54.96 0)"/><path class="cls-35" d="M549.52,483.4a103.73,103.73,0,1,1-63.61-132.21A103.73,103.73,0,0,1,549.52,483.4Zm2,.68a105.82,105.82,0,1,0-134.88,65A105.84,105.84,0,0,0,551.5,484.08Z" transform="translate(54.96 0)"/><path class="cls-35" d="M550.89,483.91a105.2,105.2,0,1,1-64.55-134A105.26,105.26,0,0,1,550.89,483.91Zm1.9.69a107.21,107.21,0,1,0-136.6,65.76A107.21,107.21,0,0,0,552.79,484.6Z" transform="translate(54.96 0)"/><path class="cls-36" d="M552.18,484.34a106.56,106.56,0,1,1-65.33-135.73A106.52,106.52,0,0,1,552.18,484.34Zm2,.69a108.65,108.65,0,1,0-138.48,66.62A108.7,108.7,0,0,0,554.16,485Z" transform="translate(54.96 0)"/><path class="cls-37" d="M553.47,484.77a107.92,107.92,0,1,1-66.19-137.45A107.92,107.92,0,0,1,553.47,484.77Zm2,.69a110,110,0,1,0-140.2,67.48A110,110,0,0,0,555.45,485.46Z" transform="translate(54.96 0)"/><path class="cls-37" d="M554.76,485.29a109.3,109.3,0,1,1-67.05-139.35A109.26,109.26,0,0,1,554.76,485.29Zm2,.69a111.4,111.4,0,1,0-141.92,68.33A111.34,111.34,0,0,0,556.74,486Z" transform="translate(54.96 0)"/><path class="cls-37" d="M556.05,485.72a110.66,110.66,0,1,1-67.82-141.07A110.7,110.7,0,0,1,556.05,485.72Zm2,.69A112.76,112.76,0,1,0,414.3,555.6,112.8,112.8,0,0,0,558,486.41Z" transform="translate(54.96 0)"/><path class="cls-38" d="M557.43,486.15a112.11,112.11,0,1,1-68.77-142.79A112.11,112.11,0,0,1,557.43,486.15Zm1.89.68a114.11,114.11,0,1,0-145.45,70.06A114.11,114.11,0,0,0,559.32,486.83Z" transform="translate(54.96 0)"/><path class="cls-38" d="M558.72,486.66a113.49,113.49,0,1,1-69.63-144.58A113.45,113.45,0,0,1,558.72,486.66Zm2,.69a115.58,115.58,0,1,0-147.25,70.83A115.55,115.55,0,0,0,560.69,487.35Z" transform="translate(54.96 0)"/><path class="cls-39" d="M560,487.09a114.85,114.85,0,1,1-70.41-146.3A114.88,114.88,0,0,1,560,487.09Zm2,.69a116.94,116.94,0,1,0-149,71.69A116.94,116.94,0,0,0,562,487.78Z" transform="translate(54.96 0)"/><path class="cls-39" d="M561.3,487.52A116.21,116.21,0,1,1,490,339.41,116.31,116.31,0,0,1,561.3,487.52Zm2,.69A118.3,118.3,0,1,0,412.5,560.76,118.26,118.26,0,0,0,563.27,488.21Z" transform="translate(54.96 0)"/><path class="cls-39" d="M562.59,488a117.6,117.6,0,1,1-72.13-149.92A117.54,117.54,0,0,1,562.59,488Zm2,.69a119.69,119.69,0,1,0-152.49,73.41A119.74,119.74,0,0,0,564.56,488.73Z" transform="translate(54.96 0)"/><path class="cls-40" d="M564,488.47a119,119,0,1,1-73.07-151.64A119,119,0,0,1,564,488.47Zm1.89.69a121,121,0,1,0-154.21,74.27A121.05,121.05,0,0,0,565.85,489.16Z" transform="translate(54.96 0)"/><path class="cls-40" d="M565.25,488.9a120.39,120.39,0,1,1-73.84-153.36A120.41,120.41,0,0,1,565.25,488.9Zm2,.69a122.49,122.49,0,1,0-156.11,75.12A122.51,122.51,0,0,0,567.23,489.59Z" transform="translate(54.96 0)"/><path class="cls-41" d="M566.54,489.41a121.78,121.78,0,1,1-74.7-155.16A121.75,121.75,0,0,1,566.54,489.41Zm2,.69A123.88,123.88,0,1,0,410.69,566,123.86,123.86,0,0,0,568.52,490.1Z" transform="translate(54.96 0)"/><path class="cls-41" d="M567.83,489.84a123.14,123.14,0,1,1-75.56-157A123.13,123.13,0,0,1,567.83,489.84Zm2,.69a125.24,125.24,0,1,0-159.55,76.76A125.15,125.15,0,0,0,569.81,490.53Z" transform="translate(54.96 0)"/><path class="cls-42" d="M569.12,490.27a124.5,124.5,0,1,1-76.34-158.68A124.58,124.58,0,0,1,569.12,490.27Zm2,.69a126.59,126.59,0,1,0-161.34,77.71A126.66,126.66,0,0,0,571.09,491Z" transform="translate(54.96 0)"/><path class="cls-42" d="M570.49,490.79A126,126,0,1,1,493.21,330.3,126,126,0,0,1,570.49,490.79Zm1.9.68A128,128,0,1,0,409.32,570,128,128,0,0,0,572.39,491.47Z" transform="translate(54.96 0)"/><path class="cls-43" d="M571.78,491.22A127.32,127.32,0,1,1,493.64,329,127.24,127.24,0,0,1,571.78,491.22Zm1.89.68A129.32,129.32,0,0,0,494.33,327c-67.39-23.64-141.23,12-164.87,79.34A129.38,129.38,0,0,0,573.67,491.9Z" transform="translate(54.96 0)"/><path class="cls-43" d="M573.07,491.65a128.68,128.68,0,1,1-78.91-163.93A128.58,128.58,0,0,1,573.07,491.65Zm2,.69c23.81-68.17-12-142.79-80.2-166.6A130.8,130.8,0,0,0,328.17,406c-23.81,68.16,12,142.78,80.2,166.59A130.81,130.81,0,0,0,575.05,492.34Z" transform="translate(54.96 0)"/><path class="cls-44" d="M574.36,492.16a130.06,130.06,0,1,1-79.77-165.82A130.09,130.09,0,0,1,574.36,492.16Zm2,.69c24.07-68.94-12.21-144.33-81.06-168.4a132.12,132.12,0,1,0,81.06,168.4Z" transform="translate(54.96 0)"/><path class="cls-44" d="M575.65,492.59A131.43,131.43,0,1,1,495,325.05,131.41,131.41,0,0,1,575.65,492.59Zm2,.69A133.53,133.53,0,1,0,407.51,575.2,133.54,133.54,0,0,0,577.63,493.28Z" transform="translate(54.96 0)"/><path class="cls-45" d="M576.94,493a132.79,132.79,0,1,1-81.4-169.25C564.73,348,601.27,423.82,576.94,493Zm2,.69A134.89,134.89,0,1,0,407,576.49,134.88,134.88,0,0,0,578.92,493.71Z" transform="translate(54.96 0)"/><path class="cls-46" d="M578.32,493.54A134.25,134.25,0,1,1,496,322.48,134.29,134.29,0,0,1,578.32,493.54Zm1.89.6a136.25,136.25,0,1,0-173.64,83.64A136.22,136.22,0,0,0,580.21,494.14Z" transform="translate(54.96 0)"/><path class="cls-46" d="M579.61,494A135.62,135.62,0,1,1,496.4,321.19,135.59,135.59,0,0,1,579.61,494Zm2,.69a137.71,137.71,0,1,0-175.44,84.41A137.71,137.71,0,0,0,581.58,494.66Z" transform="translate(54.96 0)"/><path class="cls-47" d="M580.89,494.4a137,137,0,1,1-84-174.59A137.07,137.07,0,0,1,580.89,494.4Zm2,.68a139.07,139.07,0,1,0-177.25,85.28A139,139,0,0,0,582.87,495.08Z" transform="translate(54.96 0)"/><path class="cls-47" d="M582.19,494.83A138.34,138.34,0,1,1,321,403.45c25.28-72.12,104.19-110.2,176.31-84.93A138.35,138.35,0,0,1,582.19,494.83Zm2,.69a140.43,140.43,0,1,0-179,86.22A140.47,140.47,0,0,0,584.16,495.52Z" transform="translate(54.96 0)"/><path class="cls-47" d="M583.47,495.35a139.73,139.73,0,1,1-85.7-178.12A139.68,139.68,0,0,1,583.47,495.35Zm2,.68a141.82,141.82,0,1,0-180.69,87A141.87,141.87,0,0,0,585.45,496Z" transform="translate(54.96 0)"/><path class="cls-48" d="M584.85,495.78a141.17,141.17,0,1,1-86.57-179.84A141.18,141.18,0,0,1,584.85,495.78Zm1.89.68a143.18,143.18,0,1,0-182.5,87.85A143.22,143.22,0,0,0,586.74,496.46Z" transform="translate(54.96 0)"/><path class="cls-49" d="M586.14,496.2A142.5,142.5,0,0,1,404.5,583.63c-74.27-26-113.38-107.28-87.42-181.55a142.5,142.5,0,0,1,181.64-87.43C573,340.61,612.1,421.93,586.14,496.2Zm2,.69A144.62,144.62,0,1,0,403.81,585.6,144.58,144.58,0,0,0,588.12,496.89Z" transform="translate(54.96 0)"/><path class="cls-49" d="M587.43,496.72c-26.31,75-108.4,114.5-183.36,88.28a143.93,143.93,0,0,1-88.28-183.44c26.3-75,108.4-114.5,183.36-88.2A143.81,143.81,0,0,1,587.43,496.72Zm2,.69a146,146,0,1,0-186,89.48A146,146,0,0,0,589.41,497.41Z" transform="translate(54.96 0)"/><path class="cls-49" d="M588.72,497.15c-26.48,75.73-109.43,115.62-185.16,89.14A145.26,145.26,0,0,1,314.5,401.13C341,325.4,423.93,285.51,499.66,312A145.26,145.26,0,0,1,588.72,497.15Zm2,.69C617.6,421,577.11,336.92,500.35,310.1a147.38,147.38,0,1,0-97.48,278.17C479.72,615.09,563.79,574.69,590.69,497.84Z" transform="translate(54.96 0)"/><path class="cls-50" d="M590,497.58A146.63,146.63,0,1,1,500.09,310.7C576.51,337.52,616.83,421.16,590,497.58Zm2,.69a148.73,148.73,0,1,0-189.55,91.29C480,616.72,564.82,575.81,592,498.27Z" transform="translate(54.96 0)"/><path class="cls-50" d="M591.38,498.09a148.09,148.09,0,1,1-90.86-188.68A148.15,148.15,0,0,1,591.38,498.09Zm1.89.69A150.11,150.11,0,1,0,402,590.85,150.08,150.08,0,0,0,593.27,498.78Z" transform="translate(54.96 0)"/><path class="cls-51" d="M592.67,498.53c-27.33,77.88-112.52,119-190.4,91.63a149.4,149.4,0,1,1,190.4-91.63Zm2,.68a151.59,151.59,0,0,0-93-193.07c-78.91-27.68-165.39,13.93-193.07,92.93a151.59,151.59,0,0,0,93,193.07C480.49,619.82,567,578.21,594.65,499.21Z" transform="translate(54.96 0)"/><path class="cls-51" d="M594,499a150.85,150.85,0,0,1-192.21,92.58c-78.57-27.6-120-113.65-92.49-192.21A150.81,150.81,0,0,1,594,499Zm2,.68c27.85-79.68-14.1-166.93-93.78-194.79S335.22,319,307.28,398.64s14.1,166.93,93.78,194.79S568,579.33,595.94,499.64Z" transform="translate(54.96 0)"/><path class="cls-51" d="M595.25,499.47a152.18,152.18,0,0,1-193.93,93.35C322,565.06,280.2,478.15,308,398.81A152.2,152.2,0,1,1,595.25,499.47Zm2,.69a154.19,154.19,0,0,0-94.65-196.59c-80.37-28.2-168.39,14.18-196.59,94.55a154.2,154.2,0,0,0,94.64,196.6C481,622.91,569,580.53,597.23,500.16Z" transform="translate(54.96 0)"/><path class="cls-52" d="M596.54,499.9a153.56,153.56,0,1,1-94.21-195.73A153.55,153.55,0,0,1,596.54,499.9Zm2,.69C627,419.44,584.16,330.64,503,302.19a155.64,155.64,0,0,0-198.31,95.5c-28.45,81.15,14.36,170,95.5,198.4S570.15,581.74,598.52,500.59Z" transform="translate(54.96 0)"/><path class="cls-53" d="M597.92,500.33a155,155,0,1,1-95.08-197.45A155,155,0,0,1,597.92,500.33Zm1.89.69c28.71-81.84-14.44-171.41-96.28-200.12S332,315.34,303.41,397.26s14.44,171.41,96.28,200.12S571.18,582.94,599.81,501Z" transform="translate(54.96 0)"/><path class="cls-53" d="M599.2,500.85C570.67,582.34,481.44,625.23,400,596.69A156.33,156.33,0,1,1,599.2,500.85Zm2,.68c28.89-82.6-14.61-173-97.22-201.92A158.53,158.53,0,0,0,302,396.75c-28.89,82.61,14.61,173,97.22,201.92A158.53,158.53,0,0,0,601.18,501.53Z" transform="translate(54.96 0)"/><path class="cls-53" d="M600.49,501.27c-28.79,82.18-118.8,125.51-201,96.71s-125.59-118.71-96.8-201,118.8-125.5,201-96.7A157.63,157.63,0,0,1,600.49,501.27Zm2,.69a159.86,159.86,0,0,0-98.08-203.64c-83.3-29.23-174.42,14.7-203.64,98A159.79,159.79,0,0,0,398.83,600C482.13,629.19,573.24,585.26,602.47,502Z" transform="translate(54.96 0)"/><path class="cls-53" d="M601.78,501.71a159.11,159.11,0,1,1-97.56-202.79A159.15,159.15,0,0,1,601.78,501.71Zm2,.68a161.2,161.2,0,1,0-205.45,98.86A161.19,161.19,0,0,0,603.76,502.39Z" transform="translate(54.96 0)"/><path class="cls-54" d="M603.07,502.22C573.85,585.86,482.21,630,398.57,600.65a160.54,160.54,0,0,1-98.42-204.59c29.22-83.64,120.86-127.74,204.5-98.43A160.54,160.54,0,0,1,603.07,502.22Zm2,.69a162.59,162.59,0,1,0-207.17,99.71A162.69,162.69,0,0,0,605.05,502.91Z" transform="translate(54.96 0)"/><path class="cls-54" d="M604.45,502.65c-29.57,84.41-122,128.86-206.31,99.29a162,162,0,0,1-99.37-206.31c29.57-84.42,122-128.86,206.31-99.29A162,162,0,0,1,604.45,502.65Zm1.89.69c29.91-85.45-15-179.06-100.58-209A163.93,163.93,0,0,0,296.88,394.94c-29.92,85.45,15,179.06,100.57,209A163.93,163.93,0,0,0,606.34,503.34Z" transform="translate(54.96 0)"/><path class="cls-54" d="M605.74,503.08c-29.83,85.1-123,130-208.11,100.15S267.74,480.3,297.48,395.2s123-130,208.11-100.15S635.48,418,605.74,503.08Zm1.89.69c30.26-86.13-15.22-180.52-101.35-210.69A165.36,165.36,0,1,0,607.63,503.77Z" transform="translate(54.96 0)"/><path class="cls-54" d="M607,503.6c-30.09,85.79-124,131-209.83,100.92s-131.1-124-101-209.75,124-131.09,209.83-101S637,417.72,607,503.6Zm2,.68a166.76,166.76,0,0,0-314.79-110.2c-30.43,86.91,15.39,182,102.3,212.41S578.58,591.19,609,504.28Z" transform="translate(54.96 0)"/><path class="cls-54" d="M608.32,504c-30.26,86.56-125,132.12-211.55,101.86S264.56,480.82,294.9,394.25s125-132.12,211.55-101.86S638.66,417.46,608.32,504Zm2,.69A168.14,168.14,0,1,0,396.08,607.78,168.06,168.06,0,0,0,610.29,504.72Z" transform="translate(54.96 0)"/><path class="cls-55" d="M609.61,504.46c-30.52,87.25-126,133.24-213.36,102.72S263,481.07,293.61,393.82,419.63,260.58,507,291.1,640.21,417.2,609.61,504.46Zm2,.68c30.95-88.36-15.64-185.07-103.93-216s-185.07,15.65-216,104,15.65,185.07,103.93,216S580.64,593.51,611.58,505.14Z" transform="translate(54.96 0)"/><path class="cls-55" d="M610.9,504.89c-30.78,88-127.06,134.35-215.08,103.58a168.69,168.69,0,0,1-103.5-215.08C323.1,305.37,419.37,259,507.4,289.81A168.7,168.7,0,0,1,610.9,504.89Zm2,.68C644.08,416.52,597.14,319,508.09,287.83S321.55,303.57,290.35,392.71s15.73,186.53,104.78,217.74S581.67,594.72,612.87,505.57Z" transform="translate(54.96 0)"/><path class="cls-55" d="M612.27,505.4C581.15,594.11,484.1,640.88,395.39,609.76S259.92,481.59,291,392.88A170.23,170.23,0,0,1,507.83,288.52C596.54,319.55,643.3,416.69,612.27,505.4Zm1.89.69A172.25,172.25,0,0,0,508.52,286.54c-89.75-31.46-188.09,15.91-219.46,105.65A172.24,172.24,0,0,0,394.7,611.74C484.45,643.2,582.79,595.83,614.16,506.09Z" transform="translate(54.96 0)"/><path class="cls-55" d="M613.56,505.83A171.5,171.5,0,0,1,394.88,611.05c-89.41-31.29-136.51-129.2-105.22-218.6A171.5,171.5,0,0,1,508.34,287.23C597.74,318.52,644.85,416.43,613.56,505.83Zm2,.69C647.17,416,599.55,317,509,285.25s-189.63,16-221.35,106.51,16,189.55,106.51,221.26S583.82,597,615.54,506.52Z" transform="translate(54.96 0)"/><path class="cls-56" d="M614.85,506.26A173,173,0,0,1,394.44,612.42C304.27,580.79,256.82,482.11,288.37,392a173,173,0,0,1,220.4-106.16C599,317.49,646.4,416.17,614.85,506.26Zm2,.69c31.89-91.21-16.17-191.09-107.37-223A175,175,0,0,0,286.39,391.33c-31.89,91.21,16.16,191.09,107.37,223A175,175,0,0,0,616.83,507Z" transform="translate(54.96 0)"/><path class="cls-56" d="M616.14,506.78A174.34,174.34,0,0,1,394,613.72C303.15,581.91,255.27,482.37,287.08,391.5A174.32,174.32,0,0,1,509.2,284.57C600.06,316.37,648,415.92,616.14,506.78Zm2,.68c32.23-92-16.25-192.63-108.23-224.87S317.34,298.92,285.1,390.82s16.25,192.63,108.23,224.87A176.44,176.44,0,0,0,618.12,507.46Z" transform="translate(54.96 0)"/><path class="cls-56" d="M617.43,507.21A175.69,175.69,0,0,1,393.5,615C302,582.94,253.64,482.71,285.79,391.07A175.69,175.69,0,0,1,509.72,283.28C601.27,315.34,649.58,415.57,617.43,507.21Zm2,.69c32.49-92.67-16.34-194.11-109-226.6s-194.19,16.42-226.6,109.09,16.34,194.1,109,226.59S587,600.56,619.41,507.9Z" transform="translate(54.96 0)"/><path class="cls-56" d="M618.8,507.64c-32.32,92.32-133.41,141-225.73,108.65S252.09,483,284.41,390.64,417.83,249.67,510.15,282A177.08,177.08,0,0,1,618.8,507.64Zm1.9.69C653.45,415,604.19,312.76,510.84,280S315.19,296.52,282.52,390,299,585.6,392.38,618.27,588,601.77,620.7,508.33Z" transform="translate(54.96 0)"/><path class="cls-57" d="M620.1,508.15c-32.59,93-134.45,142-227.46,109.43A178.45,178.45,0,0,1,283.12,390.13c32.58-93,134.45-142,227.46-109.43A178.46,178.46,0,0,1,620.1,508.15Zm2,.69c32.92-94.13-16.68-197.19-110.8-230.12A180.62,180.62,0,0,0,281.15,389.44c-32.93,94.13,16.67,197.2,110.8,230.12S589.06,603,622.07,508.84Z" transform="translate(54.96 0)"/><path class="cls-58" d="M621.38,508.58C588.55,602.37,485.91,651.71,392.12,619S249,483.48,281.83,389.7,417.31,246.57,511.1,279.41,654.22,414.8,621.38,508.58Zm2,.69c33.18-94.81-16.76-198.66-111.66-231.84S313.13,294.19,279.86,389s16.76,198.66,111.58,231.84S590.09,604.08,623.36,509.27Z" transform="translate(54.96 0)"/><path class="cls-58" d="M622.67,509c-33.09,94.56-136.5,144.33-231,111.24s-144.24-136.51-111.14-231,136.5-144.33,231-111.24S655.77,414.54,622.67,509Zm2,.69c33.44-95.5-16.85-200.12-112.44-233.56S312,293,278.57,388.58,295.42,588.7,391,622.22,591.21,605.29,624.65,509.7Z" transform="translate(54.96 0)"/><path class="cls-58" d="M624,509.53c-33.27,95.16-137.54,145.36-232.7,112a182.63,182.63,0,0,1-112-232.79c33.26-95.16,137.53-145.36,232.69-112A182.63,182.63,0,0,1,624,509.53Zm2,.68c33.7-96.27-17-201.66-113.3-235.44S311,291.79,277.28,388.06s17,201.76,113.3,235.45S592.24,606.49,625.94,510.21Z" transform="translate(54.96 0)"/><path class="cls-58" d="M625.34,510c-33.61,95.93-138.66,146.48-234.51,112.86S244.36,484.25,277.88,388.32s138.66-146.48,234.5-112.87S658.86,414,625.34,510Zm1.89.68c34-97.05-17.11-203.21-114.16-237.16S310,290.67,276,387.63,293.1,590.85,390.15,624.8,593.27,607.7,627.23,510.64Z" transform="translate(54.96 0)"/><path class="cls-59" d="M626.63,510.39A185.39,185.39,0,0,1,390.32,624.12C293.7,590.33,242.81,484.51,276.59,387.89A185.38,185.38,0,0,1,512.9,274.17C609.52,308,660.41,413.77,626.63,510.39Zm2,.69a187.45,187.45,0,0,0-115-238.89c-97.74-34.21-204.76,17.28-239,115s17.28,204.67,115,238.88S594.39,608.81,628.6,511.08Z" transform="translate(54.96 0)"/><path class="cls-60" d="M627.92,510.91c-34.13,97.3-140.64,148.62-238,114.58S241.18,484.77,275.3,387.38s140.64-148.63,238-114.5S662,413.51,627.92,510.91Zm2,.68C664.36,413.08,612.44,305.37,514,270.9S307.79,288.26,273.33,386.69,290.78,592.91,389.2,627.38,595.42,610,629.89,511.59Z" transform="translate(54.96 0)"/><path class="cls-60" d="M629.2,511.33c-34.29,98.08-141.66,149.75-239.74,115.45S239.63,485,274,387,415.68,237.2,513.76,271.5,663.59,413.25,629.2,511.33Zm2,.69c34.73-99.2-17.54-207.68-116.73-242.41S306.76,287.06,272,386.26,289.57,594,388.77,628.67,596.45,611.22,631.18,512Z" transform="translate(54.96 0)"/><path class="cls-60" d="M630.5,511.76c-34.56,98.86-142.7,150.87-241.56,116.31S238.08,485.29,272.72,386.52s142.7-150.86,241.56-116.31S665.14,413,630.5,511.76Zm2,.69c35-99.89-17.62-209.23-117.51-244.22s-209.23,17.71-244.21,117.6,17.62,209.23,117.5,244.22S597.48,612.34,632.47,512.45Z" transform="translate(54.96 0)"/><path class="cls-61" d="M631.87,512.28c-34.9,99.46-143.81,152-243.36,117.08S236.53,485.55,271.35,386,415.16,234.11,514.71,268.92,666.68,412.74,631.87,512.28Zm1.89.69c35.25-100.66-17.71-210.78-118.37-246s-210.78,17.8-245.93,118.37,17.71,210.78,118.37,246S598.6,613.54,633.76,513Z" transform="translate(54.96 0)"/><path class="cls-62" d="M633.16,512.71C598,612.94,488.31,665.81,388.08,630.65S235,485.8,270.06,385.57,414.9,232.48,515.14,267.63,668.23,412.48,633.16,512.71Zm2,.69c35.41-101.35-18-212.24-119.32-247.74S303.58,283.54,268.08,384.88s18,212.24,119.32,247.74S599.63,614.75,635.14,513.4Z" transform="translate(54.96 0)"/><path class="cls-62" d="M634.45,513.14c-35.33,101-145.88,154.21-246.88,118.8s-154.13-145.88-118.8-246.8,145.88-154.21,246.88-118.8S669.78,412.22,634.45,513.14Zm2,.69c35.67-102-18.06-213.79-120.09-249.46S302.55,282.42,266.79,384.45s18,213.79,120.09,249.46S600.66,615.86,636.43,513.83Z" transform="translate(54.96 0)"/><path class="cls-62" d="M635.74,513.65c-35.59,101.7-146.91,155.25-248.6,119.66A195.18,195.18,0,0,1,267.48,384.63C303.07,282.93,414.39,229.38,516.08,265A195.19,195.19,0,0,1,635.74,513.65Zm2,.69c36-102.81-18.14-215.33-121-251.26S301.52,281.21,265.5,384s18.14,215.25,121,251.18S601.7,617.07,637.72,514.34Z" transform="translate(54.96 0)"/><path class="cls-62" d="M637,514.09C601.18,616.46,489.09,670.45,386.71,634.6S230.26,486.66,266.19,384.2,414.13,227.83,516.51,263.68,672.87,411.62,637,514.09Zm2,.68C675.28,411.27,620.7,298,517.2,261.7S300.4,280,264.21,383.51,282.52,600.3,386,636.58,602.82,618.27,639,514.77Z" transform="translate(54.96 0)"/><path class="cls-63" d="M638.4,514.51C602.21,617.67,489.35,672,386.19,635.89s-157.48-149-121.37-252.12S413.87,226.29,517,262.39,674.51,411.36,638.4,514.51Zm1.9.69C676.83,411,621.9,297,517.71,260.41s-218.34,18.4-254.79,122.67,18.4,218.26,122.59,254.79S603.85,619.47,640.3,515.2Z" transform="translate(54.96 0)"/><path class="cls-64" d="M639.69,515C603.33,618.87,489.6,673.54,385.76,637.18s-158.6-150-122.23-253.84S413.61,224.74,517.46,261.1,676.05,411.1,639.69,515Zm1.89.6c36.8-104.87-18.48-219.8-123.44-256.51s-219.8,18.57-256.59,123.53,18.57,219.8,123.52,256.51S604.88,620.59,641.58,515.63Z" transform="translate(54.96 0)"/><path class="cls-64" d="M641,515.46C604.36,620,489.86,675.09,385.33,638.47s-159.71-151-123.09-255.65,151.12-159.63,255.65-123S677.6,410.84,641,515.46Zm2,.69c37-105.65-18.65-221.35-124.39-258.32s-221.26,18.66-258.31,124.3,18.65,221.35,124.38,258.32S605.91,621.79,643,516.15Z" transform="translate(54.96 0)"/><path class="cls-64" d="M642.27,515.89c-36.88,105.3-152.15,160.83-257.45,124S224.07,487.69,261,382.39,413.1,221.64,518.4,258.44,679.15,410.59,642.27,515.89Zm2,.69c37.22-106.34-18.83-222.81-125.16-260S296.19,275.28,259,381.7s18.83,222.82,125.16,260S607,623,644.25,516.58Z" transform="translate(54.96 0)"/><path class="cls-65" d="M643.56,516.32C606.43,622.39,490.38,678.27,384.39,641.13S222.52,488,259.66,382,412.84,220,518.83,257.15,680.7,410.33,643.56,516.32Zm2,.69c37.48-107.11-18.91-224.28-126-261.84s-224.36,19-261.84,126.1,18.91,224.28,126,261.84S608.06,624.12,645.54,517Z" transform="translate(54.96 0)"/><path class="cls-65" d="M644.85,516.83C607.54,623.6,490.72,679.82,384,642.42s-163-154.21-125.59-261,154.13-163,260.89-125.59S682.24,410.07,644.85,516.83Zm2,.69c37.74-107.88-19-225.9-126.88-263.64S294.13,273,256.39,380.76s19,225.9,126.88,263.64S609.09,625.32,646.83,517.52Z" transform="translate(54.96 0)"/><path class="cls-66" d="M646.23,517.27C608.58,624.72,491,681.37,383.44,643.71S219.43,488.47,257,381s155.25-164.1,262.79-126.45S683.79,409.81,646.23,517.27Zm1.89.68C686.2,409.38,629,290.58,520.47,252.59S293.1,271.76,255.1,380.33,274.27,607.7,382.75,645.69,610.12,626.52,648.12,518Z" transform="translate(54.96 0)"/><path class="cls-66" d="M647.52,517.7C609.61,625.92,491.24,682.91,383,645S217.79,488.73,255.7,380.59,412,215.37,520.21,253.28,685.43,409.56,647.52,517.7Zm2,.68C687.75,409.13,630.15,289.55,520.9,251.3S292,270.56,253.73,379.9,273.07,608.73,382.32,647,611.24,627.73,649.49,518.38Z" transform="translate(54.96 0)"/><path class="cls-67" d="M648.8,518.21C610.64,627.12,491.49,684.46,382.58,646.38S216.25,489,254.41,380.07,411.72,213.82,520.64,251.9,687,409.3,648.8,518.21Zm2,.69c38.51-110-19.43-230.38-129.46-268.89S291,269.44,252.44,379.38s19.42,230.38,129.45,268.89S612.27,628.84,650.78,518.9Z" transform="translate(54.96 0)"/><path class="cls-67" d="M650.09,518.64c-38.33,109.6-158.34,167.37-268,129s-167.37-158.43-128.95-268,158.35-167.37,268-129S688.52,409,650.09,518.64Zm2,.69c38.77-110.72-19.6-231.93-130.23-270.69S289.92,268.23,251.15,379s19.6,231.93,130.23,270.7S613.3,630.05,652.07,519.33Z" transform="translate(54.96 0)"/><path class="cls-67" d="M651.38,519.07C612.79,629.44,492,687.56,381.64,649S213.15,489.5,251.84,379.21,411.21,210.73,521.58,249.32,690.07,408.78,651.38,519.07Zm2,.69c39-111.41-19.68-233.39-131.09-272.41S288.88,267,249.86,378.52,269.54,611.91,381,650.93,614.34,631.25,653.36,519.76Z" transform="translate(54.96 0)"/><path class="cls-68" d="M652.76,519.58C613.82,630.65,492.27,689.19,381.21,650.25S211.6,489.76,250.46,378.69,411,209.09,522,248,691.61,408.52,652.76,519.58Zm1.89.69c39.29-112.18-19.77-234.93-131.95-274.21S287.77,265.91,248.57,378s19.77,234.93,132,274.22S615.45,632.37,654.65,520.27Z" transform="translate(54.96 0)"/><path class="cls-69" d="M654.05,520c-39.2,111.84-161.52,170.73-273.36,131.53S210.06,490.1,249.17,378.26,410.69,207.55,522.44,246.74,693.16,408.18,654.05,520Zm2,.69c39.45-112.86-19.95-236.39-132.9-275.93s-236.4,19.94-275.94,132.81S267.14,614,380.09,653.51,616.48,633.57,656,520.7Z" transform="translate(54.96 0)"/><path class="cls-69" d="M655.34,520.45C616,633,492.78,692.28,380.26,652.91S208.51,490.36,247.88,377.83,410.43,206,523,245.46,694.71,407.92,655.34,520.45Zm2,.68c39.81-113.55-20.11-237.94-133.66-277.65s-237.95,20-277.75,133.67S266,615.09,379.57,654.8,617.52,634.77,657.31,521.13Z" transform="translate(54.96 0)"/><path class="cls-70" d="M656.63,521C617,634.17,493,693.83,379.83,654.2S207,490.62,246.59,377.32s163.59-172.87,276.8-133.24S696.25,407.66,656.63,521Zm2,.69c40-114.33-20.21-239.49-134.53-279.46S284.67,262.3,244.61,376.63s20.21,239.49,134.53,279.55S618.55,636,658.61,521.65Z" transform="translate(54.96 0)"/><path class="cls-71" d="M657.92,521.39c-39.89,114-164.62,174-278.52,134.1S205.33,490.87,245.3,376.89s164.62-174,278.52-134.1S697.89,407.41,657.92,521.39Zm2,.69c40.32-115-20.29-241-135.38-281.27s-241,20.38-281.19,135.39,20.29,241,135.39,281.27S619.66,637.1,659.89,522.08Z" transform="translate(54.96 0)"/><path class="cls-71" d="M659.29,521.82c-40.23,114.67-165.73,175.1-280.4,135s-175.11-165.65-135-280.32,165.73-175.1,280.4-135S699.44,407.15,659.29,521.82Zm1.89.69C701.76,406.8,640.72,280.1,525,239.52S282.52,260,242,375.77s20.45,242.41,136.16,283S620.7,638.3,661.18,522.51Z" transform="translate(54.96 0)"/><path class="cls-72" d="M660.58,522.34C620.18,637.7,493.82,698.47,378.46,658.07S202.24,491.39,242.64,375.94,409.4,199.81,524.76,240.21,701,406.89,660.58,522.34Zm2,.68c40.74-116.47-20.63-244-137.11-284.79s-244,20.55-284.79,137,20.63,244,137.11,284.79S621.73,639.5,662.56,523Z" transform="translate(54.96 0)"/><path class="cls-73" d="M661.87,522.77C621.21,638.9,494.07,700,378,659.45S200.69,491.65,241.35,375.51s167.8-177.25,283.84-136.59S702.53,406.63,661.87,522.77Zm2,.68c41-117.25-20.72-245.5-138-286.51S280.46,257.66,239.37,374.83s20.72,245.5,138,286.51S622.76,640.62,663.85,523.45Z" transform="translate(54.96 0)"/><path class="cls-73" d="M663.16,523.2C622.24,640.1,494.42,701.65,377.51,660.73S199.14,491.9,240.06,375.08,408.8,196.63,525.71,237.55,704.08,406.37,663.16,523.2Zm2,.68c41.26-117.93-20.81-247-138.75-288.22s-247,20.8-288.31,138.74,20.8,247,138.74,288.23S623.88,641.82,665.14,523.88Z" transform="translate(54.96 0)"/><path class="cls-74" d="M664.45,523.71C623.36,641.22,494.67,703.2,377.08,662S197.59,492.16,238.77,374.57,408.54,195.08,526.14,236.26,705.62,406.12,664.45,523.71Zm2,.69c41.52-118.71-21-248.52-139.61-290.12s-248.51,21-290,139.6,21,248.51,139.6,290.12S624.91,643,666.43,524.4Z" transform="translate(54.96 0)"/><path class="cls-75" d="M665.83,524.14c-41.44,118.28-170.9,180.61-289.18,139.17S196.05,492.42,237.39,374.14,408.28,193.53,526.57,235,707.17,405.86,665.83,524.14Zm1.89.69C709.58,405.43,646.66,274.77,527.26,233s-250,21.15-291.76,140.46S256.56,623.51,376,665.29,625.94,644.23,667.72,524.83Z" transform="translate(54.96 0)"/><path class="cls-75" d="M667.11,524.57c-41.69,119.06-171.92,181.72-291,140S194.5,492.68,236.1,373.71,408,192,527.08,233.68,708.72,405.6,667.11,524.57Zm2,.69c42-120.09-21.23-251.52-141.32-293.56S276.25,252.93,234.13,373s21.23,251.52,141.32,293.56S627,645.35,669.09,525.26Z" transform="translate(54.96 0)"/><path class="cls-76" d="M668.4,525.09c-41.94,119.66-172.95,182.75-292.69,140.8S192.87,492.94,234.81,373.28s173-182.84,292.7-140.89S710.35,405.34,668.4,525.09Zm2,.68C712.67,404.91,649,272.7,528.2,230.41S275.13,251.73,232.84,372.59s21.4,253,142.18,295.28S628.09,646.55,670.38,525.77Z" transform="translate(54.96 0)"/><path class="cls-77" d="M669.69,525.52C627.57,646,495.71,709.39,375.27,667.27S191.32,493.2,233.52,372.76,407.51,188.89,527.94,231,711.9,405.08,669.69,525.52Zm2,.68c42.55-121.54-21.49-254.53-143-297.08s-254.53,21.41-297.08,143,21.49,254.53,143,297.08S629.12,647.75,671.67,526.2Z" transform="translate(54.96 0)"/><path class="cls-77" d="M671,526c-42.38,121.2-175,185-296.22,142.61s-185-175.11-142.52-296.23,175-185,296.22-142.61S713.45,404.83,671,526Zm2,.68c42.81-122.23-21.58-256.07-143.81-298.88s-256.08,21.66-298.89,143.9,21.58,256.08,143.81,298.88S630.15,648.87,673,526.63Z" transform="translate(54.96 0)"/><path class="cls-78" d="M672.36,526.38c-42.72,122-176.14,186.19-298,143.47s-186.11-176-143.47-298S407,185.8,528.89,228.43,715,404.48,672.36,526.38Zm1.89.68c43.07-122.92-21.66-257.54-144.67-300.6S272,248.2,229,371.22s21.66,257.54,144.67,300.6S631.18,650.08,674.25,527.06Z" transform="translate(54.96 0)"/><path class="cls-79" d="M673.65,526.89c-43,122.58-177.17,187.23-299.75,144.24S186.68,494.05,229.57,371.39,406.74,184.17,529.32,227.14,716.54,404.22,673.65,526.89Zm2,.69C718.86,403.88,653.7,268.49,530,225.17S270.92,247,227.59,370.7s21.92,259.09,145.62,302.41S632.3,651.28,675.63,527.58Z" transform="translate(54.96 0)"/><path class="cls-79" d="M674.94,527.32c-43.16,123.36-178.2,188.34-301.56,145.11S185.13,494.31,228.28,371s178.2-188.34,301.55-145.1S718.09,404,674.94,527.32Zm2,.69c43.5-124.39-22-260.55-146.39-304.13s-260.63,22-304.22,146.39,22,260.55,146.4,304.13S633.33,652.4,676.91,528Z" transform="translate(54.96 0)"/><path class="cls-80" d="M676.23,527.75C632.82,651.88,497,717.21,373,673.8S183.58,494.57,227,370.53s179.23-189.46,303.27-146S719.64,403.71,676.23,527.75Zm2,.69C722,403.37,656.11,266.34,531,222.59S268.85,244.68,225,369.84s22.09,262.1,147.25,305.85S634.36,653.6,678.2,528.44Z" transform="translate(54.96 0)"/><path class="cls-80" d="M677.51,528.27C633.85,653,497.25,718.76,372.53,675.09S182,494.83,225.7,370,406,179.52,530.69,223.19,721.27,403.45,677.51,528.27Zm2,.69c44.1-125.85-22.26-263.65-148.11-307.75S267.82,243.48,223.73,369.33,246,633,371.84,677.07,635.39,654.8,679.49,529Z" transform="translate(54.96 0)"/><path class="cls-80" d="M678.81,528.7C634.88,654.2,497.51,720.31,372,676.38s-191.61-181.3-147.6-306.8S405.71,178,531.21,221.9,722.82,403.19,678.81,528.7Zm2,.68c44.36-126.53-22.35-265.1-148.88-309.46s-265.19,22.35-309.46,149S244.79,634,371.32,678.36,636.51,656,680.78,529.38Z" transform="translate(54.96 0)"/><path class="cls-81" d="M680.18,529.13C636,655.41,497.77,721.85,371.58,677.67S178.85,495.35,223,369.15s182.41-192.72,308.6-148.54S724.37,402.94,680.18,529.13Zm1.89.68c44.62-127.3-22.43-266.56-149.74-311.18S265.67,241.16,221.15,368.47,243.58,635,370.89,679.65,637.54,657.12,682.07,529.81Z" transform="translate(54.96 0)"/><path class="cls-81" d="M681.47,529.64C637,656.52,498.11,723.4,371.15,679S177.31,495.6,221.75,368.64,405.1,174.88,532.07,219.32,725.91,402.68,681.47,529.64Zm2,.69c44.78-128.08-22.61-268.2-150.69-313S264.64,240,219.77,368s22.61,268.2,150.69,313S638.57,658.33,683.45,530.33Z" transform="translate(54.96 0)"/><path class="cls-81" d="M682.76,530.07c-44.7,127.66-184.39,195-312.13,150.26S175.76,495.86,220.46,368.21,404.85,173.25,532.58,218,727.46,402.42,682.76,530.07Zm2,.69C729.78,402,662,261.1,533.27,216.06S263.61,238.75,218.48,367.52,241.26,637.18,370,682.23,639.6,659.53,684.74,530.76Z" transform="translate(54.96 0)"/><path class="cls-82" d="M684.05,530.5c-45,128.43-185.42,196.08-313.85,151.12s-196-185.5-151-313.84S404.59,171.7,533,216.66,729,402.16,684.05,530.5Zm2,.69c45.3-129.46-22.87-271.12-152.33-316.51S262.49,237.63,217.19,367.09,240.06,638.21,369.52,683.6,640.72,660.65,686,531.19Z" transform="translate(54.96 0)"/><path class="cls-83" d="M685.34,531C640.21,660.13,498.89,728.13,369.77,682.91S172.66,496.38,217.88,367.26,404.33,170.15,533.44,215.37,730.55,401.9,685.34,531Zm2,.69C733,401.48,664.36,259,534.13,213.39s-272.67,23-318.23,153.18,23,272.67,153.19,318.32S641.76,661.85,687.31,531.71Z" transform="translate(54.96 0)"/><path class="cls-83" d="M686.71,531.45C641.24,661.25,499.15,729.68,369.34,684.2S171.12,496.63,216.51,366.83,404.07,168.61,533.88,214.08,732.1,401.65,686.71,531.45Zm1.9.69c45.9-130.92-23.13-274.22-154.05-320s-274.13,23.12-319.95,154,23.13,274.22,154.05,320S642.79,663.06,688.61,532.14Z" transform="translate(54.96 0)"/><path class="cls-84" d="M688,531.88C642.27,662.45,499.4,731.22,368.83,685.49S169.48,496.89,215.22,366.4,403.81,167.06,534.39,212.79,733.73,401.39,688,531.88Zm2,.68c46.08-131.6-23.3-275.67-154.9-321.75S259.4,234,213.24,365.71s23.29,275.68,154.9,321.76S643.82,664.26,690,532.56Z" transform="translate(54.96 0)"/><path class="cls-85" d="M689.29,532.39c-46,131.27-189.63,200.38-320.89,154.48s-200.46-189.72-154.47-321S403.56,165.51,534.82,211.41,735.28,401.13,689.29,532.39Zm2,.69C737.6,400.7,667.89,255.86,535.51,209.52S258.28,232.9,212,365.2s23.38,277.22,155.76,323.56S644.94,665.38,691.27,533.08Z" transform="translate(54.96 0)"/><path class="cls-85" d="M690.58,532.82C644.42,664.77,499.92,734.32,368,688.16S166.39,497.49,212.64,365.46,403.3,164,535.25,210.13,736.83,400.79,690.58,532.82Zm2,.69C739.15,400.44,669,254.83,535.94,208.23S257.25,231.7,210.66,364.77s23.55,278.77,156.62,325.36S646,666.58,692.56,533.51Z" transform="translate(54.96 0)"/><path class="cls-86" d="M691.87,533.25C645.45,666,500.18,735.87,367.45,689.44S164.84,497.75,211.35,365,403,162.42,535.76,208.84,738.38,400.53,691.87,533.25Zm2,.69c46.85-133.75-23.64-280.23-157.4-327.08S256.22,230.5,209.37,364.34,233,644.57,366.76,691.42,647,667.78,693.85,533.94Z" transform="translate(54.96 0)"/><path class="cls-87" d="M693.25,533.77C646.48,667.18,500.43,737.5,367,690.74S163.29,498,210,364.51s192.81-203.73,326.22-157S739.92,400.27,693.25,533.77Zm1.89.69c47.1-134.53-23.73-281.78-158.26-328.89s-281.69,23.81-328.8,158.25S231.81,645.6,366.34,692.71,648,668.9,695.14,534.46Z" transform="translate(54.96 0)"/><path class="cls-87" d="M694.54,534.2C647.52,668.38,500.69,739.05,366.59,692S161.75,498.27,208.68,364.08,402.53,159.24,536.62,206.26,741.47,400,694.54,534.2Zm2,.69c47.28-135.22-23.89-283.25-159.2-330.61s-283.24,23.9-330.6,159.11S230.6,646.64,365.91,694,649.15,670.1,696.51,534.89Z" transform="translate(54.96 0)"/><path class="cls-88" d="M695.83,534.63C648.63,669.5,501,740.59,366.08,693.4S160.2,498.53,207.39,363.65,402.27,157.69,537.14,205,743,399.76,695.83,534.63Zm2,.69c47.62-135.91-24.07-284.71-160-332.33S253,227,205.42,363s24.07,284.79,160,332.33S650.18,671.31,697.8,535.32Z" transform="translate(54.96 0)"/><path class="cls-89" d="M697.12,535.14c-47.46,135.57-195.91,207-331.47,159.55s-207-195.91-159.55-331.55S402,156.14,537.57,203.59,744.56,399.5,697.12,535.14Zm2,.69C747,399.15,674.94,249.49,538.26,201.7S252,225.77,204.13,362.53,228.28,648.78,365,696.58,651.21,672.51,699.09,535.83Z" transform="translate(54.96 0)"/><path class="cls-89" d="M698.41,535.57C650.7,671.91,501.47,743.69,365.22,696S157,499,204.81,362.71,401.75,154.59,538,202.3,746.2,399.24,698.41,535.57Zm2,.69c48.14-137.45-24.24-287.8-161.69-335.93S250.89,224.65,202.84,362,227.08,649.82,364.53,698,652.33,673.63,700.38,536.26Z" transform="translate(54.96 0)"/><path class="cls-90" d="M699.78,536c-48,137-198,209.23-335.08,161.27s-209.23-198-161.26-335S401.41,153.05,538.52,201,747.75,399,699.78,536Zm1.89.69C750.07,398.55,677.26,247.43,539.2,199S249.86,223.45,201.55,361.59,226,650.85,364,699.24,653.36,674.83,701.67,536.69Z" transform="translate(54.96 0)"/><path class="cls-91" d="M701.07,536.52c-48.22,137.71-199,210.26-336.8,162s-210.34-199-162.12-336.71S401.15,151.5,539,199.72,749.29,398.72,701.07,536.52Zm2,.69c48.56-138.92-24.59-290.81-163.42-339.46s-290.8,24.49-339.46,163.41S224.76,652,363.58,700.54,654.39,676,703.05,537.21Z" transform="translate(54.96 0)"/><path class="cls-92" d="M702.36,537c-48.48,138.48-200,211.46-338.52,162.9s-211.46-200-163-338.52,200-211.38,338.52-162.9S750.84,398.47,702.36,537Zm2,.69C753.16,398,679.66,245.28,540.06,196.46S247.79,221.13,198.88,360.64,223.55,653,363.16,701.82,655.43,677.15,704.34,537.64Z" transform="translate(54.96 0)"/><path class="cls-93" d="M703.65,537.38C654.91,676.64,502.58,750,363.33,701.22S150.83,500.07,199.57,360.9,400.63,148.32,539.89,197.06,752.39,398.21,703.65,537.38Zm2,.69c49.09-140.29-24.75-293.82-165-342.9s-293.9,24.75-343,165,24.76,293.82,165,342.9S656.54,678.36,705.62,538.07Z" transform="translate(54.96 0)"/><path class="cls-94" d="M704.94,537.81c-49,139.94-202.1,213.7-342,164.7s-213.62-202.18-164.62-342,202.1-213.7,342-164.7S753.94,398,704.94,537.81Zm2,.69C756.26,397.52,682,243.22,541,193.79s-295.36,24.93-344.71,166,24.93,295.28,165.91,344.71S657.57,679.56,706.91,538.5Z" transform="translate(54.96 0)"/><path class="cls-94" d="M706.31,538.33C657.06,679,503.1,753.06,362.47,703.8S147.74,500.59,196.9,360,400.12,145.22,540.75,194.48,755.48,397.69,706.31,538.33Zm1.89.68c49.69-141.75-25-296.91-166.76-346.51S244.61,217.6,195,359.27s25,296.91,166.77,346.51S658.61,680.76,708.2,539Z" transform="translate(54.96 0)"/><path class="cls-95" d="M707.6,538.75C658.09,680.16,503.36,754.6,362,705.09S146.1,500.85,195.62,359.53,399.86,143.68,541.27,193.19,757.12,397.43,707.6,538.75Zm2,.69C759.44,397,684.39,241.07,542,191.21S243.58,216.4,193.64,358.84s25.19,298.37,167.62,348.23S659.64,681.88,709.58,539.44Z" transform="translate(54.96 0)"/><path class="cls-96" d="M708.89,539.18c-49.77,142.1-205.27,217-347.37,167.2s-217-205.19-167.19-347.29S399.6,142.13,541.7,191.9,758.66,397.18,708.89,539.18Zm2,.69C761,396.75,685.51,240,542.38,189.92s-299.91,25.28-350,168.49,25.36,299.83,168.48,350S660.75,683.08,710.87,539.87Z" transform="translate(54.96 0)"/><path class="cls-96" d="M710.18,539.7c-50,142.78-206.31,218-349.09,168.06S143,501.45,193,358.58s206.31-218,349.09-168S760.21,396.83,710.18,539.7Zm2,.69C762.53,396.49,686.71,239,542.81,188.63S241.43,214,191.06,357.89,216.51,659.27,360.4,709.65,661.79,684.29,712.16,540.39Z" transform="translate(54.96 0)"/><path class="cls-97" d="M711.47,540.13C661.27,683.69,504.13,759.25,360.58,709S141.46,501.71,191.75,358.15,399.09,139,542.64,189.23,761.76,396.58,711.47,540.13Zm2,.69c50.63-144.59-25.53-302.93-170.12-353.56S240.4,212.87,189.77,357.46,215.3,660.39,359.89,711,662.82,685.41,713.45,540.82Z" transform="translate(54.96 0)"/><path class="cls-97" d="M712.76,540.56C662.3,684.89,504.39,760.88,360.15,710.34S139.91,502,190.46,357.72,398.83,137.4,543.07,188,763.31,396.32,712.76,540.56Zm2,.69C765.63,396,689.12,236.86,543.76,186S239.37,211.67,188.48,357s25.62,304.39,171,355.28S663.85,686.61,714.74,541.25Z" transform="translate(54.96 0)"/><path class="cls-98" d="M714.14,541.08C663.33,686,504.65,762.43,359.72,711.62S138.37,502.22,189.08,357.2,398.57,135.85,543.5,186.66,764.85,396.06,714.14,541.08Zm1.89.68c51.14-146-25.79-305.93-171.84-357.08s-305.94,25.79-357,171.84S213,662.45,359,713.6,665,687.81,716,541.76Z" transform="translate(54.96 0)"/><path class="cls-99" d="M715.42,541.51C664.36,687.21,504.91,764,359.2,712.91S136.82,502.48,187.79,356.77,398.31,134.31,544,185.37,766.4,395.8,715.42,541.51Zm2,.68c51.41-146.73-26-307.39-172.78-358.8s-307.4,26-358.8,172.7,26,307.39,172.78,358.8S666,688.93,717.4,542.19Z" transform="translate(54.96 0)"/><path class="cls-99" d="M716.72,541.94c-51.24,146.47-211.56,223.58-358,172.35S135.27,502.74,186.5,356.35,398.06,132.76,544.45,184,768,395.54,716.72,541.94Zm2,.68c51.66-147.51-26.05-308.94-173.56-360.52s-308.94,26.05-360.6,173.56,26,308.94,173.55,360.52S667,690.13,718.69,542.62Z" transform="translate(54.96 0)"/><path class="cls-100" d="M718,542.45C666.51,689.53,505.51,767.07,358.34,715.58S133.64,503,185.21,355.83,397.71,131.21,544.88,182.7,769.58,395.29,718,542.45Zm2,.69c51.92-148.28-26.22-310.49-174.42-362.41s-310.4,26.21-362.32,174.41,26.22,310.5,174.41,362.42S668.06,691.34,720,543.14Z" transform="translate(54.96 0)"/><path class="cls-101" d="M719.29,542.88c-51.75,147.86-213.53,225.74-361.38,174s-225.82-213.62-174-361.47,213.53-225.73,361.39-174S771.13,395,719.29,542.88Zm2,.69c52.18-149-26.3-312-175.28-364.13s-312,26.3-364,175.27,26.3,312,175.27,364.13S669.18,692.54,721.27,543.57Z" transform="translate(54.96 0)"/><path class="cls-101" d="M720.67,543.31C668.58,691.94,506,770.16,357.4,718.16S130.54,503.51,182.55,355,397.2,128.12,545.82,180.12,772.68,394.77,720.67,543.31Zm1.89.69c52.44-149.66-26.39-313.42-176-365.85S233,204.62,180.66,354.28s26.39,313.42,176,365.85S670.21,693.66,722.56,544Z" transform="translate(54.96 0)"/><path class="cls-102" d="M722,543.83C669.69,693.06,506.28,771.71,357,719.44s-228-215.67-175.71-365,215.68-227.88,365-175.62S774.22,394.51,722,543.83Zm2,.68c52.6-150.43-26.57-315-177-367.65S232,203.42,179.28,353.77s26.57,315.05,177,367.65S671.24,694.86,723.94,544.51Z" transform="translate(54.96 0)"/><path class="cls-102" d="M723.25,544.26c-52.53,150-216.71,229.08-366.71,176.56S127.45,504,180,354,396.68,124.94,546.68,177.46,775.77,394.25,723.25,544.26Zm2,.68c52.87-151.12-26.73-316.51-177.85-369.37S231,202.22,178,353.34s26.74,316.51,177.86,369.37S672.27,696.06,725.22,544.94Z" transform="translate(54.96 0)"/><path class="cls-102" d="M724.54,544.69C671.76,695.46,506.8,774.89,356,722.11S125.9,504.28,178.68,353.59,396.42,123.39,547.2,176.17,777.32,394,724.54,544.69Zm2,.68c53.13-151.8-26.82-318-178.62-371.09S229.83,201.1,176.7,352.91s26.83,318,178.63,371.18S673.39,697.18,726.51,545.37Z" transform="translate(54.96 0)"/><path class="cls-103" d="M725.83,545.2c-53,151.47-218.78,231.24-370.24,178.2S124.35,504.54,177.39,353.08s218.77-231.24,370.24-178.2S778.86,393.74,725.83,545.2Zm2,.69c53.47-152.58-26.9-319.52-179.48-373s-319.52,27-372.9,179.49,26.9,319.52,179.48,373S674.42,698.39,727.8,545.89Z" transform="translate(54.96 0)"/><path class="cls-103" d="M727.2,545.63C673.91,697.78,507.31,778,355.16,724.69S122.81,504.89,176,352.65s219.89-232.35,372-179.06S780.41,393.48,727.2,545.63Zm1.89.69C782.82,393.05,702,225.25,548.74,171.61S227.77,198.69,174.13,352,201.2,673,354.47,726.67,675.45,699.59,729.09,546.32Z" transform="translate(54.96 0)"/><path class="cls-103" d="M728.49,546.06C674.94,699,507.57,779.53,354.65,726S121.17,505.14,174.73,352.22,395.65,118.75,548.57,172.3,782,393.14,728.49,546.06Zm2,.69c53.9-154-27.25-322.53-181.21-376.43S226.73,197.49,172.75,351.53,200,674.06,354,728,676.48,700.79,730.47,546.75Z" transform="translate(54.96 0)"/><path class="cls-104" d="M729.78,546.58C676,700.19,507.83,781.08,354.21,727.35S119.63,505.4,173.44,351.7,395.39,117.2,549,171,783.59,392.88,729.78,546.58Zm2,.69C785.91,392.53,704.42,223.19,549.69,169S225.62,196.37,171.46,351.1s27.34,324,182.07,378.15S677.6,701.91,731.76,547.27Z" transform="translate(54.96 0)"/><path class="cls-104" d="M731.07,547c-54.07,154.3-223,235.62-377.29,181.63s-235.7-223-181.63-377.37,223-235.62,377.29-181.63S785.14,392.62,731.07,547Zm2,.69c54.41-155.42-27.51-325.54-182.93-380s-325.53,27.42-380,182.84,27.51,325.53,182.93,380S678.63,703.11,733.05,547.7Z" transform="translate(54.96 0)"/><path class="cls-104" d="M732.36,547.44c-54.24,155.07-224,236.82-379.09,182.49s-236.74-224-182.41-379.09S394.88,114.11,550,168.35,786.69,392.36,732.36,547.44Zm2,.68C789,392,706.74,221,550.64,166.37S223.55,194,168.88,350.16s27.6,327.08,183.7,381.75S679.66,704.32,734.34,548.12Z" transform="translate(54.96 0)"/><path class="cls-105" d="M733.73,548C679.15,703.71,508.6,785.81,352.84,731.22S115,506.18,169.48,350.41s225.14-237.94,380.9-183.35S788.23,392.1,733.73,548Zm1.9.6C790.56,391.76,708,220,551.07,165.08S222.52,192.85,167.59,349.73,195.27,678.27,352.15,733.2,680.7,705.43,735.63,548.55Z" transform="translate(54.96 0)"/><path class="cls-106" d="M735,548.38c-54.84,156.54-226.16,239-382.61,184.13S113.44,506.43,168.2,349.9s226.16-239,382.61-184.13S789.78,391.85,735,548.38Zm2,.69C792.1,391.42,709.15,219,551.5,163.79S221.41,191.64,166.22,349.21s27.85,330.09,185.5,385.28S681.81,706.64,737,549.07Z" transform="translate(54.96 0)"/><path class="cls-106" d="M736.31,548.81C681.3,706,509.2,788.9,351.89,733.8s-240-227.11-185-384.33,227.1-240.09,384.41-185S791.33,391.59,736.31,548.81Zm2,.69c55.45-158.34-28-331.55-186.28-387S220.37,190.44,164.93,348.78s28,331.55,186.28,387S682.85,707.84,738.29,549.5Z" transform="translate(54.96 0)"/><path class="cls-107" d="M737.6,549.24c-55.27,158-228.14,241.21-386.14,185.94S110.26,507,165.62,349,393.76,107.83,551.75,163.1,793,391.33,737.6,549.24Zm2,.69c55.7-159-28.11-333.1-187.14-388.72s-333.1,28-388.8,187.14,28.11,333.1,187.14,388.72S683.88,709,739.58,549.93Z" transform="translate(54.96 0)"/><path class="cls-107" d="M738.89,549.76C683.36,708.44,509.72,792,351,736.47s-242.32-229.26-186.7-388S393.5,106.28,552.18,161.81,794.51,391.07,738.89,549.76Zm2,.69c56-159.81-28.2-334.65-188-390.61s-334.56,28.28-390.52,188,28.19,334.65,188,390.61S684.91,710.16,740.87,550.45Z" transform="translate(54.96 0)"/><path class="cls-107" d="M740.27,550.19C684.39,709.56,510,793.55,350.52,737.76S107.16,507.46,163,348.09,393.24,104.74,552.7,160.53,796.06,390.82,740.27,550.19Zm1.89.69c56.22-160.49-28.37-336.11-188.77-392.33S217.19,186.91,161.06,347.4s28.37,336.11,188.77,392.33S686,711.37,742.16,550.88Z" transform="translate(54.96 0)"/><path class="cls-108" d="M741.56,550.62c-56,160.14-231.33,244.47-391.47,188.43S105.61,507.72,161.66,347.66,393,103.19,553.13,159.24,797.6,390.56,741.56,550.62Zm2,.69c56.4-161.18-28.54-337.58-189.71-394S216.16,185.71,159.68,347,188.22,684.55,349.4,741,687.06,712.57,743.53,551.31Z" transform="translate(54.96 0)"/><path class="cls-109" d="M742.85,551.13C686.54,712,510.49,796.73,349.66,740.33S104.07,508,160.37,347.15,392.73,101.56,553.56,158,799.15,390.3,742.85,551.13Zm2,.69c56.65-162-28.62-339.2-190.57-395.85S215.13,184.59,158.39,346.46,187,685.66,349,742.31,688.09,713.69,744.82,551.82Z" transform="translate(54.96 0)"/><path class="cls-109" d="M744.14,551.56c-56.57,161.61-233.39,246.71-395,190.15s-246.62-233.47-190.06-395S392.47,100,554.08,156.57,800.7,390,744.14,551.56Zm2,.69C803,389.61,717.4,211.59,554.76,154.68S214.1,183.39,157.1,346,185.82,686.69,348.46,743.6,689.12,714.89,746.11,552.25Z" transform="translate(54.96 0)"/><path class="cls-110" d="M745.42,552C688.61,714.29,511,799.82,348.71,743S101,508.58,157.79,346.29s234.42-247.83,396.72-191S802.25,389.78,745.42,552Zm2,.69c57.25-163.33-28.88-342.13-192.21-399.38S213,182.19,155.82,345.6,184.7,687.73,348,745,690.24,716.09,747.4,552.68Z" transform="translate(54.96 0)"/><path class="cls-111" d="M746.71,552.51c-57,163-235.44,248.86-398.43,191.78S99.43,508.84,156.42,345.77,392,96.91,554.93,154,803.79,389.44,746.71,552.51Zm2,.69c57.51-164.1-29-343.68-193.07-401.18S212,181.07,154.53,345.08s29,343.68,193.07,401.19S691.27,717.3,748.69,553.2Z" transform="translate(54.96 0)"/><path class="cls-111" d="M748.09,552.94c-57.33,163.76-236.56,250-400.32,192.64S97.79,509.1,155.13,345.34s236.56-250,400.23-192.64S805.43,389.18,748.09,552.94Zm1.89.69c57.77-164.79-29.05-345.23-193.93-402.91S210.92,179.87,153.24,344.65s29,345.22,193.93,402.9S692.3,718.41,750,553.63Z" transform="translate(54.96 0)"/><path class="cls-112" d="M749.38,553.37c-57.59,164.44-237.6,251.09-402,193.5s-251.09-237.51-193.5-402,237.6-251.09,402-193.5S807,388.92,749.38,553.37Zm2,.69C809.29,388.58,722,207.37,556.57,149.44S209.88,178.66,151.86,344.22s29.32,346.69,194.79,404.63S693.33,719.62,751.36,554.06Z" transform="translate(54.96 0)"/><path class="cls-113" d="M750.67,553.88C692.82,719,512,806,346.91,748.24S94.7,509.61,152.55,344.4,391.18,92.27,556.31,150,808.52,388.67,750.67,553.88Zm2,.69C810.84,388.32,723.25,206.34,557,148.15S208.77,177.46,150.57,343.71,180,691.94,346.22,750.13,694.45,720.82,752.65,554.57Z" transform="translate(54.96 0)"/><path class="cls-113" d="M752,554.31c-58,165.91-239.66,253.25-405.48,195.22S93.15,509.87,151.26,344,390.92,90.72,556.74,148.75,810.07,388.41,752,554.31Zm2,.69c58.45-166.94-29.49-349.69-196.51-408.23S207.74,176.34,149.28,343.28,178.77,693,345.79,751.51,695.48,721.94,753.94,555Z" transform="translate(54.96 0)"/><path class="cls-114" d="M753.25,554.74C695,721.42,512.56,809.19,346,750.82S91.6,510.13,150,343.54,390.66,89.09,557.26,147.46,811.62,388.15,753.25,554.74Zm2,.69c58.71-167.71-29.58-351.24-197.29-409.95S206.71,175.14,148,342.85,177.56,694.09,345.28,752.8,696.51,723.14,755.23,555.43Z" transform="translate(54.96 0)"/><path class="cls-115" d="M754.62,555.26C696,722.54,512.9,810.74,345.53,752.11S90.06,510.39,148.59,343,390.32,87.54,557.69,146.17,813.16,387.89,754.62,555.26Zm1.89.69c59-168.49-29.74-352.79-198.14-411.76S205.67,173.93,146.7,342.33s29.75,352.79,198.15,411.76S697.55,724.35,756.51,556Z" transform="translate(54.96 0)"/><path class="cls-115" d="M755.91,555.69C697,723.74,513.16,812.28,345.1,753.4S88.51,510.64,147.31,342.59,390.06,86,558.11,144.88,814.71,387.63,755.91,555.69Zm2,.69C817.12,387.21,728,202.13,558.8,142.9s-354.24,29.92-413.47,199,29.91,354.25,199.09,413.48S698.66,725.55,757.89,556.38Z" transform="translate(54.96 0)"/><path class="cls-116" d="M757.2,556.12C698.15,725,513.41,813.83,344.59,754.77S87,510.91,146,342.16,389.8,84.45,558.63,143.5,816.26,387.38,757.2,556.12Zm2,.69c59.48-169.86-30-355.71-199.86-415.2S203.53,171.61,144,341.47s30,355.71,199.86,415.2S699.69,726.67,759.18,556.81Z" transform="translate(54.96 0)"/><path class="cls-117" d="M758.49,556.64C699.18,726.07,513.67,815.38,344.16,756.07S85.33,511.16,144.73,341.65,389.54,82.9,559.06,142.21,817.89,387.12,758.49,556.64Zm2,.68c59.74-170.63-30.17-357.34-200.72-417S202.49,170.41,142.75,341,172.92,698.3,343.47,758,700.73,727.87,760.47,557.32Z" transform="translate(54.96 0)"/><path class="cls-117" d="M759.78,557.06c-59.57,170.21-245.85,259.87-416,200.29s-260-245.93-200.29-416.13S389.29,81.36,559.49,140.92,819.44,386.86,759.78,557.06Zm2,.69C821.76,386.43,731.5,199,560.18,139S201.46,169.21,141.46,340.53,171.72,699.33,343,759.33,701.76,729.07,761.76,557.75Z" transform="translate(54.96 0)"/><path class="cls-118" d="M761.16,557.49c-59.92,171-247,261-417.95,201.16s-261-247-201.15-417.86,247-261,418-201.15S821,386.6,761.16,557.49Zm1.89.69c60.26-172-30.35-360.26-202.36-420.52S200.34,168.09,140.17,340.1s30.35,360.26,202.35,420.52S702.87,730.19,763.05,558.18Z" transform="translate(54.96 0)"/><path class="cls-119" d="M762.45,558c-60.09,171.58-248,262.1-419.67,201.92s-262.09-248-202-419.57,248-262.1,419.67-202S822.53,386.34,762.45,558Zm2,.69c60.43-172.78-30.51-361.81-203.3-422.33S199.31,166.89,138.8,339.67s30.51,361.81,203.29,422.24S703.91,731.39,764.42,558.7Z" transform="translate(54.96 0)"/><path class="cls-120" d="M763.73,558.44c-60.34,172.35-249,263.21-421.38,202.87s-263.21-249-202.87-421.47,249-263.21,421.39-202.78S824.08,386.09,763.73,558.44Zm2,.69c60.69-173.47-30.69-363.36-204.16-424s-363.27,30.6-424,204.07S168.2,702.51,341.67,763.2,704.94,732.6,765.71,559.13Z" transform="translate(54.96 0)"/><path class="cls-120" d="M765,558.87C704.42,732,515,823.2,341.84,762.6S77.59,512.54,138.19,339.41,388.25,75.08,561.38,135.68,825.63,385.74,765,558.87Zm2,.69c61-174.16-30.77-364.82-204.93-425.77S197.16,164.56,136.22,338.72,167,703.54,341.15,764.58,706,733.72,767,559.56Z" transform="translate(54.96 0)"/><path class="cls-121" d="M766.31,559.3c-60.86,173.9-251.09,265.45-424.9,204.59S76,512.79,136.9,339,388,73.53,561.81,134.39,827.17,385.49,766.31,559.3Zm2,.69c61.29-174.85-30.86-366.28-205.79-427.57S196.13,163.36,134.93,338.29s30.86,366.29,205.79,427.58S707.09,734.92,768.29,560Z" transform="translate(54.96 0)"/><path class="cls-122" d="M767.69,559.82C706.57,734.32,515.48,826.3,341,765.18S74.41,513.05,135.53,338.47,387.74,72,562.24,133.1,828.81,385.23,767.69,559.82Zm1.89.68c61.55-175.62-31-367.83-206.65-429.37s-367.83,31-429.29,206.65,31,367.91,206.65,429.37S708.12,736.12,769.58,560.5Z" transform="translate(54.96 0)"/><path class="cls-123" d="M769,560.25C707.6,735.52,515.74,827.84,340.46,766.47S72.86,513.31,134.24,338,387.48,70.44,562.76,131.81,830.36,385,769,560.25Zm2,.68c61.72-176.3-31.21-369.37-207.51-431.09S194.07,161,132.26,337.35s31.21,369.37,207.51,431.09S709.15,737.33,771,560.93Z" transform="translate(54.96 0)"/><path class="cls-123" d="M770.27,560.68C708.63,736.73,516,829.39,340,767.76S71.32,513.57,133,337.61,387.22,68.89,563.19,130.52,831.9,384.71,770.27,560.68Zm2,.68c62-177-31.29-370.83-208.38-432.81S193,159.84,131,336.92s31.29,370.84,208.37,432.81S710.27,738.44,772.25,561.36Z" transform="translate(54.96 0)"/><path class="cls-124" d="M771.56,561.19c-61.9,176.65-255.31,269.75-432,207.94s-269.83-255.3-207.94-432S387,67.34,563.62,129.15,833.45,384.45,771.56,561.19Zm2,.69C835.77,384,742.07,189.49,564.3,127.26S191.92,158.63,129.68,336.4,161.06,708.79,338.91,771,711.3,739.65,773.53,561.88Z" transform="translate(54.96 0)"/><path class="cls-124" d="M772.85,561.62c-62.07,177.43-256.25,271-433.76,208.8S68.22,514.09,130.37,336.66s256.25-271,433.76-208.8S835,384.2,772.85,561.62Zm2,.69c62.49-178.54-31.55-373.93-210-436.43S190.89,157.43,128.39,336s31.55,373.93,210,436.43S712.33,740.85,774.83,562.31Z" transform="translate(54.96 0)"/><path class="cls-124" d="M774.22,562.05c-62.41,178.2-257.37,272.07-435.56,209.66S66.67,514.34,129,336.23,386.36,64.16,564.56,126.57,836.54,383.94,774.22,562.05Zm1.89.69c62.76-179.23-31.63-375.39-210.86-438.15s-375.39,31.72-438.14,211S158.74,710.94,338,773.69,713.36,742,776.11,562.74Z" transform="translate(54.96 0)"/><path class="cls-125" d="M775.51,562.57C712.85,741.45,517.11,835.67,338.23,773S65.13,514.6,127.71,335.71,386.11,62.62,565,125.28,838.09,383.68,775.51,562.57Zm2,.68c62.92-180-31.81-376.94-211.81-439.95S188.74,155.11,125.73,335,157.54,712,337.54,775,714.48,743.17,777.49,563.25Z" transform="translate(54.96 0)"/><path class="cls-125" d="M776.8,563C713.88,742.57,517.37,837.21,337.71,774.29s-274.13-259.43-211.29-439S385.85,61.07,565.51,124,839.64,383.42,776.8,563Zm2,.68C842.05,383,746.8,185.28,566.11,122s-378.4,31.9-441.67,212.59S156.42,713,337,776.27,715.51,744.37,778.78,563.68Z" transform="translate(54.96 0)"/><path class="cls-125" d="M778.09,563.43C715,743.77,517.63,838.76,337.28,775.67S62,515.12,125.13,334.85,385.59,59.52,565.94,122.62,841.27,383.17,778.09,563.43Zm2,.68C843.59,382.74,748,184.17,566.63,120.72s-379.95,32-443.48,213.45,32.06,380,213.44,443.38S716.54,745.58,780.07,564.11Z" transform="translate(54.96 0)"/><path class="cls-126" d="M779.38,563.94C716,745,517.89,840.31,336.85,777S60.4,515.37,123.84,334.34,385.33,58,566.37,121.33,842.82,382.91,779.38,563.94Zm2,.69c63.78-182.15-32.15-381.5-214.3-445.28s-381.42,32.23-445.2,214.3S154,715.15,336.16,778.93,717.57,746.7,781.36,564.63Z" transform="translate(54.96 0)"/><path class="cls-126" d="M780.67,564.37C717.06,746.09,518.14,841.86,336.42,778.24s-277.57-262.61-214-444.33S385.07,56.43,566.8,120,844.37,382.65,780.67,564.37Zm2,.69c64-182.84-32.32-383-215.16-447s-383,32.32-446.92,215.16,32.32,383,215.16,447S718.69,747.9,782.65,565.06Z" transform="translate(54.96 0)"/><path class="cls-126" d="M782,564.8C718.09,747.3,518.4,843.4,335.91,779.53S57.3,516,121.17,333.48,384.82,54.88,567.31,118.75,845.91,382.39,782,564.8Zm1.89.69C848.23,382,751.53,181.07,568,116.77s-384.5,32.41-448.72,216,32.41,384.42,215.94,448.72S719.72,749.1,783.93,565.49Z" transform="translate(54.96 0)"/><path class="cls-4" d="M783.33,565.32C719.21,748.5,518.66,845,335.48,780.82S55.76,516.23,119.88,333,384.56,53.25,567.74,117.46,847.46,382.05,783.33,565.32Zm2,.69C849.78,381.7,752.73,180,568.43,115.48s-386,32.58-450.52,216.8S150.49,718.33,334.79,782.8,720.75,750.22,785.31,566Z" transform="translate(54.96 0)"/><path class="cls-4" d="M784.62,565.75C720.24,749.71,518.92,846.58,335,782.2S54.21,516.49,118.6,332.53,384.3,51.7,568.17,116.08,849,381.79,784.62,565.75Zm1.29.43c64.65-184.65-32.58-386.74-217.22-451.39S182,147.46,117.31,332.1s32.57,386.74,217.22,451.39S721.27,750.82,785.91,566.18Z" transform="translate(54.96 0)"/></g></svg>