<?xml version="1.0" encoding="utf-8"?>
<!-- Generator: Adobe Illustrator 23.0.1, SVG Export Plug-In . SVG Version: 6.00 Build 0)  -->
<svg version="1.1" id="Layer_1" xmlns="http://www.w3.org/2000/svg" xmlns:xlink="http://www.w3.org/1999/xlink" x="0px" y="0px"
	 viewBox="0 0 926 923" style="enable-background:new 0 0 926 923;" xml:space="preserve">
<style type="text/css">
	.st0{fill:none;stroke:#023D55;stroke-width:15.93;stroke-miterlimit:10;}
	.st1{clip-path:url(#SVGID_2_);}
	.st2{fill-rule:evenodd;clip-rule:evenodd;fill:#002D44;}
	.st3{fill-rule:evenodd;clip-rule:evenodd;fill:#086E8A;}
	.st4{fill-rule:evenodd;clip-rule:evenodd;fill:#086D89;}
	.st5{fill-rule:evenodd;clip-rule:evenodd;fill:#086D88;}
	.st6{fill-rule:evenodd;clip-rule:evenodd;fill:#086C88;}
	.st7{fill-rule:evenodd;clip-rule:evenodd;fill:#086C87;}
	.st8{fill-rule:evenodd;clip-rule:evenodd;fill:#086B87;}
	.st9{fill-rule:evenodd;clip-rule:evenodd;fill:#086B86;}
	.st10{fill-rule:evenodd;clip-rule:evenodd;fill:#086A86;}
	.st11{fill-rule:evenodd;clip-rule:evenodd;fill:#076A85;}
	.st12{fill-rule:evenodd;clip-rule:evenodd;fill:#076985;}
	.st13{fill-rule:evenodd;clip-rule:evenodd;fill:#076984;}
	.st14{fill-rule:evenodd;clip-rule:evenodd;fill:#076884;}
	.st15{fill-rule:evenodd;clip-rule:evenodd;fill:#076883;}
	.st16{fill-rule:evenodd;clip-rule:evenodd;fill:#076783;}
	.st17{fill-rule:evenodd;clip-rule:evenodd;fill:#076782;}
	.st18{fill-rule:evenodd;clip-rule:evenodd;fill:#076682;}
	.st19{fill-rule:evenodd;clip-rule:evenodd;fill:#076681;}
	.st20{fill-rule:evenodd;clip-rule:evenodd;fill:#076581;}
	.st21{fill-rule:evenodd;clip-rule:evenodd;fill:#076580;}
	.st22{fill-rule:evenodd;clip-rule:evenodd;fill:#076480;}
	.st23{fill-rule:evenodd;clip-rule:evenodd;fill:#07647F;}
	.st24{fill-rule:evenodd;clip-rule:evenodd;fill:#07637F;}
	.st25{fill-rule:evenodd;clip-rule:evenodd;fill:#07637E;}
	.st26{fill-rule:evenodd;clip-rule:evenodd;fill:#07627D;}
	.st27{fill-rule:evenodd;clip-rule:evenodd;fill:#06627D;}
	.st28{fill-rule:evenodd;clip-rule:evenodd;fill:#06617D;}
	.st29{fill-rule:evenodd;clip-rule:evenodd;fill:#06617C;}
	.st30{fill-rule:evenodd;clip-rule:evenodd;fill:#06607B;}
	.st31{fill-rule:evenodd;clip-rule:evenodd;fill:#06607A;}
	.st32{fill-rule:evenodd;clip-rule:evenodd;fill:#065F7A;}
	.st33{fill-rule:evenodd;clip-rule:evenodd;fill:#065E79;}
	.st34{fill-rule:evenodd;clip-rule:evenodd;fill:#065E78;}
	.st35{fill-rule:evenodd;clip-rule:evenodd;fill:#065D78;}
	.st36{fill-rule:evenodd;clip-rule:evenodd;fill:#065D77;}
	.st37{fill-rule:evenodd;clip-rule:evenodd;fill:#065C77;}
	.st38{fill-rule:evenodd;clip-rule:evenodd;fill:#065C76;}
	.st39{fill-rule:evenodd;clip-rule:evenodd;fill:#065B76;}
	.st40{fill-rule:evenodd;clip-rule:evenodd;fill:#065B75;}
	.st41{fill-rule:evenodd;clip-rule:evenodd;fill:#065A75;}
	.st42{fill-rule:evenodd;clip-rule:evenodd;fill:#065A74;}
	.st43{fill-rule:evenodd;clip-rule:evenodd;fill:#055A74;}
	.st44{fill-rule:evenodd;clip-rule:evenodd;fill:#055974;}
	.st45{fill-rule:evenodd;clip-rule:evenodd;fill:#055973;}
	.st46{fill-rule:evenodd;clip-rule:evenodd;fill:#055873;}
	.st47{fill-rule:evenodd;clip-rule:evenodd;fill:#055872;}
	.st48{fill-rule:evenodd;clip-rule:evenodd;fill:#055772;}
	.st49{fill-rule:evenodd;clip-rule:evenodd;fill:#055771;}
	.st50{fill-rule:evenodd;clip-rule:evenodd;fill:#055671;}
	.st51{fill-rule:evenodd;clip-rule:evenodd;fill:#055670;}
	.st52{fill-rule:evenodd;clip-rule:evenodd;fill:#05556F;}
	.st53{fill-rule:evenodd;clip-rule:evenodd;fill:#05546E;}
	.st54{fill-rule:evenodd;clip-rule:evenodd;fill:#05536D;}
	.st55{fill-rule:evenodd;clip-rule:evenodd;fill:#05536C;}
	.st56{fill-rule:evenodd;clip-rule:evenodd;fill:#05526C;}
	.st57{fill-rule:evenodd;clip-rule:evenodd;fill:#04526B;}
	.st58{fill-rule:evenodd;clip-rule:evenodd;fill:#04516B;}
	.st59{fill-rule:evenodd;clip-rule:evenodd;fill:#04516A;}
	.st60{fill-rule:evenodd;clip-rule:evenodd;fill:#04506A;}
	.st61{fill-rule:evenodd;clip-rule:evenodd;fill:#045069;}
	.st62{fill-rule:evenodd;clip-rule:evenodd;fill:#044F69;}
	.st63{fill-rule:evenodd;clip-rule:evenodd;fill:#044F68;}
	.st64{fill-rule:evenodd;clip-rule:evenodd;fill:#044E68;}
	.st65{fill-rule:evenodd;clip-rule:evenodd;fill:#044E67;}
	.st66{fill-rule:evenodd;clip-rule:evenodd;fill:#044D67;}
	.st67{fill-rule:evenodd;clip-rule:evenodd;fill:#044D66;}
	.st68{fill-rule:evenodd;clip-rule:evenodd;fill:#044C66;}
	.st69{fill-rule:evenodd;clip-rule:evenodd;fill:#044C65;}
	.st70{fill-rule:evenodd;clip-rule:evenodd;fill:#044B65;}
	.st71{fill-rule:evenodd;clip-rule:evenodd;fill:#044B64;}
	.st72{fill-rule:evenodd;clip-rule:evenodd;fill:#044A64;}
	.st73{fill-rule:evenodd;clip-rule:evenodd;fill:#044A63;}
	.st74{fill-rule:evenodd;clip-rule:evenodd;fill:#034963;}
	.st75{fill-rule:evenodd;clip-rule:evenodd;fill:#034962;}
	.st76{fill-rule:evenodd;clip-rule:evenodd;fill:#034862;}
	.st77{fill-rule:evenodd;clip-rule:evenodd;fill:#034861;}
	.st78{fill-rule:evenodd;clip-rule:evenodd;fill:#034760;}
	.st79{fill-rule:evenodd;clip-rule:evenodd;fill:#03465F;}
	.st80{fill-rule:evenodd;clip-rule:evenodd;fill:#03465E;}
	.st81{fill-rule:evenodd;clip-rule:evenodd;fill:#03455E;}
	.st82{fill-rule:evenodd;clip-rule:evenodd;fill:#03455D;}
	.st83{fill-rule:evenodd;clip-rule:evenodd;fill:#03445D;}
	.st84{fill-rule:evenodd;clip-rule:evenodd;fill:#03445C;}
	.st85{fill-rule:evenodd;clip-rule:evenodd;fill:#03435C;}
	.st86{fill-rule:evenodd;clip-rule:evenodd;fill:#03435B;}
	.st87{fill-rule:evenodd;clip-rule:evenodd;fill:#03425B;}
	.st88{fill-rule:evenodd;clip-rule:evenodd;fill:#03425A;}
	.st89{fill-rule:evenodd;clip-rule:evenodd;fill:#03415A;}
	.st90{fill-rule:evenodd;clip-rule:evenodd;fill:#02415A;}
	.st91{fill-rule:evenodd;clip-rule:evenodd;fill:#024159;}
	.st92{fill-rule:evenodd;clip-rule:evenodd;fill:#024059;}
	.st93{fill-rule:evenodd;clip-rule:evenodd;fill:#024058;}
	.st94{fill-rule:evenodd;clip-rule:evenodd;fill:#023F58;}
	.st95{fill-rule:evenodd;clip-rule:evenodd;fill:#023F57;}
	.st96{fill-rule:evenodd;clip-rule:evenodd;fill:#023E57;}
	.st97{fill-rule:evenodd;clip-rule:evenodd;fill:#023E56;}
	.st98{fill-rule:evenodd;clip-rule:evenodd;fill:#023D56;}
	.st99{fill-rule:evenodd;clip-rule:evenodd;fill:#023D55;}
	.st100{fill-rule:evenodd;clip-rule:evenodd;fill:#023C54;}
	.st101{fill-rule:evenodd;clip-rule:evenodd;fill:#023B53;}
	.st102{fill-rule:evenodd;clip-rule:evenodd;fill:#023A52;}
	.st103{fill-rule:evenodd;clip-rule:evenodd;fill:#023951;}
	.st104{fill-rule:evenodd;clip-rule:evenodd;fill:#013951;}
	.st105{fill-rule:evenodd;clip-rule:evenodd;fill:#013850;}
	.st106{fill-rule:evenodd;clip-rule:evenodd;fill:#01384F;}
	.st107{fill-rule:evenodd;clip-rule:evenodd;fill:#01374F;}
	.st108{fill-rule:evenodd;clip-rule:evenodd;fill:#01374E;}
	.st109{fill-rule:evenodd;clip-rule:evenodd;fill:#01364E;}
	.st110{fill-rule:evenodd;clip-rule:evenodd;fill:#01364D;}
	.st111{fill-rule:evenodd;clip-rule:evenodd;fill:#01354D;}
	.st112{fill-rule:evenodd;clip-rule:evenodd;fill:#01354C;}
	.st113{fill-rule:evenodd;clip-rule:evenodd;fill:#01344C;}
	.st114{fill-rule:evenodd;clip-rule:evenodd;fill:#01344B;}
	.st115{fill-rule:evenodd;clip-rule:evenodd;fill:#01334B;}
	.st116{fill-rule:evenodd;clip-rule:evenodd;fill:#01334A;}
	.st117{fill-rule:evenodd;clip-rule:evenodd;fill:#01324A;}
	.st118{fill-rule:evenodd;clip-rule:evenodd;fill:#013249;}
	.st119{fill-rule:evenodd;clip-rule:evenodd;fill:#013149;}
	.st120{fill-rule:evenodd;clip-rule:evenodd;fill:#013148;}
	.st121{fill-rule:evenodd;clip-rule:evenodd;fill:#003148;}
	.st122{fill-rule:evenodd;clip-rule:evenodd;fill:#003047;}
	.st123{fill-rule:evenodd;clip-rule:evenodd;fill:#002F46;}
	.st124{fill-rule:evenodd;clip-rule:evenodd;fill:#002E45;}
</style>
<title>logo-new</title>
<path class="st0" d="M32.9,17H897c5.5,0,10,4.5,10,10V891c0,5.5-4.5,10-10,10H32.9c-5.5,0-10-4.5-10-10V27
	C22.9,21.4,27.4,17,32.9,17z"/>
<g>
	<defs>
		<path id="SVGID_1_" d="M455.5,169.3c5.2-1.7,9.5,1.4,9.5,6.9v565.7c0,5.5-4.3,8.6-9.5,6.8l-378.4-127c-5.2-1.8-5.3-1.5-0.2,0.6
			l378.8,155.9c5.1,2.1,13.4,2.1,18.5,0l378.8-153.9c5.1-2.1,9.3-8.3,9.3-13.8V309.5c0-5.5-4.2-11.7-9.2-13.8L474.3,139.8
			c-5.1-2.1-13.4-2.1-18.5,0L77,293.8c-5.1,2.1-5,2.4,0.2,0.6L455.5,169.3z M405.9,684.2c0,5.5-4.2,8.3-9.3,6.2L136.1,584.5
			c-5.1-2.1-9.3-8.3-9.3-13.8V347.3c0-5.5,4.2-11.7,9.3-13.8l49.8-20.3V541l50.8,20.6v-269l59.2-24.1v317.1l41.5,16.9
			c5.1,2.1,9.3-0.7,9.3-6.2V257.9c0-5.5,4.2-11.7,9.3-13.8l40.6-16.5c5.1-2.1,9.3,0.7,9.3,6.2L405.9,684.2z M793.2,429.5
			c5.5,0,10,4.5,10,10v131.3c0,5.5-4.2,11.7-9.3,13.8L533.4,690.4c-5.1,2.1-9.3-0.7-9.3-6.2V557.9c0-5.5,4.5-10,10-10h39.1
			c5.5,0,10,4.5,10,10v38.4c0,5.5,4.2,8.3,9.3,6.2l142.2-57.8c5.1-2.1,9.3-8.3,9.3-13.8v-32.3c0-5.5-4.5-10-10-10H534.2
			c-5.5,0-10-4.5-10-10V233.9c0-5.5,4.2-8.3,9.3-6.2L794,333.5c5.1,2.1,9.3,8.3,9.3,13.8v13.3c0,5.5-4.5,10-10,10h-55.2
			c-6.6-0.2-13.1-1.5-19.3-3.8l-126.2-51.3c-5.1-2.1-9.3,0.7-9.3,6.2v97.7c0,5.5,4.5,10,10,10L793.2,429.5z"/>
	</defs>
	<clipPath id="SVGID_2_">
		<use xlink:href="#SVGID_1_"  style="overflow:visible;"/>
	</clipPath>
	<g class="st1">
		<path class="st2" d="M161.5,29.8l799.1,279.8c5.2,1.8,8,7.5,6.1,12.7L771.9,878.9c-1.8,5.2-7.5,7.9-12.8,6.1L-40,605.2"/>
		<path class="st3" d="M468.5,458.9c0.4-1.1-0.2-2.3-1.3-2.6c0,0,0,0,0,0c-1-0.4-2.2,0.1-2.6,1.1c0,0.1,0,0.1-0.1,0.2
			c-0.4,1,0.2,2.2,1.2,2.5c0,0,0,0,0.1,0C466.9,460.5,468.1,459.9,468.5,458.9z"/>
		<path class="st3" d="M467.9,458.6c-0.3,0.7-1.1,1.1-1.8,0.8c-0.7-0.3-1.1-1.1-0.8-1.8c0.3-0.7,1-1,1.7-0.8
			C467.7,457,468.1,457.8,467.9,458.6C467.9,458.6,467.9,458.6,467.9,458.6z M469.9,459.3c0.6-1.8-0.4-3.8-2.1-4.4
			c-1.7-0.7-3.7,0.2-4.3,1.9c0,0,0,0.1-0.1,0.2c-0.6,1.8,0.4,3.8,2.1,4.5C467.3,462.1,469.2,461.1,469.9,459.3L469.9,459.3z"/>
		<path class="st3" d="M469.1,459c-0.5,1.4-2,2.2-3.4,1.8c0,0-0.1,0-0.1,0c-1.4-0.5-2.1-2.1-1.6-3.5c0.5-1.4,2-2.2,3.4-1.8
			c0,0,0.1,0,0.1,0C468.9,456,469.7,457.6,469.1,459z M471.1,459.7c0.9-2.5-0.5-5.3-3-6.1c-2.5-0.9-5.3,0.5-6.1,3
			c-0.8,2.5,0.5,5.2,3,6.1C467.5,463.6,470.2,462.3,471.1,459.7C471.1,459.7,471.1,459.7,471.1,459.7L471.1,459.7z"/>
		<path class="st4" d="M470.5,459.5c-0.7,2.2-3.1,3.3-5.2,2.6c0,0-0.1,0-0.1,0c-2.1-0.8-3.3-3.1-2.6-5.2c0.7-2.2,3.1-3.3,5.2-2.6
			c0,0,0.1,0,0.1,0C470.1,455,471.2,457.3,470.5,459.5z M472.4,460.2c1.2-3.2-0.5-6.7-3.7-7.9c0,0-0.1,0-0.1,0
			c-3.2-1.1-6.8,0.6-7.9,3.8c0,0,0,0,0,0c-1.2,3.2,0.5,6.7,3.7,7.9c0,0,0.1,0,0.1,0C467.8,465.1,471.3,463.4,472.4,460.2
			C472.4,460.2,472.4,460.2,472.4,460.2z"/>
		<path class="st4" d="M471.8,460c-1,2.9-4.2,4.4-7,3.4c-2.9-0.9-4.4-4-3.5-6.9c0,0,0-0.1,0-0.1c1-2.9,4.2-4.3,7-3.4
			C471.3,454,472.8,457.1,471.8,460C471.8,460,471.8,460,471.8,460z M473.8,460.7c1.4-4-0.6-8.4-4.6-9.8c-4-1.4-8.4,0.6-9.8,4.6
			s0.6,8.4,4.6,9.8c0,0,0.1,0,0.1,0C468.1,466.7,472.4,464.6,473.8,460.7L473.8,460.7z"/>
		<path class="st4" d="M473.1,460.4c-1.3,3.6-5.2,5.5-8.8,4.2c0,0,0,0,0,0c-3.6-1.2-5.5-5.1-4.3-8.6c0-0.1,0-0.1,0.1-0.1
			c1.3-3.6,5.2-5.5,8.8-4.2c0,0,0,0,0,0c3.6,1.2,5.5,5.1,4.3,8.6C473.1,460.3,473.1,460.4,473.1,460.4z M475.1,461.1
			c1.6-4.7-0.8-9.8-5.5-11.5c-4.7-1.6-9.8,0.8-11.5,5.5c-1.6,4.7,0.8,9.8,5.5,11.5C468.3,468.3,473.4,465.8,475.1,461.1
			C475.1,461.1,475.1,461.1,475.1,461.1L475.1,461.1z"/>
		<path class="st4" d="M474.4,460.9c-1.5,4.3-6.3,6.6-10.6,5.1c-4.3-1.5-6.6-6.3-5.1-10.6c1.5-4.3,6.2-6.6,10.5-5.1
			C473.6,451.8,475.9,456.5,474.4,460.9z M476.4,461.5c1.9-5.4-1-11.3-6.4-13.2c-5.4-1.9-11.3,1-13.2,6.4c-1.9,5.4,1,11.3,6.3,13.2
			c5.4,1.9,11.3-0.9,13.2-6.2C476.3,461.6,476.4,461.6,476.4,461.5L476.4,461.5z"/>
		<path class="st5" d="M475.7,461.4c-1.8,5-7.3,7.7-12.3,5.9s-7.7-7.3-5.9-12.3c1.8-5,7.3-7.6,12.3-5.9
			C474.8,450.8,477.4,456.3,475.7,461.4z M477.7,462c2.1-6.1-1.1-12.8-7.2-15c-6.1-2.1-12.8,1.1-15,7.2c-2.1,6.1,1.1,12.8,7.2,15
			C468.8,471.4,475.5,468.2,477.7,462C477.7,462.1,477.7,462.1,477.7,462L477.7,462z"/>
		<path class="st6" d="M477.1,461.8c-2,5.8-8.3,8.9-14.1,6.9c-5.8-2-8.9-8.3-6.9-14.1c2-5.8,8.3-8.9,14.1-6.9c0,0,0.1,0,0.1,0
			C476,449.7,479,456,477.1,461.8z M479,462.5c2.4-6.8-1.3-14.3-8.1-16.7c-6.8-2.4-14.3,1.3-16.7,8.1c-2.4,6.8,1.2,14.3,8,16.7
			C469,473,476.5,469.4,479,462.5C479,462.5,479,462.5,479,462.5L479,462.5z"/>
		<path class="st6" d="M478.4,462.2c-2.2,6.5-9.3,10-15.8,7.7c-6.5-2.2-10-9.3-7.7-15.8s9.3-10,15.8-7.7c0,0,0.1,0,0.1,0
			C477.2,448.7,480.6,455.7,478.4,462.2z M480.4,462.9c2.6-7.6-1.4-15.9-9-18.5c-7.6-2.6-15.9,1.4-18.5,9
			c-2.6,7.6,1.3,15.9,8.9,18.5C469.4,474.5,477.7,470.5,480.4,462.9L480.4,462.9z"/>
		<path class="st6" d="M479.6,462.7c-2.5,7.2-10.4,11.1-17.6,8.6s-11.1-10.4-8.6-17.6c2.5-7.2,10.4-11.1,17.6-8.6c0,0,0,0,0,0
			c7.2,2.4,11,10.2,8.6,17.4C479.7,462.6,479.7,462.7,479.6,462.7z M481.6,463.4c2.9-8.3-1.4-17.4-9.7-20.4s-17.4,1.4-20.4,9.7
			s1.4,17.4,9.7,20.4c0,0,0.1,0,0.1,0C469.6,476,478.6,471.7,481.6,463.4L481.6,463.4z"/>
		<path class="st7" d="M481,463.2c-2.8,7.9-11.5,12.1-19.4,9.3c-7.9-2.8-12.1-11.5-9.3-19.4c2.8-7.9,11.5-12,19.4-9.3
			C479.6,446.6,483.7,455.2,481,463.2z M483,463.9c3.2-9-1.5-18.9-10.5-22.1c-9-3.2-18.9,1.5-22.1,10.5c-3.2,9,1.5,18.9,10.5,22.1
			c0,0,0.1,0,0.1,0C469.9,477.6,479.8,472.8,483,463.9L483,463.9z"/>
		<path class="st8" d="M482.2,463.6c-3,8.6-12.5,13.2-21.1,10.1c-8.6-3-13.2-12.5-10.1-21.1c3-8.6,12.5-13.1,21.1-10.1
			C480.7,445.5,485.3,455,482.2,463.6C482.2,463.6,482.2,463.6,482.2,463.6z M484.2,464.3c3.4-9.7-1.8-20.4-11.5-23.7
			c-9.7-3.4-20.4,1.8-23.7,11.5c-3.4,9.7,1.8,20.3,11.5,23.7C470.1,479.2,480.8,474.1,484.2,464.3
			C484.2,464.3,484.2,464.3,484.2,464.3L484.2,464.3z"/>
		<path class="st8" d="M483.5,464.1c-3.3,9.4-13.6,14.3-23,11c-9.4-3.3-14.3-13.6-11-23c3.3-9.4,13.6-14.3,23-11c0,0,0,0,0,0
			c9.3,3.2,14.3,13.5,11.1,22.8C483.5,464,483.5,464.1,483.5,464.1z M485.5,464.8c3.6-10.4-1.9-21.8-12.3-25.5
			c-10.4-3.6-21.8,1.9-25.5,12.3c-3.6,10.4,1.9,21.8,12.2,25.4C470.4,480.7,481.8,475.2,485.5,464.8L485.5,464.8z"/>
		<path class="st8" d="M484.9,464.5c-3.5,10.1-14.6,15.5-24.7,12c-10.1-3.5-15.5-14.6-12-24.7c3.5-10.1,14.6-15.5,24.7-12
			c0,0,0,0,0,0C483,443.4,488.4,454.4,484.9,464.5z M486.8,465.2c3.9-11.2-2-23.4-13.2-27.3s-23.4,2-27.3,13.2s2,23.4,13.2,27.3
			c0,0,0,0,0,0C470.7,482.3,482.9,476.4,486.8,465.2L486.8,465.2z"/>
		<path class="st8" d="M486.2,465c-3.8,10.8-15.6,16.6-26.4,12.8c-10.8-3.8-16.6-15.6-12.8-26.4s15.6-16.6,26.4-12.8
			c0,0,0.1,0,0.1,0C484.2,442.4,489.9,454.2,486.2,465z M488.2,465.7c4.2-11.9-2.1-24.9-14-29.1c-11.9-4.2-24.9,2.1-29.1,14
			c-4.2,11.9,2.1,24.9,14,29.1C470.9,483.9,484,477.6,488.2,465.7C488.1,465.7,488.1,465.7,488.2,465.7L488.2,465.7z"/>
		<path class="st9" d="M487.5,465.5c-4.1,11.5-16.7,17.6-28.3,13.5c-11.5-4.1-17.6-16.7-13.5-28.3c4.1-11.5,16.7-17.6,28.2-13.5
			C485.4,441.2,491.5,453.9,487.5,465.5C487.5,465.4,487.5,465.5,487.5,465.5z M489.5,466.2c4.4-12.6-2.2-26.5-14.8-30.9
			s-26.5,2.2-30.9,14.8s2.2,26.5,14.8,30.9c0,0,0,0,0,0C471.2,485.4,485,478.8,489.5,466.2L489.5,466.2z"/>
		<path class="st10" d="M488.8,465.9c-4.3,12.2-17.7,18.7-30,14.4c-12.2-4.3-18.7-17.7-14.4-30c4.3-12.2,17.7-18.6,29.9-14.4
			c12.2,4.2,18.7,17.6,14.5,29.8C488.8,465.8,488.8,465.9,488.8,465.9z M490.8,466.6c4.7-13.3-2.4-27.9-15.7-32.6
			c-13.3-4.7-27.9,2.4-32.6,15.7c-4.7,13.3,2.4,27.9,15.7,32.6c0,0,0,0,0,0C471.5,486.9,486,479.9,490.8,466.6L490.8,466.6z"/>
		<path class="st10" d="M490,466.4c-4.6,12.9-18.8,19.7-31.7,15.2c-12.9-4.6-19.7-18.8-15.2-31.7c4.6-12.9,18.7-19.7,31.7-15.2
			C487.8,439.2,494.6,453.4,490,466.4C490,466.3,490,466.3,490,466.4z M492,467c4.9-14.1-2.5-29.5-16.6-34.4s-29.5,2.5-34.4,16.6
			c-4.9,14.1,2.5,29.5,16.6,34.4c0,0,0,0,0,0C471.7,488.5,487.1,481.1,492,467L492,467z"/>
		<path class="st10" d="M491.4,466.9c-4.8,13.7-19.8,21-33.5,16.2c-13.7-4.8-21-19.8-16.2-33.5c4.8-13.7,19.8-21,33.5-16.2
			c0,0,0,0,0,0C489,438.1,496.2,453.1,491.4,466.9z M493.3,467.5c5.2-14.8-2.6-30.9-17.4-36.1c-14.8-5.2-30.9,2.6-36.1,17.4
			c-5.2,14.8,2.6,30.9,17.4,36.1c0,0,0,0,0,0C472,490.1,488.1,482.3,493.3,467.5L493.3,467.5z"/>
		<path class="st11" d="M492.7,467.3c-5,14.4-20.8,22.1-35.3,17s-22.1-20.8-17-35.3c5-14.4,20.8-22.1,35.3-17c0,0,0,0,0,0
			C490.1,437.1,497.7,452.8,492.7,467.3C492.7,467.2,492.7,467.3,492.7,467.3z M494.7,468c5.5-15.5-2.7-32.5-18.2-38
			s-32.5,2.7-38,18.2c-5.5,15.5,2.7,32.5,18.2,38c0,0,0,0,0.1,0C472.3,491.6,489.2,483.5,494.7,468C494.7,468,494.7,468,494.7,468
			L494.7,468z"/>
		<path class="st11" d="M494,467.7c-5.3,15.1-21.9,23-37,17.7c-15.1-5.3-23-21.9-17.7-37c5.3-15.1,21.8-23,36.9-17.8
			C491.2,436.1,499.2,452.6,494,467.7z M496,468.4c5.7-16.2-2.9-34-19.1-39.7c-16.2-5.7-34,2.9-39.7,19.1
			c-5.7,16.2,2.8,34,19.1,39.7C472.5,493.2,490.2,484.7,496,468.4C496,468.4,496,468.4,496,468.4z"/>
		<path class="st12" d="M495.3,468.2c-5.6,15.8-23,24.2-38.8,18.6c-15.8-5.6-24.2-23-18.6-38.8c5.6-15.8,22.9-24.1,38.7-18.6
			C492.5,435,500.9,452.3,495.3,468.2C495.3,468.2,495.3,468.2,495.3,468.2z M497.3,468.9c5.9-17-3-35.5-19.9-41.4
			s-35.5,3-41.4,19.9c-5.9,17,3,35.5,19.9,41.4c0,0,0,0,0,0C472.8,494.8,491.3,485.9,497.3,468.9
			C497.3,468.9,497.3,468.9,497.3,468.9L497.3,468.9z"/>
		<path class="st12" d="M496.6,468.7c-5.8,16.6-24,25.3-40.5,19.4c-16.6-5.8-25.3-24-19.4-40.5c5.8-16.5,23.9-25.2,40.5-19.5
			c16.5,5.7,25.3,23.8,19.6,40.3C496.6,468.5,496.6,468.6,496.6,468.7z M498.6,469.4c6.2-17.7-3.1-37-20.8-43.2
			c-17.7-6.2-37,3.1-43.2,20.8c-6.2,17.7,3.1,37,20.8,43.2c0,0,0,0,0,0C473.1,496.3,492.4,487,498.6,469.4L498.6,469.4z"/>
		<path class="st12" d="M498,469.1c-6,17.3-25,26.5-42.3,20.5c-17.3-6-26.5-25-20.5-42.3c6-17.3,25-26.5,42.3-20.5c0,0,0.1,0,0.1,0
			C494.9,432.9,504,451.8,498,469.1z M499.9,469.8c6.4-18.4-3.3-38.5-21.7-44.9s-38.5,3.3-44.9,21.7c-6.4,18.3,3.3,38.4,21.6,44.8
			c18.4,6.5,38.5-3.2,45-21.6C499.8,469.9,499.8,469.8,499.9,469.8L499.9,469.8z"/>
		<path class="st13" d="M499.2,469.6c-6.3,18-26,27.6-44.1,21.2c-18-6.3-27.6-26-21.2-44.1c6.3-18,26-27.6,44.1-21.3
			C496,431.8,505.5,451.5,499.2,469.6C499.2,469.6,499.2,469.6,499.2,469.6z M501.2,470.2c6.7-19.1-3.4-40.1-22.5-46.7
			s-40.1,3.4-46.7,22.5c-6.7,19.1,3.4,40,22.5,46.7C473.6,499.4,494.5,489.3,501.2,470.2L501.2,470.2z"/>
		<path class="st14" d="M500.5,470c-6.5,18.8-27.1,28.7-45.8,22.2c-18.8-6.5-28.7-27.1-22.2-45.8c6.5-18.8,27.1-28.7,45.8-22.2
			c0,0,0,0,0.1,0C497.2,430.8,507.1,451.3,500.5,470z M502.5,470.7c7-19.8-3.4-41.6-23.3-48.6c-19.8-7-41.6,3.4-48.6,23.3
			c-7,19.8,3.4,41.6,23.3,48.6c0,0,0,0,0,0C473.8,501,495.5,490.6,502.5,470.7C502.5,470.8,502.5,470.7,502.5,470.7L502.5,470.7z"/>
		<path class="st14" d="M501.8,470.5c-6.8,19.5-28.2,29.7-47.6,22.8c-19.5-6.8-29.7-28.2-22.8-47.6c6.8-19.4,28.1-29.7,47.6-22.8
			C498.4,429.7,508.6,451,501.8,470.5z M503.8,471.2c7.2-20.6-3.7-43-24.3-50.2c-20.6-7.2-43,3.7-50.2,24.3
			c-7.1,20.5,3.7,43,24.2,50.2c20.5,7.2,43-3.5,50.2-24C503.7,471.3,503.8,471.2,503.8,471.2L503.8,471.2z"/>
		<path class="st14" d="M503.1,470.9c-7.1,20.2-29.2,30.8-49.3,23.7c-20.2-7.1-30.8-29.2-23.7-49.3c7.1-20.2,29.1-30.8,49.3-23.7
			C499.5,428.6,510.2,450.7,503.1,470.9z M505.1,471.6c7.4-21.3-3.8-44.5-25.1-51.9c-21.3-7.4-44.5,3.8-51.9,25.1
			c-7.4,21.2,3.8,44.5,25.1,51.9C474.4,504.1,497.7,492.9,505.1,471.6L505.1,471.6z"/>
		<path class="st15" d="M504.5,471.4c-7.3,20.9-30.2,32-51.2,24.7c-20.9-7.3-32-30.2-24.7-51.2c7.3-20.9,30.2-32,51.2-24.7
			c0,0,0,0,0,0C500.7,427.6,511.8,450.5,504.5,471.4z M506.4,472.1c7.7-22-3.9-46-25.9-53.7c-22-7.7-46,3.9-53.7,25.9
			c-7.7,22,3.9,46,25.9,53.7c0,0,0,0,0,0C474.6,505.7,498.7,494.1,506.4,472.1L506.4,472.1z"/>
		<path class="st15" d="M505.8,471.9c-7.5,21.7-31.2,33.1-52.9,25.5c-21.7-7.5-33.1-31.2-25.5-52.9c7.5-21.7,31.2-33.1,52.9-25.5
			c0,0,0.1,0,0.1,0C501.9,426.6,513.3,450.2,505.8,471.9z M507.8,472.5c8-22.7-4-47.6-26.7-55.6c-22.7-8-47.6,4-55.6,26.7
			c-8,22.7,4,47.6,26.7,55.6C474.9,507.2,499.8,495.3,507.8,472.5L507.8,472.5z"/>
		<path class="st16" d="M507.1,472.3c-7.8,22.4-32.2,34.2-54.6,26.4c-22.4-7.8-34.2-32.2-26.4-54.6s32.2-34.2,54.6-26.4
			c0,0,0.1,0,0.1,0c22.3,7.8,34.1,32.2,26.3,54.5C507.1,472.2,507.1,472.2,507.1,472.3z M509.1,473c8.2-23.5-4.1-49.1-27.6-57.4
			c-23.5-8.2-49.1,4.1-57.4,27.6s4.1,49.1,27.6,57.4c0,0,0,0,0,0C475.1,508.8,500.8,496.5,509.1,473C509,473,509,473,509.1,473
			L509.1,473z"/>
		<path class="st16" d="M508.4,472.8c-8.1,23.1-33.4,35.2-56.5,27.1c-23.1-8.1-35.2-33.4-27.1-56.5c8.1-23,33.3-35.2,56.4-27.1
			C504.3,424.4,516.4,449.7,508.4,472.8C508.4,472.8,508.4,472.8,508.4,472.8z M510.4,473.5c8.5-24.2-4.2-50.6-28.3-59.1
			s-50.6,4.2-59.1,28.3s4.2,50.6,28.3,59.1c0,0,0,0,0.1,0C475.4,510.3,501.8,497.6,510.4,473.5L510.4,473.5z"/>
		<path class="st17" d="M509.6,473.2c-8.4,23.8-34.4,36.2-58.2,27.9c-23.8-8.4-36.2-34.4-27.9-58.2c8.4-23.7,34.4-36.2,58.1-27.9
			C505.5,423.4,518,449.4,509.6,473.2C509.6,473.2,509.6,473.2,509.6,473.2z M511.6,473.9c8.7-24.9-4.5-52.1-29.4-60.8
			c-24.9-8.7-52.1,4.5-60.8,29.4c-8.7,24.9,4.4,52,29.3,60.7C475.7,511.9,502.9,498.8,511.6,473.9L511.6,473.9z"/>
		<path class="st17" d="M511,473.7c-8.6,24.5-35.4,37.5-59.9,28.9s-37.5-35.4-28.9-59.9c8.6-24.5,35.4-37.5,59.9-28.9c0,0,0,0,0.1,0
			C506.6,422.3,519.6,449.1,511,473.7z M512.9,474.3c8.9-25.6-4.6-53.6-30.2-62.5c-25.6-8.9-53.6,4.6-62.5,30.2
			c-8.9,25.6,4.6,53.5,30.1,62.5c25.5,9,53.5-4.4,62.5-29.9C512.8,474.5,512.9,474.4,512.9,474.3z"/>
		<path class="st17" d="M512.3,474.2c-8.8,25.3-36.5,38.6-61.7,29.8s-38.6-36.5-29.8-61.7s36.5-38.6,61.7-29.8c0,0,0,0,0,0
			C507.8,421.3,521.1,448.9,512.3,474.2z M514.3,474.9c9.3-26.3-4.6-55.2-30.9-64.5c-26.3-9.3-55.2,4.6-64.5,30.9
			c-9.3,26.3,4.6,55.2,30.9,64.5c0,0,0,0,0.1,0C476.2,515,505,501.2,514.3,474.9L514.3,474.9z"/>
		<path class="st18" d="M513.6,474.6c-9.1,26-37.5,39.7-63.4,30.6c-26-9.1-39.7-37.5-30.6-63.4c9.1-26,37.5-39.7,63.4-30.6
			c0,0,0,0,0,0C508.9,420.2,522.7,448.6,513.6,474.6C513.6,474.6,513.6,474.6,513.6,474.6z M515.6,475.3c9.5-27-4.7-56.7-31.8-66.2
			c-27-9.5-56.7,4.7-66.2,31.8c-9.5,27,4.7,56.7,31.8,66.2c0,0,0,0,0.1,0C476.5,516.6,506.1,502.3,515.6,475.3L515.6,475.3z"/>
		<path class="st18" d="M514.9,475c-9.4,26.7-38.6,40.7-65.2,31.4c-26.7-9.4-40.7-38.6-31.4-65.2c9.4-26.7,38.5-40.7,65.2-31.4
			C510.2,419.1,524.2,448.3,514.9,475z M516.9,475.7c9.7-27.8-4.9-58.2-32.7-67.9c-27.8-9.7-58.2,4.9-67.9,32.7
			c-9.7,27.7,4.9,58.1,32.7,67.8c27.7,9.8,58.1-4.8,67.8-32.5C516.8,475.8,516.8,475.8,516.9,475.7L516.9,475.7z"/>
		<path class="st19" d="M516.2,475.5c-9.6,27.4-39.6,41.8-67,32.2c-27.4-9.6-41.8-39.6-32.2-67c9.6-27.4,39.6-41.8,67-32.2
			c27.4,9.6,41.8,39.5,32.3,66.9C516.2,475.5,516.2,475.5,516.2,475.5z M518.2,476.2c10-28.5-5-59.7-33.5-69.7s-59.7,5-69.7,33.5
			c-10,28.5,5,59.7,33.5,69.7c0,0,0,0,0,0C477,519.7,508.2,504.7,518.2,476.2L518.2,476.2z"/>
		<path class="st19" d="M517.5,476c-9.8,28.2-40.6,43-68.8,33.2c-28.2-9.8-43-40.6-33.2-68.8c9.8-28.2,40.6-43,68.8-33.2
			c0,0,0,0,0,0C512.5,417.1,527.4,447.8,517.5,476z M519.4,476.7c10.2-29.2-5.2-61.1-34.4-71.3c-29.2-10.2-61.1,5.2-71.3,34.4
			c-10.2,29.2,5.2,61.1,34.4,71.3C477.3,521.3,509.2,505.9,519.4,476.7C519.4,476.7,519.4,476.7,519.4,476.7L519.4,476.7z"/>
		<path class="st19" d="M518.8,476.4c-10.1,28.9-41.6,44.1-70.5,34c-28.9-10.1-44.1-41.6-34-70.5s41.6-44.1,70.5-34c0,0,0,0,0.1,0
			C513.7,416,528.9,447.6,518.8,476.4z M520.7,477.1c10.4-29.9-5.4-62.6-35.3-73.1c-29.9-10.4-62.6,5.4-73.1,35.3
			c-10.4,29.9,5.3,62.6,35.2,73C477.5,522.8,510.2,507.1,520.7,477.1C520.7,477.1,520.7,477.1,520.7,477.1z"/>
		<path class="st20" d="M520.1,476.9c-10.3,29.6-42.7,45.2-72.3,34.8c-29.6-10.3-45.2-42.7-34.8-72.3c10.3-29.6,42.7-45.2,72.3-34.8
			c0,0,0,0,0,0c29.6,10.3,45.2,42.6,34.8,72.2C520.1,476.9,520.1,476.9,520.1,476.9z M522.1,477.6c10.8-30.7-5.3-64.2-36-75
			c-30.7-10.8-64.2,5.3-75,36c-10.8,30.7,5.3,64.2,36,75c0,0,0,0,0,0C477.8,524.4,511.3,508.3,522.1,477.6
			C522.1,477.6,522.1,477.6,522.1,477.6L522.1,477.6z"/>
		<path class="st21" d="M521.4,477.4c-10.6,30.3-43.8,46.2-74.1,35.6c-30.3-10.6-46.2-43.8-35.6-74.1c10.6-30.3,43.7-46.2,74-35.6
			C516,413.9,532,447,521.4,477.4C521.4,477.3,521.4,477.3,521.4,477.4z M523.4,478c11-31.4-5.5-65.7-36.9-76.7
			c-31.4-11-65.7,5.5-76.7,36.9c-11,31.4,5.5,65.7,36.9,76.7c0,0,0,0,0.1,0C478.1,525.9,512.4,509.4,523.4,478
			C523.4,478,523.4,478,523.4,478L523.4,478z"/>
		<path class="st21" d="M522.7,477.8c-10.9,31-44.8,47.3-75.8,36.5c-31-10.9-47.3-44.8-36.5-75.8c10.9-31,44.8-47.3,75.8-36.5
			c0,0,0,0,0,0C517.2,412.9,533.5,446.8,522.7,477.8z M524.7,478.5c11.2-32.1-5.7-67.2-37.8-78.4s-67.2,5.7-78.4,37.8
			c-11.2,32.1,5.7,67.1,37.8,78.4C478.3,527.5,513.4,510.6,524.7,478.5L524.7,478.5z"/>
		<path class="st21" d="M524,478.3c-11.1,31.7-45.9,48.4-77.6,37.2c-31.7-11.1-48.4-45.9-37.2-77.6c11.1-31.7,45.8-48.4,77.5-37.3
			c31.7,11.1,48.4,45.8,37.4,77.5C524,478.2,524,478.3,524,478.3z M526,479c11.5-32.8-5.7-68.8-38.5-80.3
			c-32.8-11.5-68.8,5.7-80.3,38.5c-11.5,32.8,5.7,68.8,38.5,80.3c0,0,0.1,0,0.1,0C478.6,529,514.4,511.8,526,479L526,479z"/>
		<path class="st22" d="M525.4,478.7C514,511.2,478.5,528.4,446,517c-32.5-11.3-49.6-46.9-38.3-79.4s46.9-49.6,79.4-38.3
			c0,0,0,0,0,0C519.6,410.8,536.7,446.3,525.4,478.7z M527.3,479.4c11.7-33.5-5.9-70.2-39.4-82c-33.5-11.7-70.2,5.9-82,39.4
			c-11.7,33.5,5.9,70.2,39.4,82c0,0,0,0,0,0C478.9,530.6,515.5,512.9,527.3,479.4C527.3,479.4,527.3,479.4,527.3,479.4z"/>
		<path class="st23" d="M526.7,479.2c-11.6,33.2-47.9,50.7-81.1,39.1s-50.7-47.9-39.1-81.1c11.6-33.2,47.9-50.7,81.1-39.1
			c0,0,0.1,0,0.1,0C520.8,409.7,538.3,446,526.7,479.2z M528.7,479.9c12-34.3-6-71.8-40.3-83.8c-34.3-12-71.8,6-83.8,40.3
			c-12,34.3,6,71.8,40.3,83.8C479.1,532.1,516.6,514.1,528.7,479.9L528.7,479.9z"/>
		<path class="st23" d="M528,479.7c-11.9,33.9-49,51.7-82.9,39.7c-33.9-11.9-51.7-49-39.7-82.9c11.9-33.8,48.9-51.6,82.7-39.8
			C522,408.6,539.9,445.7,528,479.7C528,479.7,528,479.7,528,479.7z M530,480.4c12.3-35-6.1-73.3-41.1-85.6s-73.3,6.1-85.6,41.1
			s6.1,73.3,41.1,85.6c0,0,0,0,0,0C479.4,533.7,517.7,515.3,530,480.4L530,480.4z"/>
		<path class="st23" d="M529.2,480.1c-12.1,34.6-50,52.8-84.6,40.7s-52.8-50-40.7-84.6c12.1-34.6,50-52.8,84.6-40.7
			c34.6,12.1,52.9,49.9,40.8,84.5C529.3,480,529.3,480.1,529.2,480.1z M531.2,480.8c12.5-35.7-6.3-74.8-42-87.3
			c-35.7-12.5-74.8,6.3-87.3,42c-12.5,35.7,6.3,74.8,42,87.3c0,0,0,0,0,0C479.7,535.2,518.7,516.4,531.2,480.8L531.2,480.8z"/>
		<path class="st23" d="M530.5,480.5c-12.4,35.3-51.1,53.9-86.4,41.5s-53.9-51.1-41.5-86.4c12.4-35.3,51.1-53.9,86.4-41.5
			C524.3,406.5,542.9,445.2,530.5,480.5z M532.5,481.2c12.7-36.4-6.5-76.3-42.9-89s-76.3,6.5-89,42.9c-12.7,36.4,6.5,76.2,42.9,89
			C479.9,536.8,519.8,517.6,532.5,481.2L532.5,481.2z"/>
		<path class="st24" d="M531.9,481c-12.6,36.1-52,55.1-88.1,42.5c-36.1-12.6-55.1-52-42.5-88.1c12.6-36.1,52-55.1,88.1-42.5
			c0,0,0,0,0.1,0C525.5,405.5,544.5,444.9,531.9,481z M533.8,481.7c13-37.1-6.6-77.7-43.8-90.7c-37.1-13-77.7,6.6-90.7,43.8
			c-12.9,37.1,6.6,77.7,43.7,90.7c37.1,13,77.7-6.5,90.7-43.6C533.7,481.8,533.8,481.7,533.8,481.7L533.8,481.7z"/>
		<path class="st25" d="M533.2,481.5c-12.9,36.8-53.1,56.2-89.9,43.3s-56.2-53.1-43.3-89.9s53.1-56.2,89.9-43.3c0,0,0,0,0,0
			C526.6,404.4,546.1,444.6,533.2,481.5C533.2,481.4,533.2,481.4,533.2,481.5z M535.2,482.2c13.3-37.9-6.6-79.4-44.5-92.7
			c-37.9-13.3-79.4,6.6-92.7,44.5s6.6,79.4,44.5,92.7c0,0,0.1,0,0.1,0C480.5,540,521.9,520,535.2,482.2L535.2,482.2z"/>
		<path class="st25" d="M534.5,481.9c-13.1,37.5-54.2,57.3-91.7,44.2s-57.3-54.2-44.2-91.7s54.2-57.3,91.7-44.2c0,0,0,0,0.1,0
			C527.8,403.5,547.5,444.4,534.5,481.9z M536.5,482.6c13.5-38.6-6.9-80.8-45.5-94.3c-38.6-13.5-80.8,6.9-94.3,45.5
			c-13.5,38.5,6.8,80.7,45.3,94.2C480.7,541.5,522.9,521.2,536.5,482.6C536.5,482.6,536.5,482.6,536.5,482.6L536.5,482.6z"/>
		<path class="st25" d="M535.8,482.3c-13.4,38.2-55.2,58.3-93.4,45c-38.2-13.4-58.3-55.2-45-93.4c13.4-38.2,55.2-58.3,93.4-45
			C529,402.3,549.1,444.1,535.8,482.3z M537.8,483c13.7-39.3-7-82.3-46.4-96c-39.3-13.7-82.3,7-96,46.4c-13.7,39.3,7,82.3,46.3,96
			c39.3,13.8,82.3-6.9,96-46.2C537.7,483.1,537.7,483,537.8,483L537.8,483z"/>
		<path class="st25" d="M537.1,482.9c-13.7,38.9-56.3,59.4-95.2,45.8s-59.4-56.3-45.8-95.2c13.6-38.9,56.2-59.4,95.2-45.8
			c38.9,13.6,59.5,56.1,45.9,95C537.1,482.7,537.1,482.8,537.1,482.9z M539.1,483.5c14-40-7.1-83.8-47.1-97.9
			c-40-14-83.8,7.1-97.9,47.1c-14,40,7.1,83.8,47.1,97.9c0,0,0,0,0,0C481.2,544.6,525,523.5,539.1,483.5L539.1,483.5z"/>
		<path class="st26" d="M538.4,483.3c-13.9,39.7-57.3,60.6-97,46.7s-60.6-57.3-46.7-97s57.3-60.6,97-46.7c0,0,0,0,0,0
			C531.4,400.2,552.3,443.6,538.4,483.3C538.4,483.3,538.4,483.3,538.4,483.3z M540.3,484c14.2-40.8-7.3-85.3-48-99.5
			c-40.8-14.2-85.3,7.3-99.5,48c-14.2,40.7,7.2,85.2,47.9,99.5C481.4,546.2,526,524.8,540.3,484C540.3,484,540.3,484,540.3,484
			L540.3,484z"/>
		<path class="st26" d="M539.7,483.7c-14.1,40.4-58.3,61.7-98.7,47.6s-61.7-58.3-47.6-98.7s58.3-61.7,98.7-47.6c0,0,0,0,0,0
			C532.6,399.1,553.8,443.3,539.7,483.7z M541.7,484.4c14.5-41.5-7.3-86.9-48.8-101.4c-41.5-14.5-86.9,7.3-101.4,48.8
			c-14.5,41.5,7.3,86.9,48.8,101.4C481.8,547.7,527.2,525.9,541.7,484.4L541.7,484.4z"/>
		<path class="st26" d="M541,484.2c-14.4,41.1-59.4,62.8-100.5,48.4c-41.1-14.4-62.8-59.4-48.4-100.5s59.4-62.8,100.5-48.4
			c0,0,0,0,0,0c41.1,14.3,62.8,59.3,48.4,100.3C541,484.1,541,484.2,541,484.2z M543,484.9c14.8-42.2-7.4-88.4-49.6-103.3
			c-42.2-14.8-88.4,7.4-103.3,49.6s7.4,88.4,49.6,103.3c0,0,0.1,0,0.1,0C482,549.2,528.1,527.1,543,484.9L543,484.9z"/>
		<path class="st27" d="M542.3,484.7c-14.7,41.8-60.5,63.8-102.3,49.1s-63.8-60.5-49.1-102.3c14.7-41.8,60.4-63.8,102.3-49.1
			C534.9,397,557,442.8,542.3,484.7z M544.3,485.4c15-42.9-7.6-89.9-50.5-104.9s-89.9,7.6-104.9,50.5c-15,42.9,7.5,89.8,50.4,104.9
			c42.8,15.1,89.8-7.4,104.9-50.2C544.2,485.5,544.3,485.4,544.3,485.4L544.3,485.4z"/>
		<path class="st28" d="M543.6,485.1c-14.9,42.5-61.5,64.9-104,50c-42.5-14.9-64.9-61.5-50-104c14.9-42.5,61.5-64.9,104-50
			c0,0,0,0,0,0C536.1,396,558.5,442.6,543.6,485.1z M545.6,485.8c15.2-43.6-7.8-91.4-51.4-106.6c-43.6-15.2-91.4,7.8-106.6,51.4
			c-15.2,43.6,7.8,91.3,51.4,106.6C482.6,552.4,530.3,529.4,545.6,485.8L545.6,485.8z"/>
		<path class="st29" d="M545,485.6c-15.1,43.3-62.5,66.1-105.8,51c-43.3-15.1-66.1-62.5-51-105.8s62.5-66.1,105.8-51c0,0,0,0,0,0
			C537.2,395,560.1,442.3,545,485.6z M546.9,486.3c15.5-44.3-7.8-92.9-52.2-108.4c-44.3-15.5-92.9,7.8-108.4,52.2
			s7.8,92.9,52.2,108.4c0,0,0,0,0,0C482.8,554,531.3,530.6,546.9,486.3L546.9,486.3z"/>
		<path class="st29" d="M546.3,486c-15.4,44-63.5,67.3-107.5,51.9s-67.3-63.5-51.9-107.5s63.5-67.3,107.5-51.9c0,0,0,0,0.1,0
			C538.4,393.9,561.6,442,546.3,486C546.3,486,546.3,486,546.3,486z M548.3,486.7c15.8-45.1-7.9-94.5-53-110.3
			c-45.1-15.8-94.5,7.9-110.3,53s7.9,94.5,53,110.3c0,0,0.1,0,0.1,0C483.1,555.4,532.4,531.7,548.3,486.7L548.3,486.7z"/>
		<path class="st29" d="M547.5,486.5c-15.6,44.7-64.6,68.3-109.3,52.7s-68.3-64.6-52.7-109.3s64.6-68.3,109.3-52.7c0,0,0.1,0,0.1,0
			C539.6,392.8,563.2,441.7,547.5,486.5C547.6,486.4,547.5,486.4,547.5,486.5z M549.5,487.1c16-45.8-8.1-95.9-53.9-112
			s-95.9,8.1-112,53.9c-16,45.8,8.1,95.9,53.9,112C483.3,557.1,533.5,533,549.5,487.1C549.5,487.2,549.5,487.2,549.5,487.1
			L549.5,487.1z"/>
		<path class="st29" d="M548.8,487c-15.9,45.4-65.7,69.3-111.1,53.4s-69.3-65.7-53.4-111.1c15.9-45.4,65.6-69.3,111.1-53.4
			C540.8,391.8,564.8,441.5,548.8,487z M550.8,487.7c16.3-46.5-8.1-97.5-54.6-113.8s-97.5,8.1-113.8,54.6
			C366.1,475,390.5,526,437,542.3c0,0,0.1,0,0.1,0C483.6,558.6,534.5,534.1,550.8,487.7L550.8,487.7z"/>
		<path class="st30" d="M550.1,487.4c-16.2,46.1-66.7,70.4-112.8,54.2s-70.4-66.7-54.2-112.8c16.2-46.1,66.6-70.4,112.8-54.3
			c46.1,16.1,70.5,66.6,54.4,112.7C550.2,487.3,550.1,487.4,550.1,487.4z M552.1,488.1c16.5-47.2-8.4-98.9-55.6-115.5
			c-47.2-16.5-98.9,8.4-115.5,55.6s8.4,98.9,55.6,115.5c0,0,0,0,0,0C483.9,560.2,535.6,535.3,552.1,488.1L552.1,488.1z"/>
		<path class="st30" d="M551.5,487.8c-16.4,46.9-67.7,71.7-114.6,55.3c-46.9-16.4-71.7-67.7-55.3-114.6
			c16.4-46.9,67.7-71.7,114.6-55.3c0,0,0.1,0,0.1,0C543.2,389.7,567.9,441,551.5,487.8z M553.4,488.5c16.8-48-8.5-100.4-56.5-117.2
			s-100.4,8.5-117.2,56.5c-16.8,47.9,8.5,100.4,56.4,117.2C484.1,561.8,536.6,536.5,553.4,488.5
			C553.4,488.6,553.4,488.5,553.4,488.5z"/>
		<path class="st30" d="M552.8,488.4c-16.6,47.6-68.7,72.8-116.4,56.1c-47.6-16.6-72.8-68.7-56.1-116.4S449,355.3,496.7,372
			c0,0,0,0,0.1,0C544.3,388.7,569.4,440.8,552.8,488.4z M554.7,489c17-48.7-8.6-101.9-57.3-119c-48.7-17-101.9,8.6-119,57.3
			c-17,48.7,8.6,101.9,57.2,119C484.3,563.3,537.6,537.7,554.7,489C554.7,489,554.7,489,554.7,489L554.7,489z"/>
		<path class="st30" d="M554.1,488.8c-16.9,48.3-69.8,73.8-118.1,56.9s-73.8-69.8-56.9-118.1c16.9-48.3,69.8-73.8,118.1-56.9
			c0,0,0,0,0,0C545.5,387.5,571,440.4,554.1,488.8C554.1,488.7,554.1,488.8,554.1,488.8z M556.1,489.5
			c17.3-49.4-8.7-103.5-58.1-120.9c-49.4-17.3-103.5,8.7-120.9,58.1c-17.3,49.4,8.7,103.5,58.1,120.9c0,0,0.1,0,0.1,0
			C484.7,564.9,538.7,538.9,556.1,489.5L556.1,489.5z"/>
		<path class="st31" d="M555.4,489.2c-17.2,49-70.9,74.8-119.9,57.7S360.6,476,377.8,427c17.2-49,70.9-74.8,119.9-57.7
			C546.7,386.5,572.5,440.2,555.4,489.2z M557.4,489.9c17.5-50.1-8.9-105-59-122.5s-105,8.9-122.5,59c-17.5,50.1,8.9,105,59,122.5
			c50.1,17.6,104.9-8.8,122.5-58.9C557.3,490,557.3,489.9,557.4,489.9L557.4,489.9z"/>
		<path class="st32" d="M556.7,489.7c-17.5,49.8-72,75.9-121.7,58.5c-49.8-17.5-75.9-72-58.5-121.7c17.5-49.7,71.9-75.9,121.6-58.5
			c49.7,17.4,76,71.8,58.6,121.5C556.7,489.6,556.7,489.7,556.7,489.7z M558.7,490.4c17.8-50.8-9-106.5-59.8-124.3
			s-106.5,9-124.3,59.8s9,106.5,59.8,124.3c0,0,0,0,0,0C485.2,568,540.8,541.2,558.7,490.4L558.7,490.4z"/>
		<path class="st32" d="M558,490.2c-17.7,50.5-73,77-123.4,59.3c-50.5-17.7-77-73-59.3-123.4c17.7-50.4,72.9-77,123.3-59.4
			C549,384.3,575.6,439.5,558,490C558,490,558,490.1,558,490.2z M560,490.9c18-51.6-9.1-108-60.7-126c-51.6-18-108,9.1-126,60.7
			c-18,51.6,9.1,108,60.7,126c0,0,0,0,0,0C485.5,569.5,541.9,542.4,560,490.9z"/>
		<path class="st32" d="M559.3,490.6c-17.9,51.2-74,78.2-125.2,60.3s-78.2-74-60.3-125.2c17.9-51.2,74-78.2,125.2-60.3
			c0,0,0,0,0.1,0C550.2,383.4,577.2,439.4,559.3,490.6z M561.2,491.3c18.3-52.3-9.3-109.5-61.6-127.7
			c-52.3-18.3-109.5,9.3-127.7,61.6c-18.3,52.2,9.3,109.4,61.5,127.7C485.7,571.1,542.9,543.6,561.2,491.3
			C561.2,491.3,561.2,491.3,561.2,491.3z"/>
		<path class="st32" d="M560.6,491.1c-18.2,51.9-75.1,79.3-127,61.1s-79.3-75.1-61.1-127c18.2-51.9,75-79.3,126.9-61.1
			c51.9,18.1,79.3,74.9,61.2,126.9C560.6,491,560.6,491.1,560.6,491.1z M562.6,491.7c18.6-53-9.4-111.1-62.4-129.6
			c-53-18.6-111.1,9.4-129.6,62.4c-18.5,53,9.4,111,62.4,129.6c53,18.6,111-9.3,129.6-62.3C562.6,491.8,562.6,491.7,562.6,491.7
			L562.6,491.7z"/>
		<path class="st33" d="M561.9,491.5c-18.5,52.6-76.1,80.3-128.7,61.9c-52.6-18.5-80.3-76.1-61.9-128.7
			c18.4-52.6,76-80.3,128.6-61.9C552.6,381.2,580.3,438.9,561.9,491.5z M563.9,492.2c18.9-53.7-9.4-112.6-63.2-131.4
			c-53.7-18.9-112.6,9.4-131.4,63.2c-18.9,53.7,9.4,112.6,63.2,131.4c0,0,0.1,0,0.1,0C486.3,574.2,545,545.9,563.9,492.2
			L563.9,492.2z"/>
		<path class="st33" d="M563.2,492c-18.7,53.4-77.1,81.4-130.5,62.7c-53.4-18.7-81.4-77.1-62.7-130.5
			c18.7-53.3,77.1-81.4,130.5-62.7C553.8,380.2,581.9,438.6,563.2,492z M565.2,492.7c19-54.5-9.7-114-64.2-133.1
			c-54.5-19-114,9.7-133.1,64.2c-19,54.4,9.7,114,64.1,133C486.5,575.8,546.1,547.1,565.2,492.7L565.2,492.7z"/>
		<path class="st33" d="M564.5,492.4c-18.9,54.1-78.1,82.5-132.2,63.6s-82.5-78.1-63.6-132.2c18.9-54.1,78.1-82.5,132.2-63.6
			C554.9,379.1,583.4,438.3,564.5,492.4C564.5,492.4,564.5,492.4,564.5,492.4z M566.5,493.1c19.3-55.2-9.9-115.5-65-134.8
			s-115.5,9.9-134.8,65c-19.2,55.1,9.8,115.4,64.9,134.7C486.8,577.4,547.1,548.3,566.5,493.1C566.5,493.1,566.5,493.1,566.5,493.1
			L566.5,493.1z"/>
		<path class="st33" d="M565.9,492.9c-19.2,54.8-79.2,83.8-134,64.6c-54.8-19.2-83.8-79.2-64.6-134c19.2-54.8,79.2-83.8,134-64.6
			c0,0,0,0,0.1,0C556.1,378.1,585,438.1,565.9,492.9z M567.8,493.6c19.6-55.9-9.9-117-65.8-136.6c-55.9-19.6-117,9.9-136.6,65.8
			s9.9,117,65.8,136.6c0,0,0,0,0,0C487,578.9,548.2,549.5,567.8,493.6L567.8,493.6z"/>
		<path class="st34" d="M567.1,493.3c-19.4,55.6-80.2,84.8-135.8,65.4S346.5,478.5,366,423s80.2-84.8,135.8-65.4c0,0,0.1,0,0.1,0
			C557.3,377.1,586.6,437.8,567.1,493.3z M569.1,494c19.8-56.6-10-118.6-66.6-138.5c-56.6-19.8-118.6,10-138.5,66.6
			c-19.8,56.6,10,118.6,66.6,138.4C487.3,580.5,549.3,550.6,569.1,494L569.1,494z"/>
		<path class="st35" d="M568.4,493.8c-19.7,56.3-81.2,85.9-137.5,66.3c-56.3-19.7-85.9-81.2-66.3-137.5
			c19.7-56.3,81.2-85.9,137.5-66.3c0,0,0.1,0,0.1,0C558.5,376,588.1,437.5,568.4,493.8z M570.4,494.5
			c20.1-57.3-10.2-120.1-67.5-140.2s-120.1,10.2-140.2,67.5c-20.1,57.3,10.1,120.1,67.5,140.1C487.6,582,550.3,551.8,570.4,494.5
			C570.4,494.5,570.4,494.5,570.4,494.5L570.4,494.5z"/>
		<path class="st35" d="M569.7,494.3c-20,57-82.4,86.9-139.3,67c-57-20-86.9-82.4-67-139.3c20-56.9,82.3-86.9,139.2-67
			c57,19.9,87,82.2,67.1,139.2C569.8,494.2,569.7,494.2,569.7,494.3z M571.7,495c20.3-58.1-10.2-121.6-68.3-142
			c-58.1-20.3-121.6,10.2-142,68.3s10.2,121.6,68.3,142c0,0,0,0,0,0C487.8,583.6,551.4,553.1,571.7,495
			C571.7,495,571.7,495,571.7,495L571.7,495z"/>
		<path class="st35" d="M571,494.7c-20.2,57.7-83.4,88-141.1,67.8s-88-83.4-67.8-141.1c20.2-57.7,83.4-88,141-67.8
			C560.9,373.9,591.2,437,571,494.7z M573,495.4c20.6-58.8-10.4-123.1-69.2-143.7S380.7,362.2,360.1,421
			c-20.5,58.8,10.4,123,69.1,143.6C488,585.2,552.4,554.2,573,495.4L573,495.4z"/>
		<path class="st36" d="M572.4,495.1C552,553.6,488,584.4,429.6,564s-89.3-84.4-68.9-142.8s84.4-89.3,142.8-68.9c0,0,0.1,0,0.1,0
			C562,372.8,592.8,436.7,572.4,495.1z M574.3,495.8c20.8-59.5-10.6-124.6-70.1-145.4c-59.5-20.8-124.6,10.6-145.4,70.1
			c-20.8,59.5,10.6,124.5,70,145.3C488.3,586.7,553.4,555.4,574.3,495.8C574.3,495.9,574.3,495.9,574.3,495.8z"/>
		<path class="st36" d="M573.7,495.7c-20.7,59.2-85.4,90.4-144.6,69.7c-59.2-20.7-90.4-85.4-69.7-144.6s85.4-90.4,144.6-69.7
			c0,0,0,0,0,0C563.2,371.8,594.4,436.5,573.7,495.7C573.7,495.6,573.7,495.6,573.7,495.7z M575.7,496.4
			c21.1-60.2-10.6-126.2-70.8-147.3s-126.2,10.6-147.3,70.8s10.6,126.2,70.8,147.3c0,0,0,0,0.1,0
			C488.6,588.3,554.5,556.6,575.7,496.4L575.7,496.4z"/>
		<path class="st37" d="M575,496.1c-20.9,59.9-86.5,91.4-146.3,70.5c-59.9-20.9-91.4-86.5-70.5-146.3s86.5-91.4,146.3-70.5
			c0,0,0.1,0,0.1,0C564.4,370.8,595.9,436.2,575,496.1z M577,496.8c21.4-60.9-10.7-127.7-71.7-149s-127.7,10.7-149,71.7
			s10.7,127.7,71.7,149c0,0,0,0,0,0C488.9,589.8,555.6,557.7,577,496.8z"/>
		<path class="st37" d="M576.3,496.5c-21.2,60.6-87.5,92.5-148.1,71.3s-92.5-87.5-71.3-148.1c21.2-60.6,87.5-92.5,148.1-71.3
			C565.5,369.7,597.4,435.9,576.3,496.5z M578.3,497.2c21.6-61.7-10.9-129.2-72.6-150.7C444,324.9,376.5,357.4,354.9,419
			c-21.6,61.6,10.9,129.1,72.5,150.7C489.1,591.4,556.6,558.9,578.3,497.2C578.2,497.3,578.2,497.2,578.3,497.2L578.3,497.2z"/>
		<path class="st37" d="M577.6,497c-21.5,61.3-88.6,93.5-149.9,72.1c-61.3-21.5-93.5-88.6-72.1-149.9
			c21.5-61.3,88.5-93.5,149.8-72.1c61.3,21.4,93.6,88.4,72.2,149.7C577.6,496.9,577.6,496.9,577.6,497z M579.6,497.7
			c21.9-62.4-11-130.7-73.4-152.5s-130.7,11-152.5,73.4s11,130.7,73.4,152.5c0,0,0,0,0,0C489.4,592.9,557.6,560.1,579.6,497.7
			L579.6,497.7z"/>
		<path class="st38" d="M579,497.5c-21.7,62-89.6,94.7-151.6,73c-62-21.7-94.7-89.6-73-151.6c21.7-62,89.6-94.7,151.6-73
			C567.9,367.5,600.7,435.4,579,497.5C579,497.4,579,497.5,579,497.5z M580.9,498.2c22.1-63.1-11.2-132.1-74.3-154.2
			c-63.1-22.1-132.1,11.2-154.2,74.3c-22,63.1,11.2,132.1,74.2,154.1C489.7,594.5,558.7,561.2,580.9,498.2L580.9,498.2z"/>
		<path class="st38" d="M580.2,497.9c-21.9,62.8-90.6,95.8-153.4,73.9s-95.8-90.6-73.9-153.4s90.6-95.8,153.4-73.9c0,0,0,0,0.1,0
			C569.1,366.5,602.1,435.2,580.2,497.9z M582.2,498.6c22.4-63.8-11.3-133.7-75.1-156.1S373.4,353.8,351,417.6
			c-22.4,63.8,11.3,133.7,75.1,156.1C489.9,596.1,559.8,562.4,582.2,498.6L582.2,498.6z"/>
		<path class="st39" d="M581.5,498.4c-22.2,63.5-91.7,96.9-155.2,74.7c-63.5-22.2-96.9-91.7-74.7-155.2
			c22.2-63.5,91.7-96.9,155.2-74.7c0,0,0,0,0,0C570.3,365.5,603.7,434.9,581.5,498.4C581.5,498.4,581.5,498.4,581.5,498.4z
			 M583.5,499.1c22.7-64.6-11.3-135.3-75.9-157.9c-64.6-22.7-135.3,11.3-157.9,75.9C327.1,481.6,361,552.3,425.6,575c0,0,0,0,0.1,0
			C490.2,597.6,560.8,563.6,583.5,499.1L583.5,499.1z"/>
		<path class="st39" d="M582.8,498.8c-22.5,64.2-92.8,98-157,75.4s-98-92.8-75.4-157c22.5-64.1,92.7-97.9,156.8-75.5
			c64.2,22.4,98,92.7,75.6,156.9C582.8,498.7,582.8,498.8,582.8,498.8z M584.8,499.5c22.9-65.3-11.5-136.7-76.7-159.6
			s-136.7,11.5-159.6,76.7s11.5,136.7,76.7,159.6c0,0,0.1,0,0.1,0C490.5,599.2,561.9,564.8,584.8,499.5
			C584.8,499.6,584.8,499.6,584.8,499.5L584.8,499.5z"/>
		<path class="st40" d="M584.1,499.3c-22.7,64.9-93.8,99.1-158.7,76.3s-99.1-93.8-76.3-158.7c22.7-64.9,93.8-99,158.6-76.3
			C572.6,363.4,606.8,434.4,584.1,499.3z M586.1,500c23.1-66-11.7-138.2-77.7-161.3s-138.2,11.7-161.3,77.7
			c-23.1,66,11.7,138.1,77.7,161.2C490.7,600.7,562.9,566,586.1,500L586.1,500z"/>
		<path class="st40" d="M585.5,499.8c-23,65.7-94.8,100.3-160.5,77.4c-65.7-23-100.3-94.8-77.4-160.5s94.8-100.3,160.5-77.4
			c0,0,0.1,0,0.1,0C573.8,362.3,608.4,434.1,585.5,499.8z M587.4,500.5c23.4-66.7-11.8-139.7-78.5-163.1s-139.7,11.8-163.1,78.5
			c-23.4,66.7,11.8,139.7,78.5,163.1c0,0,0,0,0,0C491,602.3,564,567.2,587.4,500.5z"/>
		<path class="st41" d="M586.7,500.2c-23.2,66.4-95.8,101.4-162.2,78.1c-66.4-23.2-101.4-95.8-78.1-162.2
			c23.2-66.4,95.8-101.4,162.2-78.1c66.3,23.2,101.4,95.7,78.2,162.1C586.8,500.1,586.8,500.2,586.7,500.2z M588.6,500.9
			c23.7-67.4-11.8-141.2-79.2-164.8c0,0-0.1,0-0.1-0.1c-67.4-23.6-141.2,12-164.9,79.3c-23.6,67.4,11.9,141.3,79.3,164.9
			C491.2,603.9,565,568.3,588.6,500.9L588.6,500.9z"/>
		<path class="st41" d="M588,500.6c-23.5,67.1-96.9,102.4-164,79c-67.1-23.5-102.4-96.9-79-164c23.5-67.1,96.9-102.4,164-79
			c0,0,0,0,0.1,0c67,23.4,102.4,96.8,79,163.8C588.1,500.6,588,500.6,588,500.6z M590,501.3c23.8-68.2-12-142.8-80.2-166.6
			c-68.2-23.9-142.8,12-166.7,80.2c0,0,0,0,0,0c-23.8,68.2,12,142.8,80.2,166.6C491.5,605.5,566.1,569.5,590,501.3L590,501.3z"/>
		<path class="st42" d="M589.3,501.2c-23.8,67.8-98,103.4-165.8,79.7c-67.8-23.8-103.4-98-79.7-165.8
			c23.8-67.7,97.9-103.4,165.7-79.7C577.4,359.1,613.1,433.3,589.3,501.2C589.3,501.1,589.3,501.1,589.3,501.2z M591.3,501.9
			c24.1-68.9-12.2-144.3-81.1-168.4c-68.9-24.1-144.2,12.2-168.3,81.1c-24.1,68.9,12.2,144.2,81.1,168.3
			C491.9,607,567.2,570.7,591.3,501.9z"/>
		<path class="st42" d="M590.6,501.6c-24,68.5-99,104.6-167.5,80.6c-68.5-24-104.6-99-80.6-167.5c24-68.5,98.9-104.5,167.4-80.6
			c68.5,23.9,104.6,98.9,80.7,167.4C590.6,501.5,590.6,501.5,590.6,501.6z M592.6,502.3c24.4-69.6-12.3-145.8-81.9-170.1
			c-69.6-24.4-145.8,12.3-170.1,81.9s12.3,145.8,81.9,170.1c0,0,0,0,0,0C492.1,608.5,568.2,571.9,592.6,502.3L592.6,502.3z"/>
		<path class="st43" d="M591.9,502c-24.3,69.2-100,105.6-169.2,81.4s-105.6-100-81.4-169.2c24.3-69.2,100-105.6,169.2-81.4
			C579.7,357,616.2,432.8,591.9,502z M593.9,502.7c24.6-70.3-12.5-147.3-82.8-171.8s-147.3,12.5-171.8,82.8
			C314.7,484,351.7,560.9,422,585.5c70.3,24.6,147.3-12.4,171.9-82.7C593.9,502.8,593.9,502.7,593.9,502.7L593.9,502.7z"/>
		<path class="st44" d="M593.3,502.5c-24.5,70-101.1,106.8-171.1,82.3s-106.8-101.1-82.3-171.1S441,307,510.9,331.5c0,0,0,0,0,0
			C580.9,356,617.8,432.6,593.3,502.5z M595.2,503.1c24.8-71-12.6-148.7-83.7-173.6c-71-24.8-148.7,12.6-173.6,83.7
			c-24.8,71,12.6,148.7,83.6,173.6c71,24.9,148.7-12.5,173.6-83.5C595.1,503.2,595.2,503.2,595.2,503.1z"/>
		<path class="st44" d="M594.6,503c-24.7,70.7-102.1,107.9-172.8,83.2c-70.7-24.7-107.9-102.1-83.2-172.8
			c24.7-70.7,102.1-107.9,172.8-83.2C582,354.9,619.3,432.3,594.6,503C594.6,503,594.6,503,594.6,503z M596.6,503.7
			c25.2-71.8-12.6-150.4-84.4-175.5c-71.8-25.2-150.4,12.6-175.5,84.4s12.6,150.4,84.4,175.5c0,0,0.1,0,0.1,0
			C492.9,613.2,571.4,575.4,596.6,503.7L596.6,503.7z"/>
		<path class="st45" d="M595.9,503.4c-25,71.4-103.2,109-174.6,84c-71.4-25-109-103.2-84-174.6s103.2-109,174.6-84c0,0,0,0,0,0
			C583.2,353.9,620.8,432,595.9,503.4z M597.9,504.1c25.4-72.5-12.8-151.8-85.3-177.2s-151.8,12.8-177.2,85.3
			C310,484.6,348.1,564,420.6,589.4c72.4,25.4,151.8-12.7,177.2-85.1C597.8,504.2,597.8,504.1,597.9,504.1L597.9,504.1z"/>
		<path class="st45" d="M597.2,503.8C571.9,576,493,614,420.9,588.7S310.7,484.6,336,412.5l0,0c25.3-72.1,104.2-110.2,176.3-84.9
			C584.4,352.8,622.4,431.7,597.2,503.8C597.2,503.8,597.2,503.8,597.2,503.8z M599.2,504.5c25.6-73.2-13-153.3-86.3-178.9
			s-153.3,13-178.9,86.3c-25.6,73.2,13,153.2,86.1,178.8C493.4,616.4,573.5,577.8,599.2,504.5C599.1,504.5,599.1,504.5,599.2,504.5
			L599.2,504.5z"/>
		<path class="st45" d="M598.4,504.4c-25.5,72.8-105.3,111.2-178.1,85.6c-72.8-25.5-111.2-105.3-85.6-178.1
			c25.5-72.8,105.2-111.1,178-85.7c72.8,25.5,111.2,105.1,85.8,178C598.5,504.2,598.4,504.3,598.4,504.4z M600.4,505
			c25.9-73.9-13.1-154.8-87-180.7c-73.9-25.9-154.8,13.1-180.7,87s13.1,154.8,87,180.7c0,0,0,0,0,0
			C493.7,617.8,574.5,578.9,600.4,505L600.4,505z"/>
		<path class="st46" d="M599.8,504.8c-25.7,73.6-106.3,112.4-179.9,86.6s-112.4-106.3-86.6-179.9C359,338,439.6,299.2,513.2,324.9
			c0,0,0,0,0.1,0C586.8,350.7,625.5,431.2,599.8,504.8z M601.7,505.5c26.1-74.6-13.2-156.3-87.9-182.4s-156.3,13.2-182.4,87.9
			c-26.1,74.6,13.2,156.3,87.8,182.4C493.9,619.4,575.6,580.1,601.7,505.5z"/>
		<path class="st47" d="M601.1,505.2c-26,74.3-107.3,113.4-181.6,87.5c0,0-0.1,0-0.1,0c-74.3-26-113.4-107.3-87.4-181.5
			c26-74.3,107.3-113.4,181.6-87.5c0,0,0.1,0,0.1,0C588,349.6,627.1,430.9,601.1,505.2z M603.1,505.9
			c26.4-75.4-13.3-157.9-88.7-184.3S356.5,335,330.1,410.3c-26.4,75.4,13.3,157.8,88.7,184.3C494.1,621,576.6,581.3,603,506
			C603.1,506,603.1,505.9,603.1,505.9L603.1,505.9z"/>
		<path class="st47" d="M602.4,505.7C576.1,580.7,494,620.2,419,594c-75-26.3-114.6-108.4-88.3-183.4c0,0,0,0,0,0
			c26.3-75,108.4-114.5,183.4-88.2c75,26.2,114.5,108.2,88.3,183.2C602.4,505.6,602.4,505.7,602.4,505.7z M604.4,506.4
			c26.7-76.1-13.4-159.4-89.4-186.1s-159.4,13.4-186.1,89.4s13.4,159.4,89.4,186.1c0,0,0.1,0,0.1,0
			C494.5,622.5,577.7,582.5,604.4,506.4L604.4,506.4z"/>
		<path class="st47" d="M603.7,506.1c-26.5,75.7-109.4,115.6-185.2,89.1c-75.7-26.5-115.6-109.4-89.1-185.1c0,0,0,0,0,0
			C356,334.4,438.9,294.5,514.6,321C590.3,347.5,630.2,430.4,603.7,506.1C603.7,506.1,603.7,506.1,603.7,506.1z M605.7,506.8
			c26.9-76.8-13.6-160.9-90.4-187.7c-76.7-27.3-161,12.7-188.3,89.3s12.7,161,89.3,188.3c0.5,0.2,1,0.4,1.5,0.5
			C494.7,624.1,578.8,583.7,605.7,506.8L605.7,506.8z"/>
		<path class="st48" d="M605,506.6c-26.8,76.4-110.4,116.7-186.9,89.9c-76.4-26.8-116.7-110.4-89.9-186.9
			C355,333.2,438.6,292.9,515,319.7C591.5,346.5,631.8,430.2,605,506.6z M607,507.3c27.1-77.5-13.8-162.4-91.3-189.5
			s-162.4,13.8-189.5,91.3c-27.1,77.5,13.7,162.3,91.2,189.5C495,625.7,579.8,584.8,607,507.3z"/>
		<path class="st48" d="M606.3,507.1c-27,77.2-111.5,117.9-188.7,90.9s-117.9-111.5-90.9-188.7s111.5-117.9,188.7-90.9c0,0,0,0,0,0
			C592.6,345.5,633.3,429.9,606.3,507.1z M608.2,507.8c27.4-78.2-13.8-163.9-92.1-191.3s-163.9,13.8-191.3,92.1
			c-27.4,78.2,13.8,163.9,92.1,191.3c0,0,0,0,0,0C495.2,627.3,580.8,586,608.2,507.8C608.2,507.8,608.2,507.8,608.2,507.8z"/>
		<path class="st49" d="M607.6,507.5c-27.3,77.9-112.5,119-190.4,91.6c-77.9-27.3-118.9-112.5-91.6-190.4
			c27.3-77.9,112.5-118.9,190.4-91.6C593.9,344.4,634.9,429.7,607.6,507.5L607.6,507.5z M609.6,508.2c27.6-79-14-165.4-93-193.1
			c-78.9-27.7-165.4,13.9-193.1,92.9c-27.6,79,14,165.4,93,193.1C495.4,628.8,582,587.2,609.6,508.2L609.6,508.2z"/>
		<path class="st49" d="M609,508c-27.5,78.6-113.6,120.1-192.2,92.6c0,0,0,0,0,0c-78.6-27.6-120-113.6-92.5-192.2
			c27.5-78.6,113.5-120,192.2-92.5S636.5,429.4,609,508L609,508z M611,508.7c27.8-79.7-14.1-166.9-93.8-194.8s-167,14.1-194.9,93.8
			s14.1,166.9,93.8,194.8S583,588.3,611,508.7L611,508.7z"/>
		<path class="st49" d="M610.2,508.5c-27.8,79.3-114.6,121.1-193.9,93.4c0,0,0,0,0,0c-79.3-27.8-121.1-114.7-93.3-194
			c26.8-79.7,113.1-122.5,192.8-95.7c79.7,26.8,122.5,113.1,95.7,192.8C611.1,506.1,610.6,507.3,610.2,508.5z M612.2,509.2
			c28.2-80.4-14.1-168.3-94.5-196.5c-0.1,0-0.1,0-0.2-0.1c-80.4-28.2-168.4,14.2-196.6,94.5c-28.2,80.4,14.1,168.4,94.5,196.5
			c0.1,0,0.1,0,0.2,0.1C496,631.9,584,589.5,612.2,509.2L612.2,509.2z"/>
		<path class="st50" d="M611.5,508.9c-28,80-115.7,122.2-195.7,94.1c-80-28-122.2-115.7-94.1-195.7c28-80,115.6-122.2,195.6-94.2
			C597.3,341.2,639.5,428.8,611.5,508.9C611.5,508.8,611.5,508.9,611.5,508.9z M613.5,509.6c28.5-81.1-14.4-169.9-95.5-198.4
			c-81.1-28.4-169.9,14.4-198.3,95.5c-28.5,81.1,14.4,170,95.5,198.4S585.1,590.7,613.5,509.6L613.5,509.6z"/>
		<path class="st51" d="M612.9,509.3c-28.3,80.8-116.7,123.4-197.5,95.2C334.6,576.2,292,487.8,320.3,407
			c28.3-80.8,116.7-123.4,197.5-95.2c0,0,0,0,0.1,0C598.6,340.2,641.1,428.6,612.9,509.3z M614.8,510
			c28.7-81.8-14.4-171.4-96.3-200.1S347,324.3,318.4,406.3s14.4,171.4,96.3,200.1S586.1,591.9,614.8,510L614.8,510z"/>
		<path class="st51" d="M614.2,509.9c-28.5,81.5-117.8,124.4-199.2,95.8c-81.5-28.5-124.4-117.7-95.9-199.2
			c28.5-81.5,117.7-124.4,199.2-95.9C599.8,339.1,642.7,428.3,614.2,509.9C614.2,509.8,614.2,509.8,614.2,509.9z M616.2,510.5
			c28.9-82.6-14.6-173-97.2-201.9c-82.6-28.9-173,14.6-202,97.1c-28.9,82.6,14.6,173,97.2,201.9
			C496.8,636.6,587.2,593.1,616.2,510.5L616.2,510.5z"/>
		<path class="st51" d="M615.5,510.3c-28.8,82.2-118.8,125.5-201,96.7s-125.6-118.7-96.8-201s118.8-125.5,201-96.7
			c82.2,28.7,125.6,118.6,96.9,200.8C615.5,510.1,615.5,510.2,615.5,510.3z M617.5,511c29.1-83.3-14.8-174.5-98.1-203.6
			c-83.3-29.2-174.4,14.7-203.6,98c-29.2,83.3,14.7,174.5,98,203.6c0,0,0.1,0,0.1,0C497.1,638.2,588.2,594.3,617.5,511L617.5,511z"
			/>
		<path class="st51" d="M616.7,510.7c-29.1,82.9-119.9,126.6-202.8,97.5c-82.9-29.1-126.6-119.9-97.5-202.8
			c29.1-82.9,119.8-126.6,202.8-97.5C602.1,337,645.8,427.8,616.7,510.7z M618.7,511.4c29.4-84-14.8-176-98.9-205.4
			s-176,14.8-205.4,98.9c-29.4,84,14.8,176,98.8,205.4C497.3,639.7,589.3,595.4,618.7,511.4C618.7,511.4,618.7,511.4,618.7,511.4
			L618.7,511.4z"/>
		<path class="st52" d="M618,511.2c-29.2,83.6-120.9,127.8-204.5,98.4c-83.7-29.3-127.7-120.9-98.4-204.6
			c29.2-83.6,120.9-127.7,204.5-98.4C603.3,335.9,647.3,427.5,618,511.2z M620,511.9c29.7-84.7-15-177.5-99.7-207.2
			s-177.5,15-207.2,99.7s15,177.5,99.7,207.2c0,0,0,0,0,0C497.6,641.2,590.3,596.6,620,511.9L620,511.9z"/>
		<path class="st52" d="M619.4,511.6c-29.6,84.4-122,128.9-206.3,99.3c-84.4-29.6-128.9-121.9-99.4-206.3
			c29.6-84.4,122-128.9,206.3-99.3C604.4,334.9,648.9,427.2,619.4,511.6z M621.3,512.3c29.9-85.4-15-179.1-100.6-209
			c-85.5-29.9-179,15.1-208.9,100.6c0,0,0,0,0,0c-29.9,85.5,15,179.1,100.6,209C497.9,642.8,591.4,597.8,621.3,512.3
			C621.3,512.4,621.3,512.3,621.3,512.3z"/>
		<path class="st52" d="M620.7,512.1c-29.8,85.1-123,130-208.1,100.2s-129.9-122.9-100.1-208s123-130,208.1-100.1
			S650.4,427,620.7,512.1z M622.6,512.8c30.3-86.1-15.2-180.5-101.4-210.7c-86.2-30.2-180.5,15.1-210.8,101.3
			c-30.2,86.2,15.1,180.5,101.3,210.8S592.3,599,622.6,512.8C622.6,512.8,622.6,512.8,622.6,512.8z"/>
		<path class="st52" d="M622,512.6c-30.1,85.8-124,131-209.8,100.9s-131.1-124-101-209.8s124-131.1,209.8-101S652,426.7,622,512.6z
			 M624,513.3c30.4-86.9-15.4-182.1-102.3-212.5s-182.1,15.4-212.5,102.3c-30.4,86.9,15.4,182,102.3,212.4S593.5,600.2,624,513.3z"
			/>
		<path class="st52" d="M623.3,513c-30.3,86.6-125,132.1-211.6,101.9s-132.2-125-101.9-211.6s125-132.1,211.6-101.9
			S653.6,426.5,623.3,513z M625.3,513.7c30.7-87.6-15.4-183.6-103.1-214.3s-183.6,15.4-214.3,103.1S323.4,586.1,411,616.8
			c0,0,0,0,0,0C498.6,647.5,594.5,601.4,625.3,513.7C625.2,513.8,625.2,513.7,625.3,513.7L625.3,513.7z"/>
		<path class="st53" d="M624.6,513.5c-30.5,87.3-126,133.2-213.4,102.7S278,490.1,308.6,402.8s126-133.2,213.4-102.7
			S655.2,426.2,624.6,513.5z M626.6,514.1c31-88.4-15.6-185.1-103.9-216s-185.1,15.6-216,104s15.6,185.1,103.9,216
			S595.6,602.5,626.6,514.1L626.6,514.1z"/>
		<path class="st53" d="M625.9,513.9c-30.8,88-127.1,134.3-215.1,103.6c-87.9-30.8-134.3-127-103.6-214.9c0-0.1,0-0.1,0.1-0.2
			c30.8-88,127-134.4,215.1-103.6c87.9,30.8,134.3,127,103.6,214.9C625.9,513.8,625.9,513.8,625.9,513.9z M627.9,514.6
			C659,425.5,612.1,328,523,296.8s-186.5,15.7-217.7,104.9S321,588.2,410.1,619.5S596.6,603.7,627.9,514.6L627.9,514.6z"/>
		<path class="st53" d="M627.2,514.4c-31.1,88.7-128.2,135.5-216.9,104.4S274.9,490.6,306,401.9c31.1-88.7,128.1-135.4,216.8-104.4
			C611.5,328.5,658.3,425.7,627.2,514.4z M629.1,515.1c31.5-89.8-15.8-188.1-105.6-219.5c0,0,0,0-0.1,0
			c-89.8-31.5-188.1,15.9-219.5,105.6c-31.5,89.8,15.8,188.1,105.6,219.5c0,0,0.1,0,0.1,0C499.4,652.2,597.8,604.8,629.1,515.1
			L629.1,515.1z"/>
		<path class="st53" d="M628.5,514.8C597.3,604.2,499.4,651.4,410,620.1c-0.1,0-0.1,0-0.2-0.1c-89.4-31.3-136.5-129.2-105.2-218.6
			c31.3-89.4,129.1-136.5,218.5-105.3c0.1,0,0.1,0,0.2,0.1C612.7,327.5,659.8,425.4,628.5,514.8z M630.5,515.5
			C662.1,425,614.5,326,524,294.3s-189.6,16-221.4,106.5s16,189.5,106.5,221.3S598.8,606,630.5,515.5L630.5,515.5z"/>
		<path class="st54" d="M629.8,515.3C598.3,605.4,499.6,653,409.4,621.4C319.2,589.8,271.8,491.1,303.3,401
			c31.6-90.2,130.2-137.7,220.4-106.2C614,326.5,661.4,425.2,629.8,515.3z M631.8,516c31.9-91.2-16.2-191.1-107.4-223
			c-91.2-32-191.1,16-223,107.2c0,0,0,0.1,0,0.1c-31.9,91.2,16.2,191.1,107.4,223c91.2,32,191.1-16,223-107.2
			C631.8,516.1,631.8,516,631.8,516L631.8,516z"/>
		<path class="st54" d="M631.1,515.8C599.3,606.6,499.8,654.5,409,622.7C318.1,590.9,270.2,491.4,302,400.5
			c31.8-90.9,131.3-138.7,222.1-106.9C615,325.4,663,424.9,631.1,515.8z M633.1,516.5c32.2-92-16.3-192.6-108.2-224.9
			s-192.6,16.3-224.8,108.2s16.3,192.6,108.2,224.9C500.3,656.9,600.9,608.4,633.1,516.5L633.1,516.5z"/>
		<path class="st54" d="M632.4,516.2c-32,91.6-132.3,139.9-223.9,107.8c0,0-0.1,0-0.1,0C317,591.9,268.6,491.7,300.8,400.1
			c32-91.6,132.3-139.9,223.9-107.8c0,0,0.1,0,0.1,0C616.2,324.3,664.5,424.6,632.4,516.2z M634.4,516.9
			c32.5-92.7-16.3-194.1-109-226.6s-194.2,16.4-226.6,109.1s16.3,194.1,109,226.6S602,609.6,634.4,516.9L634.4,516.9z"/>
		<path class="st54" d="M633.8,516.6C601.4,609,500.3,657.6,408,625.3S267,492,299.4,399.6s133.4-141,225.7-108.6
			C617.4,323.3,666.1,424.3,633.8,516.6C633.8,516.6,633.8,516.6,633.8,516.6z M635.7,517.3C668.4,424,619.2,321.8,525.8,289
			s-195.6,16.5-228.3,110S314,594.6,407.3,627.3S603,610.8,635.7,517.3L635.7,517.3z"/>
		<path class="st55" d="M635.1,517.2c-32.6,93-134.5,142-227.5,109.4c-93-32.5-142.1-134.3-109.6-227.3c0,0,0-0.1,0-0.1
			c32.6-93,134.5-142,227.5-109.4C618.6,322.2,667.6,424,635.1,517.2C635.1,517.1,635.1,517.1,635.1,517.2z M637.1,517.8
			c32.9-94.1-16.7-197.2-110.8-230.1c-94.1-33-197.2,16.6-230.2,110.7c-32.9,94.1,16.7,197.2,110.8,230.1S604,612,637.1,517.8
			L637.1,517.8z"/>
		<path class="st56" d="M636.3,517.6C603.5,611.4,500.9,660.7,407.1,628S264,492.5,296.8,398.7s135.5-143.1,229.3-110.3
			S669.2,423.8,636.3,517.6z M638.3,518.3c33.2-94.8-16.8-198.7-111.7-231.8S328.1,303.2,294.8,398s16.8,198.7,111.6,231.8
			S605.1,613.1,638.3,518.3L638.3,518.3z"/>
		<path class="st56" d="M637.6,518c-33.1,94.6-136.5,144.3-231,111.2s-144.2-136.5-111.1-231S432,253.9,526.5,287
			S670.7,423.5,637.6,518z M639.6,518.7c33.4-95.5-16.8-200.1-112.4-233.6S327,302,293.5,397.6S310.4,597.7,406,631.2
			S606.2,614.3,639.6,518.7L639.6,518.7z"/>
		<path class="st56" d="M639,518.5c-33.3,95.2-137.5,145.4-232.7,112c-95.2-33.3-145.4-137.5-112-232.7c0,0,0,0,0-0.1
			c33.3-95.2,137.5-145.4,232.7-112C622.2,319.1,672.3,423.3,639,518.5C639,518.5,639,518.5,639,518.5z M641,519.2
			c33.7-96.3-17-201.7-113.3-235.4s-201.7,17-235.4,113.3s17,201.8,113.3,235.5S607.2,615.5,641,519.2L641,519.2z"/>
		<path class="st56" d="M640.3,519c-33.6,95.9-138.7,146.5-234.5,112.9s-146.5-138.6-113-234.5s138.7-146.5,234.5-112.9
			S673.8,423,640.3,519z M642.2,519.7c34-97-17.1-203.2-114.2-237.2S325,299.7,291,396.6s17.1,203.2,114.1,237.2
			S608.2,616.7,642.2,519.7L642.2,519.7z"/>
		<path class="st57" d="M641.6,519.4C607.8,616,502,667,405.4,633.2c0,0-0.1,0-0.1,0c-96.6-33.8-147.5-139.6-113.7-236.2
			c33.8-96.6,139.6-147.6,236.2-113.8c0,0,0.1,0,0.1,0C624.5,317,675.4,422.8,641.6,519.4z M643.6,520.1
			c34.2-97.7-17.2-204.7-115-238.9c0,0,0,0,0,0c-97.7-34.2-204.8,17.3-239,115s17.3,204.7,115,238.9S609.4,617.8,643.6,520.1
			L643.6,520.1z"/>
		<path class="st58" d="M642.9,519.9c-34.1,97.3-140.6,148.6-238,114.6S256.1,493.8,290.3,396.4s140.6-148.6,238-114.5
			S677,422.5,642.9,519.9z M644.9,520.6c34.4-98.5-17.5-206.2-115.9-240.7s-206.2,17.4-240.7,115.8s17.5,206.2,115.9,240.7
			S610.4,619,644.9,520.6L644.9,520.6z"/>
		<path class="st58" d="M644.2,520.3c-34.3,98.1-141.7,149.8-239.7,115.5S254.6,494,289,396s141.7-149.8,239.8-115.5
			S678.6,422.3,644.2,520.3z M646.2,521c34.7-99.2-17.5-207.7-116.7-242.4S321.7,296.1,287,395.3S304.5,603,403.7,637.7
			S611.4,620.2,646.2,521L646.2,521z"/>
		<path class="st58" d="M645.5,520.8c-34.6,98.9-142.7,150.9-241.6,116.3S253,494.3,287.7,395.5s142.7-150.9,241.6-116.3
			S680.1,422,645.5,520.8z M647.5,521.5c35-99.9-17.6-209.2-117.5-244.2s-209.2,17.7-244.2,117.6s17.6,209.2,117.5,244.2
			S612.4,621.3,647.5,521.5L647.5,521.5z"/>
		<path class="st59" d="M646.8,521.3c-34.9,99.5-143.8,152-243.4,117.1S251.5,494.5,286.3,395s143.8-151.9,243.4-117.1
			S681.6,421.7,646.8,521.3z M648.7,522C684,421.3,631,311.2,530.4,276s-210.8,17.8-245.9,118.4s17.7,210.8,118.4,246
			S613.6,622.5,648.7,522L648.7,522z"/>
		<path class="st60" d="M648.1,521.7C613,621.9,503.3,674.8,403,639.7S250,494.8,285,394.6s144.8-153.1,245.1-117.9
			S683.2,421.5,648.1,521.7z M650.1,522.4c35.4-101.4-18-212.2-119.3-247.7S318.5,292.5,283,393.9s18,212.2,119.3,247.7
			S614.6,623.8,650.1,522.4L650.1,522.4z"/>
		<path class="st60" d="M649.4,522.1c-35.3,101-145.9,154.2-246.9,118.8S248.4,495.1,283.7,394.1s145.9-154.2,246.9-118.8
			S684.7,421.2,649.4,522.1z M651.4,522.8c35.7-102-18.1-213.8-120.1-249.5s-213.8,18.1-249.6,120.1s18,213.8,120.1,249.5
			S615.6,624.9,651.4,522.8L651.4,522.8z"/>
		<path class="st60" d="M650.7,522.7c-35.6,101.7-146.9,155.3-248.6,119.7c-101.7-35.6-155.3-147-119.7-248.7
			C318,291.9,429.4,238.4,531,274C632.7,309.6,686.3,420.9,650.7,522.7z M652.7,523.3c36-102.8-18.1-215.3-121-251.3
			S316.5,290.2,280.5,393s18.1,215.3,121,251.2S616.7,626.1,652.7,523.3L652.7,523.3z"/>
		<path class="st60" d="M652,523.1C616.1,625.5,504,679.5,401.7,643.6S245.2,495.7,281.1,393.2s147.9-156.4,250.3-120.5
			S687.8,420.6,652,523.1z M654,523.8c36.3-103.5-18.3-216.8-121.8-253.1s-216.8,18.3-253,121.8S297.5,609.3,401,645.6
			S617.8,627.3,654,523.8z"/>
		<path class="st61" d="M653.4,523.5C617.2,626.7,504.3,681,401.1,644.9s-157.5-149-121.4-252.1s149-157.5,252.2-121.4
			S689.5,420.4,653.4,523.5z M655.3,524.2C691.8,420,636.9,306,532.7,269.4s-218.3,18.4-254.8,122.7s18.4,218.3,122.6,254.8
			S618.8,628.5,655.3,524.2L655.3,524.2z"/>
		<path class="st62" d="M654.7,524c-36.4,103.9-150.1,158.5-253.9,122.2s-158.6-150-122.2-253.8s150.1-158.6,253.9-122.2
			S691,420.1,654.7,524z M656.5,524.6c36.8-104.9-18.5-219.8-123.4-256.5s-219.8,18.6-256.6,123.5S295.1,611.4,400,648.1
			S619.8,629.6,656.5,524.6L656.5,524.6z"/>
		<path class="st62" d="M656,524.5c-36.6,104.5-151.1,159.6-255.7,123s-159.7-151-123.1-255.6s151.1-159.6,255.7-123
			S692.6,419.8,656,524.5z M658,525.2c37-105.6-18.7-221.4-124.4-258.3s-221.3,18.7-258.3,124.3s18.6,221.3,124.4,258.3
			S620.9,630.8,658,525.2z"/>
		<path class="st62" d="M657.2,524.9c-36.9,105.3-152.2,160.8-257.5,124S239,496.7,276,391.4s152.1-160.8,257.4-124
			S694.1,419.6,657.2,524.9z M659.2,525.6c37.2-106.3-18.8-222.8-125.2-260S311.1,284.3,274,390.7s18.8,222.8,125.2,260
			S622,632,659.2,525.6L659.2,525.6z"/>
		<path class="st63" d="M658.5,525.3c-37.1,106.1-153.2,162-259.2,124.8S237.5,497,274.6,391s153.2-162,259.2-124.9
			S695.7,419.3,658.5,525.3z M660.5,526c37.5-107.1-18.9-224.3-126-261.8s-224.4,19-261.8,126.1s18.9,224.3,126,261.8
			S623,633.1,660.5,526L660.5,526z"/>
		<path class="st63" d="M659.8,525.8c-37.3,106.8-154.1,163-260.9,125.6s-163-154.2-125.6-261s154.1-163,260.9-125.6
			S697.2,419.1,659.8,525.8z M661.8,526.5c37.7-107.9-19-225.9-126.9-263.6S309.1,282,271.4,389.8s19,225.9,126.9,263.6
			S624.1,634.3,661.8,526.5L661.8,526.5z"/>
		<path class="st64" d="M661.2,526.3C623.5,633.7,506,690.4,398.4,652.7S234.4,497.5,272,390s155.3-164.1,262.8-126.5
			S698.8,418.8,661.2,526.3z M663.1,527c38.1-108.6-19.1-227.4-127.7-265.4s-227.4,19.2-265.4,127.7s19.2,227.4,127.6,265.4
			S625.1,635.5,663.1,527L663.1,527z"/>
		<path class="st64" d="M662.5,526.7C624.6,634.9,506.2,691.9,398,654S232.8,497.7,270.7,389.6S427,224.4,535.2,262.3
			S700.4,418.6,662.5,526.7z M664.5,527.4c38.2-109.3-19.4-228.8-128.6-267.1S307,279.6,268.7,388.9S288,617.7,397.3,656
			S626.2,636.7,664.5,527.4L664.5,527.4z"/>
		<path class="st65" d="M663.8,527.2c-38.2,108.9-157.3,166.3-266.2,128.2S231.2,498,269.4,389.1s157.3-166.3,266.2-128.2
			S702,418.3,663.8,527.2z M665.8,527.9c38.5-110-19.4-230.4-129.5-268.9S306,278.4,267.4,388.4s19.4,230.4,129.5,268.9
			S627.2,637.8,665.8,527.9L665.8,527.9z"/>
		<path class="st65" d="M665.1,527.6c-38.3,109.6-158.3,167.4-268,129s-167.4-158.4-128.9-268s158.4-167.4,268-129
			S703.5,418,665.1,527.6z M667.1,528.3c38.8-110.7-19.6-231.9-130.2-270.7S304.9,277.2,266.1,388s19.6,231.9,130.2,270.7
			S628.3,639,667.1,528.3L667.1,528.3z"/>
		<path class="st65" d="M666.3,528.1C627.8,638.4,507,696.6,396.6,658S228.1,498.5,266.8,388.2s159.4-168.5,269.7-129.9
			S705,417.8,666.3,528.1z M668.3,528.8c39-111.4-19.7-233.4-131.1-272.4S303.8,276,264.8,387.5S284.5,620.9,396,659.9
			S629.3,640.3,668.3,528.8L668.3,528.8z"/>
		<path class="st66" d="M667.7,528.6c-38.9,111.1-160.5,169.6-271.6,130.7S226.6,498.8,265.4,387.7S426,218.1,537,257
			S706.6,417.5,667.7,528.6z M669.6,529.3c39.3-112.2-19.8-234.9-132-274.2S302.7,274.9,263.5,387s19.8,234.9,132,274.2
			S630.4,641.4,669.6,529.3z"/>
		<path class="st67" d="M669,529c-39.2,111.8-161.5,170.7-273.4,131.5S225,499.1,264.1,387.3s161.5-170.7,273.3-131.5
			S708.1,417.2,669,529z M671,529.7c39.5-112.9-20-236.4-132.9-275.9s-236.4,19.9-275.9,132.8S282.1,623,395,662.5
			S631.4,642.6,671,529.7L671,529.7z"/>
		<path class="st67" d="M670.3,529.5C631,642,507.7,701.3,395.2,661.9S223.5,499.4,262.8,386.8S425.4,215,538,254.5
			S709.7,416.9,670.3,529.5z M672.3,530.1c39.8-113.5-20.1-237.9-133.7-277.6s-238,20-277.8,133.7S281,624.1,394.5,663.8
			S632.5,643.8,672.3,530.1L672.3,530.1z"/>
		<path class="st68" d="M671.6,530C632,643.2,508,702.8,394.8,663.2S222,499.6,261.5,386.3s163.6-172.9,276.8-133.2
			S711.2,416.7,671.6,530z M673.6,530.7c40-114.3-20.2-239.5-134.5-279.5s-239.4,20.1-279.5,134.4s20.2,239.5,134.5,279.5
			S633.5,645,673.6,530.7L673.6,530.7z"/>
		<path class="st69" d="M672.9,530.4c-39.9,114-164.6,174-278.5,134.1S220.3,499.9,260.3,385.9s164.6-174,278.5-134.1
			S712.9,416.4,672.9,530.4z M674.9,531.1c40.3-115-20.3-241-135.4-281.3s-241,20.4-281.2,135.4s20.3,241,135.4,281.3
			S634.6,646.1,674.9,531.1L674.9,531.1z"/>
		<path class="st69" d="M674.3,530.8c-40.2,114.7-165.7,175.1-280.4,135s-175.1-165.6-135-280.3s165.7-175.1,280.4-135
			S714.4,416.1,674.3,530.8z M676.1,531.5c40.6-115.7-20.5-242.4-136.2-283S297.5,269,257,384.8s20.5,242.4,136.2,283
			S635.7,647.3,676.1,531.5z"/>
		<path class="st70" d="M675.5,531.3c-40.4,115.4-166.8,176.1-282.1,135.7S217.2,500.4,257.6,384.9s166.8-176.1,282.1-135.7
			S716,415.9,675.5,531.3z M677.5,532c40.7-116.5-20.6-244-137.1-284.8s-244,20.5-284.8,137s20.6,244,137.1,284.8
			S636.7,648.5,677.5,532L677.5,532z"/>
		<path class="st71" d="M676.8,531.8C636.2,647.9,509,709,393,668.5S215.6,500.6,256.3,384.5s167.8-177.3,283.8-136.6
			S717.5,415.6,676.8,531.8z M678.8,532.5c41-117.3-20.7-245.5-138-286.5s-245.4,20.7-286.5,137.9s20.7,245.5,138,286.5
			S637.7,649.6,678.8,532.5L678.8,532.5z"/>
		<path class="st71" d="M678.1,532.2c-40.9,116.9-168.7,178.5-285.6,137.5S214.1,500.9,255,384.1s168.7-178.4,285.7-137.5
			S719,415.4,678.1,532.2z M680.1,532.9c41.3-117.9-20.8-247-138.8-288.2s-247,20.8-288.3,138.7s20.8,247,138.7,288.2
			S638.8,650.8,680.1,532.9L680.1,532.9z"/>
		<path class="st72" d="M679.4,532.7C638.3,650.2,509.6,712.2,392,671S212.5,501.2,253.7,383.6s169.8-179.5,287.4-138.3
			S720.6,415.1,679.4,532.7z M681.4,533.4c41.5-118.7-21-248.5-139.6-290.1s-248.5,21-290,139.6s21,248.5,139.6,290.1
			S639.9,652,681.4,533.4L681.4,533.4z"/>
		<path class="st73" d="M680.8,533.1c-41.4,118.3-170.9,180.6-289.2,139.2S211,501.4,252.4,383.1S423.2,202.5,541.5,244
			S722.1,414.9,680.8,533.1z M682.7,533.8c41.9-119.4-21.1-250.1-140.5-291.8s-250,21.1-291.8,140.5s21.1,250,140.5,291.8
			S640.9,653.2,682.7,533.8L682.7,533.8z"/>
		<path class="st73" d="M682.1,533.6c-41.7,119.1-171.9,181.7-291,140s-181.6-171.9-140-290.9S423,201,542,242.7
			S723.7,414.6,682.1,533.6z M684.1,534.3c42-120.1-21.2-251.5-141.3-293.6S291.2,261.9,249.1,382s21.2,251.5,141.3,293.6
			S642,654.3,684.1,534.3L684.1,534.3z"/>
		<path class="st74" d="M683.4,534.1c-41.9,119.7-173,182.8-292.7,140.8s-182.8-173-140.9-292.6s173-182.8,292.7-140.9
			S725.3,414.3,683.4,534.1z M685.4,534.8c42.3-120.9-21.4-253.1-142.2-295.4s-253.1,21.3-295.4,142.2s21.4,253,142.2,295.3
			S643.1,655.5,685.4,534.8L685.4,534.8z"/>
		<path class="st75" d="M684.7,534.5c-42.1,120.5-174,183.9-294.4,141.8S206.3,502.2,248.5,381.8s174-183.9,294.4-141.8
			S726.9,414.1,684.7,534.5z M686.7,535.2c42.5-121.5-21.5-254.5-143-297.1s-254.5,21.4-297.1,143s21.5,254.5,143,297.1
			S644.1,656.8,686.7,535.2L686.7,535.2z"/>
		<path class="st75" d="M686,535c-42.4,121.2-175,185-296.2,142.6s-185-175.1-142.5-296.2s175-185,296.2-142.6S728.4,413.8,686,535z
			 M688,535.7c42.8-122.2-21.6-256.1-143.8-298.9s-256.1,21.7-298.9,143.9s21.6,256.1,143.8,298.9S645.1,657.9,688,535.7L688,535.7z
			"/>
		<path class="st76" d="M687.3,535.4c-42.7,122-176.1,186.2-298,143.5s-186.1-176-143.5-298s176.1-186,298-143.4
			S730,413.5,687.3,535.4z M689.2,536.1c43.1-122.9-21.7-257.5-144.7-300.6S287,257.2,244,380.2s21.7,257.5,144.7,300.6
			S646.1,659.1,689.2,536.1z"/>
		<path class="st77" d="M688.6,535.9c-43,122.6-177.2,187.2-299.8,144.2S201.6,503,244.5,380.4s177.2-187.2,299.8-144.3
			S731.5,413.2,688.6,535.9z M690.6,536.6c43.2-123.7-22-259.1-145.7-302.4S285.9,256,242.5,379.7s21.9,259.1,145.6,302.4
			S647.3,660.3,690.6,536.6L690.6,536.6z"/>
		<path class="st77" d="M689.9,536.3c-43.2,123.4-178.2,188.3-301.6,145.1S200.1,503.3,243.2,380s178.2-188.3,301.5-145.1
			S733.1,413,689.9,536.3z M691.9,537c43.5-124.4-22-260.5-146.4-304.1s-260.6,22-304.2,146.4s22,260.5,146.4,304.1
			S648.3,661.4,691.9,537L691.9,537z"/>
		<path class="st78" d="M691.2,536.8C647.8,660.9,512,726.2,388,682.8S198.5,503.6,242,379.5s179.2-189.5,303.3-146
			S734.6,412.7,691.2,536.8z M693.2,537.4C737,412.4,671.1,275.3,546,231.6s-262.2,22.1-306,147.3S262,640.9,387.2,684.7
			S649.3,662.6,693.2,537.4L693.2,537.4z"/>
		<path class="st78" d="M692.5,537.3c-43.7,124.7-180.3,190.5-305,146.8S197,503.8,240.7,379s180.3-190.5,305-146.8
			S736.2,412.5,692.5,537.3z M694.5,538c44.1-125.9-22.3-263.6-148.1-307.8s-263.6,22.3-307.7,148.1S261,642,386.8,686.1
			S650.4,663.8,694.5,538L694.5,538z"/>
		<path class="st78" d="M693.8,537.7C649.8,663.2,512.5,729.3,387,685.4S195.4,504.1,239.4,378.6S420.7,187,546.2,230.9
			S737.8,412.2,693.8,537.7z M695.8,538.4c44.4-126.5-22.3-265.1-148.9-309.5s-265.2,22.4-309.5,149S259.8,643,386.3,687.4
			S651.5,665,695.8,538.4L695.8,538.4z"/>
		<path class="st79" d="M695.1,538.1C651,664.4,512.7,730.8,386.5,686.7S193.8,504.4,238,378.1s182.4-192.7,308.6-148.5
			S739.3,411.9,695.1,538.1z M697,538.8c44.6-127.3-22.4-266.6-149.7-311.2s-266.7,22.5-311.2,149.8S258.5,644,385.9,688.7
			S652.5,666.1,697,538.8z"/>
		<path class="st79" d="M696.4,538.6C652,665.5,513.1,732.4,386.1,688S192.3,504.6,236.7,377.6S420.1,183.9,547,228.3
			S740.9,411.7,696.4,538.6z M698.4,539.3c44.8-128.1-22.6-268.2-150.7-313S279.6,249,234.7,377s22.6,268.2,150.7,313
			S653.5,667.3,698.4,539.3L698.4,539.3z"/>
		<path class="st79" d="M697.7,539.1c-44.7,127.7-184.4,195-312.1,150.3S190.7,504.9,235.4,377.2s184.4-195,312.1-150.2
			S742.4,411.4,697.7,539.1z M699.7,539.8c45-128.8-22.8-269.7-151.5-314.7s-269.7,22.7-314.8,151.5S256.2,646.2,385,691.2
			S654.6,668.5,699.7,539.8L699.7,539.8z"/>
		<path class="st80" d="M699,539.5c-45,128.4-185.4,196.1-313.9,151.1s-196-185.5-151-313.8S419.5,180.7,548,225.7
			S744,411.2,699,539.5z M701,540.2c45.3-129.5-22.9-271.1-152.3-316.5s-271.2,23-316.5,152.4S255,647.2,384.5,692.6
			S655.7,669.7,701,540.2L701,540.2z"/>
		<path class="st81" d="M700.3,540c-45.1,129.1-186.5,197.1-315.6,151.9S187.6,505.4,232.8,376.3s186.4-197.1,315.6-151.9
			S745.5,410.9,700.3,540z M702.3,540.7c45.7-130.2-23-272.7-153.2-318.3s-272.7,23-318.2,153.2s23,272.7,153.2,318.3
			S656.7,670.8,702.3,540.7L702.3,540.7z"/>
		<path class="st81" d="M701.7,540.5c-45.5,129.8-187.6,198.2-317.4,152.8S186.1,505.6,231.5,375.8S419,177.6,548.8,223.1
			S747.1,410.6,701.7,540.5z M703.6,541.1c45.9-130.9-23.1-274.2-154-320s-274.1,23.1-320,154s23.1,274.2,154,320
			S657.8,672.1,703.6,541.1L703.6,541.1z"/>
		<path class="st82" d="M703,540.9c-45.7,130.6-188.6,199.3-319.2,153.6S184.4,505.9,230.2,375.4s188.6-199.3,319.2-153.6
			S748.7,410.4,703,540.9z M705,541.6C751,410,681.7,265.9,550.1,219.8S274.4,243,228.2,374.7s23.3,275.7,154.9,321.8
			S658.8,673.3,705,541.6z"/>
		<path class="st83" d="M704.3,541.4c-46,131.3-189.6,200.4-320.9,154.5s-200.5-189.7-154.5-321s189.6-200.4,320.9-154.5
			S750.2,410.1,704.3,541.4z M706.3,542.1c46.3-132.4-23.4-277.2-155.8-323.6S273.2,241.9,227,374.2s23.4,277.2,155.8,323.6
			S659.9,674.4,706.3,542.1L706.3,542.1z"/>
		<path class="st83" d="M705.5,541.8c-46.2,132-190.7,201.5-322.6,155.3S181.4,506.5,227.6,374.5S418.3,173,550.2,219.1
			S751.8,409.8,705.5,541.8z M707.5,542.5c46.6-133.1-23.6-278.7-156.6-325.3s-278.7,23.5-325.3,156.5s23.6,278.8,156.6,325.4
			S661,675.6,707.5,542.5L707.5,542.5z"/>
		<path class="st84" d="M706.8,542.3C660.4,675,515.1,744.9,382.4,698.4S179.8,506.8,226.3,374S418,171.4,550.7,217.8
			S753.3,409.5,706.8,542.3z M708.8,542.9c46.8-133.8-23.6-280.2-157.4-327.1s-280.3,23.6-327.1,157.5S248,653.6,381.7,700.4
			S662,676.8,708.8,542.9L708.8,542.9z"/>
		<path class="st85" d="M708.2,542.8c-46.8,133.4-192.8,203.7-326.3,157S178.3,507,225,373.5s192.8-203.7,326.2-157
			S754.9,409.3,708.2,542.8z M710.1,543.5c47.1-134.5-23.7-281.8-158.3-328.9S270.1,238.4,223,372.8s23.7,281.8,158.3,328.9
			S663,677.9,710.1,543.5z"/>
		<path class="st85" d="M709.5,543.2c-47,134.2-193.8,204.8-328,157.8S176.7,507.3,223.6,373.1s193.9-204.8,327.9-157.8
			S756.4,409,709.5,543.2z M711.5,543.9c47.3-135.2-23.9-283.3-159.2-330.6s-283.2,23.9-330.6,159.1S245.6,655.6,380.9,703
			S664.1,679.1,711.5,543.9L711.5,543.9z"/>
		<path class="st86" d="M710.8,543.6C663.6,678.5,516,749.6,381,702.4S175.2,507.5,222.4,372.6s194.9-206,329.8-158.6
			S758,408.8,710.8,543.6z M712.8,544.3c47.6-135.9-24.1-284.7-160-332.3S268,236,220.4,372s24.1,284.8,160,332.3
			S665.1,680.3,712.8,544.3L712.8,544.3z"/>
		<path class="st87" d="M712.1,544.1c-47.5,135.6-195.9,207-331.5,159.5s-207-195.9-159.5-331.5s195.9-207,331.5-159.6
			S759.5,408.5,712.1,544.1z M714.1,544.8c47.9-136.7-24.2-286.3-160.9-334.1S267,234.8,219.1,371.5S243.2,657.8,380,705.6
			S666.2,681.5,714.1,544.8L714.1,544.8z"/>
		<path class="st87" d="M713.4,544.6C665.7,680.9,516.4,752.7,380.2,705S172,508,219.8,371.7S416.7,163.6,553,211.3
			S761.2,408.2,713.4,544.6z M715.4,545.3c48.1-137.5-24.2-287.8-161.7-335.9S265.9,233.6,217.8,371S242,658.8,379.5,707
			S667.3,682.6,715.4,545.3L715.4,545.3z"/>
		<path class="st88" d="M714.7,545c-48,137-198,209.2-335.1,161.3s-209.2-198-161.3-335s198-209.2,335.1-161.3S762.7,408,714.7,545z
			 M716.6,545.7C765,407.5,692.2,256.4,554.2,208s-289.3,24.4-337.7,162.6S241,659.8,379,708.2S668.3,683.8,716.6,545.7L716.6,545.7
			z"/>
		<path class="st89" d="M716,545.5c-48.2,137.7-199,210.3-336.8,162s-210.3-199-162.1-336.7s199-210.3,336.9-162.1
			S764.3,407.7,716,545.5z M718,546.2c48.6-138.9-24.6-290.8-163.4-339.5s-290.8,24.5-339.5,163.4S239.7,661,378.5,709.5
			S669.4,685,718,546.2L718,546.2z"/>
		<path class="st90" d="M717.3,546c-48.5,138.5-200,211.5-338.5,162.9s-211.5-200-163-338.5s200-211.4,338.5-162.9
			S765.8,407.5,717.3,546z M719.3,546.7C768.1,407,694.6,254.3,555,205.5s-292.3,24.7-341.2,164.2S238.5,662,378.1,710.8
			S670.4,686.2,719.3,546.7L719.3,546.7z"/>
		<path class="st91" d="M718.6,546.4C669.9,685.6,517.5,759,378.3,710.2S165.8,509.1,214.5,369.9s201.1-212.6,340.3-163.8
			S767.4,407.2,718.6,546.4z M720.6,547.1c49.1-140.3-24.8-293.8-165-342.9s-293.9,24.8-343,165s24.8,293.8,165,342.9
			S671.5,687.4,720.6,547.1L720.6,547.1z"/>
		<path class="st92" d="M719.9,546.8c-49,139.9-202.1,213.7-342,164.7s-213.6-202.2-164.6-342s202.1-213.7,342-164.7
			S768.9,407,719.9,546.8z M721.9,547.5c49.3-141-24.9-295.3-165.9-344.7s-295.4,24.9-344.7,166s24.9,295.3,165.9,344.7
			S672.5,688.6,721.9,547.5L721.9,547.5z"/>
		<path class="st92" d="M721.3,547.3C672,688,518.1,762.1,377.4,712.8S162.7,509.6,211.9,369s203.2-214.8,343.9-165.5
			S770.4,406.7,721.3,547.3z M723.2,548c49.7-141.8-25-296.9-166.8-346.5S259.6,226.6,210,368.3s25,296.9,166.8,346.5
			S673.6,689.8,723.2,548L723.2,548z"/>
		<path class="st93" d="M722.6,547.8C673.1,689.2,518.3,763.6,377,714.1S161.1,509.9,210.6,368.5s204.2-215.9,345.7-166.3
			S772.1,406.4,722.6,547.8z M724.6,548.4C774.4,406,699.4,250.1,557,200.2s-298.4,25.2-348.4,167.6s25.2,298.4,167.6,348.2
			S674.6,690.9,724.6,548.4L724.6,548.4z"/>
		<path class="st94" d="M723.9,548.2c-49.8,142.1-205.3,217-347.4,167.2s-217-205.2-167.2-347.3s205.3-217,347.4-167.2
			S773.6,406.2,723.9,548.2z M725.9,548.9c50.1-143.1-25.4-299.9-168.5-350s-299.9,25.3-350,168.5s25.4,299.8,168.5,350
			S675.7,692.1,725.9,548.9L725.9,548.9z"/>
		<path class="st94" d="M725.1,548.7c-50,142.8-206.3,218-349.1,168.1S158,510.5,208,367.6s206.3-218,349.1-168
			S775.2,405.8,725.1,548.7z M727.1,549.4c50.4-143.9-25.5-301.4-169.4-351.8S256.4,223,206,366.9s25.5,301.4,169.3,351.8
			S676.8,693.3,727.1,549.4L727.1,549.4z"/>
		<path class="st95" d="M726.4,549.1C676.2,692.7,519.1,768.3,375.5,718S156.4,510.7,206.7,367.1S414,148,557.6,198.2
			S776.7,405.6,726.4,549.1z M728.4,549.8c50.6-144.6-25.5-302.9-170.1-353.6s-303,25.6-353.6,170.2S230.3,669.4,374.9,720
			S677.8,694.4,728.4,549.8L728.4,549.8z"/>
		<path class="st95" d="M727.7,549.6c-50.5,144.3-208.4,220.3-352.6,169.8S154.9,511,205.4,366.7S413.8,146.4,558,197
			S778.3,405.3,727.7,549.6z M729.7,550.3c50.9-145.3-25.6-304.4-171-355.3s-304.4,25.7-355.3,171s25.6,304.4,171,355.3
			S678.8,695.6,729.7,550.3L729.7,550.3z"/>
		<path class="st96" d="M729.1,550.1C678.3,695,519.6,771.4,374.7,720.6S153.3,511.2,204,366.2s209.5-221.4,354.4-170.5
			S779.8,405.1,729.1,550.1z M731,550.8c51.1-146-25.8-305.9-171.8-357.1s-305.9,25.8-357,171.8S228,671.5,374,722.6
			S680,696.8,731,550.8L731,550.8z"/>
		<path class="st97" d="M730.4,550.5C679.3,696.2,519.9,773,374.2,721.9S151.8,511.5,202.8,365.8S413.3,143.3,559,194.4
			S781.4,404.8,730.4,550.5z M732.4,551.2c51.4-146.7-26-307.4-172.8-358.8s-307.4,26-358.8,172.7s26,307.4,172.8,358.8
			S681,697.9,732.4,551.2L732.4,551.2z"/>
		<path class="st97" d="M731.7,550.9c-51.2,146.5-211.6,223.6-358,172.4S150.2,511.7,201.5,365.4S413,141.8,559.4,193
			S783,404.5,731.7,550.9z M733.7,551.6c51.7-147.5-26-308.9-173.6-360.5s-308.9,26.1-360.6,173.6s26,308.9,173.6,360.5
			S682,699.1,733.7,551.6L733.7,551.6z"/>
		<path class="st98" d="M733,551.5c-51.5,147.1-212.5,224.6-359.7,173.1S148.6,512,200.2,364.8s212.5-224.6,359.7-173.1
			S784.5,404.3,733,551.5z M735,552.1c51.9-148.3-26.2-310.5-174.4-362.4s-310.4,26.2-362.3,174.4s26.2,310.5,174.4,362.4
			S683,700.3,735,552.1z"/>
		<path class="st99" d="M734.3,551.9c-51.8,147.9-213.5,225.7-361.4,174S147,512.3,198.9,364.4s213.5-225.7,361.4-174
			S786.1,404,734.3,551.9z M736.3,552.6c52.2-149-26.3-312-175.3-364.1s-312,26.3-364,175.3s26.3,312,175.3,364.1
			S684.1,701.5,736.3,552.6L736.3,552.6z"/>
		<path class="st99" d="M735.6,552.3C683.5,700.9,521,779.2,372.4,727.2S145.5,512.5,197.5,364s214.6-226.9,363.3-174.9
			S787.6,403.8,735.6,552.3z M737.5,553c52.4-149.7-26.4-313.4-176-365.9S248,213.6,195.6,363.3s26.4,313.4,176,365.9
			S685.2,702.7,737.5,553z"/>
		<path class="st100" d="M737,552.8c-52.3,149.2-215.7,227.9-365,175.6s-228-215.7-175.7-365s215.7-227.9,365-175.6
			S789.2,403.5,737,552.8z M739,553.5c52.6-150.4-26.6-315-177-367.6s-315,26.6-367.7,176.9s26.6,315,177,367.6
			S686.2,703.9,739,553.5L739,553.5z"/>
		<path class="st100" d="M738.2,553.3c-52.5,150-216.7,229.1-366.7,176.6S142.4,513,195,363s216.7-229.1,366.7-176.5
			S790.7,403.3,738.2,553.3z M740.2,553.9c52.9-151.1-26.7-316.5-177.8-369.4S246,211.2,193,362.3s26.7,316.5,177.9,369.4
			S687.2,705.1,740.2,553.9L740.2,553.9z"/>
		<path class="st100" d="M739.5,553.7C686.7,704.5,521.8,783.9,371,731.1S140.9,513.3,193.6,362.6s217.7-230.2,368.5-177.4
			S792.3,403,739.5,553.7z M741.5,554.4c53.1-151.8-26.8-318-178.6-371.1s-318.1,26.8-371.2,178.6s26.8,318,178.6,371.2
			S688.4,706.2,741.5,554.4L741.5,554.4z"/>
		<path class="st101" d="M740.8,554.2c-53,151.5-218.8,231.2-370.2,178.2S139.3,513.5,192.4,362.1s218.8-231.2,370.2-178.2
			S793.8,402.7,740.8,554.2z M742.8,554.9c53.5-152.6-26.9-319.5-179.5-373s-319.5,27-372.9,179.5s26.9,319.5,179.5,373
			S689.4,707.4,742.8,554.9L742.8,554.9z"/>
		<path class="st101" d="M742.2,554.6c-53.3,152.2-219.9,232.4-372,179.1S137.8,513.9,191,361.6s219.9-232.4,372-179.1
			S795.4,402.5,742.2,554.6z M744.1,555.3C797.8,402,717,234.3,563.7,180.6s-321,27.1-374.6,180.4s27.1,321,180.3,374.7
			S690.4,708.6,744.1,555.3z"/>
		<path class="st101" d="M743.5,555.1C689.9,708,522.5,788.5,369.6,735S136.1,514.1,189.7,361.2s220.9-233.5,373.8-179.9
			S797,402.1,743.5,555.1z M745.5,555.8c53.9-154-27.3-322.5-181.2-376.4s-322.5,27.2-376.5,181.2S215,683.1,369,737
			S691.4,709.8,745.5,555.8L745.5,555.8z"/>
		<path class="st102" d="M744.7,555.6c-53.8,153.6-222,234.5-375.6,180.8S134.6,514.4,188.4,360.7S410.4,126.2,564,180
			S798.6,401.9,744.7,555.6z M746.7,556.3c54.1-154.7-27.4-324.1-182.1-378.3s-324.1,27.4-378.2,182.1s27.3,324,182.1,378.1
			S692.6,710.9,746.7,556.3L746.7,556.3z"/>
		<path class="st102" d="M746,556C692,710.3,523,791.6,368.7,737.6S133,514.6,187.1,360.3s223-235.6,377.3-181.6
			S800.1,401.6,746,556z M748,556.7c54.4-155.4-27.5-325.5-182.9-380s-325.5,27.4-380,182.8s27.5,325.5,182.9,380
			S693.6,712.1,748,556.7L748,556.7z"/>
		<path class="st102" d="M747.3,556.4c-54.2,155.1-224,236.8-379.1,182.5s-236.7-224-182.4-379.1s224-236.7,379.1-182.5
			S801.7,401.4,747.3,556.4z M749.3,557.1C804,401,721.7,230,565.6,175.4S238.5,203,183.8,359.2s27.6,327.1,183.7,381.8
			S694.6,713.3,749.3,557.1L749.3,557.1z"/>
		<path class="st103" d="M748.7,557c-54.6,155.7-225.1,237.8-380.9,183.2S130,515.2,184.4,359.4s225.1-237.9,380.9-183.4
			S803.2,401.1,748.7,557z M750.6,557.6C805.5,400.8,723,229,566,174.1s-328.6,27.8-383.5,184.7s27.7,328.5,184.6,383.5
			S695.7,714.4,750.6,557.6L750.6,557.6z"/>
		<path class="st104" d="M750,557.4c-54.8,156.5-226.2,239-382.6,184.1s-239-226.1-184.2-382.6s226.2-239,382.6-184.1
			S804.7,400.9,750,557.4z M752,558.1c55.1-157.6-27.8-330.1-185.5-385.3s-330.1,27.9-385.3,185.4S209,688.3,366.7,743.5
			S696.8,715.6,752,558.1z"/>
		<path class="st104" d="M751.3,557.8c-55,157.2-227.1,240.1-384.4,185s-240-227.1-185-384.3s227.1-240.1,384.4-185
			S806.3,400.6,751.3,557.8z M753.3,558.5c55.5-158.3-28-331.5-186.3-387s-331.7,27.9-387.1,186.3s28,331.5,186.3,387
			S697.8,716.8,753.3,558.5L753.3,558.5z"/>
		<path class="st105" d="M752.6,558.2c-55.3,158-228.1,241.2-386.1,185.9S125.2,516,180.6,358s228.1-241.2,386.1-185.9
			S808,400.3,752.6,558.2z M754.6,558.9c55.7-159-28.1-333.1-187.1-388.7s-333.1,28-388.8,187.1s28.1,333.1,187.1,388.7
			S698.8,718,754.6,558.9L754.6,558.9z"/>
		<path class="st105" d="M753.9,558.8C698.3,717.4,524.7,801,366,745.5s-242.3-229.3-186.7-388s229.2-242.2,387.9-186.7
			S809.5,400.1,753.9,558.8z M755.9,559.5c56-159.8-28.2-334.6-188-390.6s-334.6,28.3-390.5,188s28.2,334.6,188,390.6
			S699.9,719.2,755.9,559.5L755.9,559.5z"/>
		<path class="st105" d="M755.2,559.2C699.4,718.6,525,802.5,365.5,746.8S122.1,516.5,178,357.1s230.2-243.4,389.7-187.6
			S811,399.8,755.2,559.2z M757.1,559.9c56.2-160.5-28.4-336.1-188.8-392.3S232.1,195.9,176,356.4s28.4,336.1,188.8,392.3
			S701,720.4,757.1,559.9L757.1,559.9z"/>
		<path class="st106" d="M756.5,559.6C700.5,719.8,525.2,804.1,365,748S120.6,516.7,176.6,356.7S408,112.2,568.1,168.2
			S812.6,399.6,756.5,559.6z M758.5,560.3c56.4-161.2-28.5-337.6-189.7-394S231.1,194.7,174.6,356s28.5,337.5,189.7,394
			S702,721.6,758.5,560.3L758.5,560.3z"/>
		<path class="st107" d="M757.8,560.1C701.5,721,525.5,805.7,364.6,749.3S119,517,175.3,356.1S407.7,110.6,568.5,167
			S814.1,399.3,757.8,560.1z M759.8,560.8c56.7-162-28.6-339.2-190.6-395.9s-339.1,28.6-395.9,190.5S202,694.7,364,751.3
			S703.1,722.7,759.8,560.8L759.8,560.8z"/>
		<path class="st107" d="M759.1,560.6c-56.6,161.6-233.4,246.7-395,190.1S117.5,517.2,174,355.7S407.4,109,569,165.6
			S815.7,399,759.1,560.6z M761.1,561.3c56.9-162.6-28.7-340.7-191.4-397.6S229.1,192.4,172.1,355s28.7,340.7,191.4,397.6
			S704.1,723.9,761.1,561.3L761.1,561.3z"/>
		<path class="st108" d="M760.4,561C703.6,723.3,526,808.8,363.7,752S116,517.6,172.8,355.3s234.4-247.8,396.7-191
			S817.2,398.8,760.4,561z M762.4,561.7c57.3-163.3-28.9-342.1-192.2-399.4S228,191.2,170.8,354.6S199.7,696.7,363,754
			S705.2,725.1,762.4,561.7L762.4,561.7z"/>
		<path class="st109" d="M761.7,561.5c-57,163-235.4,248.9-398.4,191.8S114.4,517.8,171.4,354.8S407,105.9,569.9,163
			S818.8,398.4,761.7,561.5z M763.7,562.2c57.5-164.1-29-343.7-193.1-401.2s-343.6,29-401.1,193.1s29,343.7,193.1,401.2
			S706.2,726.3,763.7,562.2L763.7,562.2z"/>
		<path class="st109" d="M763.1,561.9c-57.3,163.8-236.6,250-400.3,192.6s-250-236.5-192.6-400.2s236.6-250,400.2-192.6
			S820.4,398.2,763.1,561.9z M764.9,562.6c57.8-164.8-29-345.2-193.9-402.9s-345.1,29.1-402.8,193.9s29,345.2,193.9,402.9
			S707.3,727.4,764.9,562.6L764.9,562.6z"/>
		<path class="st110" d="M764.3,562.4c-57.6,164.4-237.6,251.1-402,193.5s-251.1-237.5-193.5-402s237.6-251.1,402-193.5
			S822,397.9,764.3,562.4z M766.3,563.1c57.9-165.5-29.4-346.7-194.8-404.6s-346.7,29.2-404.7,194.8s29.3,346.7,194.8,404.6
			S708.3,728.6,766.3,563.1L766.3,563.1z"/>
		<path class="st111" d="M765.6,562.9C707.8,728,527,815,361.9,757.2S109.7,518.6,167.5,353.4S406.1,101.3,571.3,159
			S823.5,397.7,765.6,562.9z M767.6,563.6c58.2-166.3-29.4-348.2-195.7-406.4s-348.2,29.3-406.4,195.6S195,700.9,361.2,759.1
			S709.4,729.8,767.6,563.6L767.6,563.6z"/>
		<path class="st111" d="M767,563.3c-58,165.9-239.7,253.3-405.5,195.2S108.1,518.9,166.2,353S405.9,99.7,571.7,157.8
			S825,397.4,767,563.3z M769,564c58.5-166.9-29.5-349.7-196.5-408.2s-349.8,29.6-408.2,196.5S193.7,702,360.8,760.5
			S710.4,730.9,769,564L769,564z"/>
		<path class="st112" d="M768.2,563.7C710,730.4,527.5,818.2,361,759.8S106.6,519.1,165,352.5S405.6,98.1,572.2,156.5
			S826.6,397.1,768.2,563.7z M770.2,564.4c58.7-167.7-29.6-351.2-197.3-410s-351.3,29.7-410,197.4s29.6,351.2,197.3,409.9
			S711.5,732.1,770.2,564.4L770.2,564.4z"/>
		<path class="st113" d="M769.6,564.3C711,731.5,527.9,819.7,360.5,761.1S105,519.4,163.5,352S405.3,96.5,572.7,155.2
			S828.1,396.9,769.6,564.3z M771.5,565c59-168.5-29.7-352.8-198.1-411.8s-352.7,29.7-411.7,198.1s29.8,352.8,198.1,411.8
			S712.5,733.3,771.5,565L771.5,565z"/>
		<path class="st113" d="M770.9,564.7c-58.9,168-242.8,256.6-410.8,197.7S103.5,519.6,162.3,351.6S405,95,573.1,153.9
			S829.7,396.6,770.9,564.7z M772.9,565.4c59.2-169.2-29.9-354.3-199.1-413.5s-354.2,29.9-413.5,199s29.9,354.3,199.1,413.5
			S713.6,734.5,772.9,565.4L772.9,565.4z"/>
		<path class="st114" d="M772.2,565.1c-59,168.9-243.8,257.7-412.6,198.7S102,519.9,161,351.2S404.8,93.4,573.6,152.5
			S831.2,396.4,772.2,565.1z M774.2,565.8c59.5-169.9-30-355.7-199.9-415.2s-355.8,30-415.3,199.9s30,355.7,199.9,415.2
			S714.7,735.7,774.2,565.8L774.2,565.8z"/>
		<path class="st115" d="M773.5,565.6c-59.3,169.4-244.8,258.7-414.3,199.4S100.3,520.2,159.7,350.6S404.5,91.9,574,151.2
			S832.9,396.1,773.5,565.6z M775.5,566.3c59.7-170.6-30.2-357.3-200.7-417s-357.3,30.1-417,200.7s30.2,357.3,200.7,417
			S715.7,736.9,775.5,566.3L775.5,566.3z"/>
		<path class="st115" d="M774.7,566.1c-59.6,170.2-245.8,259.9-416,200.3s-260-245.9-200.3-416.1s245.8-259.9,416-200.3
			S834.4,395.9,774.7,566.1z M776.7,566.8c60-171.3-30.3-358.8-201.6-418.8s-358.7,30.2-418.7,201.5S186.7,708.3,358,768.3
			S716.7,738.1,776.7,566.8L776.7,566.8z"/>
		<path class="st116" d="M776.1,566.5c-59.9,171-247,261-418,201.2s-261-247-201.1-417.9s247-261,418-201.1S836,395.6,776.1,566.5z
			 M778,567.2c60.3-172-30.3-360.3-202.4-420.5s-360.4,30.4-420.5,202.4s30.4,360.3,202.4,420.5S717.8,739.2,778,567.2z"/>
		<path class="st117" d="M777.4,567c-60.1,171.6-248,262.1-419.7,201.9s-262.1-248-202-419.6s248-262.1,419.7-202
			S837.5,395.3,777.4,567z M779.4,567.7c60.4-172.8-30.5-361.8-203.3-422.3s-361.8,30.5-422.4,203.3S184.3,710.5,357,770.9
			S718.9,740.4,779.4,567.7L779.4,567.7z"/>
		<path class="st118" d="M778.7,567.4c-60.3,172.4-249,263.2-421.4,202.9s-263.2-249-202.9-421.5s249-263.2,421.4-202.8
			S839,395.1,778.7,567.4z M780.7,568.1c60.7-173.5-30.7-363.4-204.2-424s-363.3,30.6-424,204.1s30.6,363.3,204.1,424
			S719.9,741.6,780.7,568.1L780.7,568.1z"/>
		<path class="st118" d="M780,567.9C719.4,741,530,832.2,356.8,771.6S92.5,521.5,153.1,348.4S403.2,84.1,576.3,144.7
			S840.6,394.7,780,567.9z M782,568.6c61-174.2-30.8-364.8-204.9-425.8s-364.9,30.8-425.9,204.9S182,712.5,356.1,773.6
			S721,742.7,782,568.6z"/>
		<path class="st119" d="M781.3,568.3c-60.9,173.9-251.1,265.5-424.9,204.6S91,521.8,151.9,348S403,82.5,576.8,143.4
			S842.1,394.5,781.3,568.3z M783.3,569c61.3-174.9-30.9-366.3-205.8-427.6s-366.4,30.9-427.6,205.9s30.9,366.3,205.8,427.6
			S722.1,743.9,783.3,569L783.3,569z"/>
		<path class="st120" d="M782.7,568.8C721.5,743.3,530.4,835.3,356,774.2S89.4,522,150.5,347.5S402.7,81,577.2,142.1
			S843.8,394.2,782.7,568.8z M784.5,569.5c61.5-175.6-31-367.8-206.6-429.4s-367.8,31-429.3,206.6s31,367.9,206.6,429.4
			S723.1,745.1,784.5,569.5z"/>
		<path class="st121" d="M784,569.3c-61.4,175.3-253.3,267.6-428.5,206.2S87.8,522.3,149.2,347S402.4,79.4,577.7,140.8
			S845.3,394,784,569.3z M786,569.9c61.7-176.3-31.2-369.4-207.5-431.1S209,170,147.2,346.4s31.2,369.4,207.5,431.1
			S724.1,746.3,786,569.9z"/>
		<path class="st121" d="M785.2,569.7C723.6,745.7,531,838.4,355,776.8S86.3,522.6,148,346.6S402.2,77.9,578.2,139.5
			S846.9,393.7,785.2,569.7z M787.2,570.4c62-177-31.3-370.8-208.4-432.8S208,168.8,146,345.9s31.3,370.8,208.4,432.8
			S725.2,747.4,787.2,570.4L787.2,570.4z"/>
		<path class="st122" d="M786.5,570.2c-61.9,176.6-255.3,269.8-432,207.9s-269.8-255.3-207.9-432s255.4-269.8,432-208
			S848.4,393.5,786.5,570.2z M788.5,570.9C850.7,393,757,198.5,579.3,136.3s-372.4,31.4-434.6,209.1S176,717.8,353.9,780
			S726.3,748.7,788.5,570.9L788.5,570.9z"/>
		<path class="st122" d="M787.8,570.6C725.7,748,531.6,841.6,354,779.4S83.2,523.1,145.3,345.7s256.3-271,433.8-208.8
			S850,393.2,787.8,570.6z M789.8,571.3c62.5-178.5-31.5-373.9-210-436.4s-374,31.5-436.5,210.1s31.5,373.9,210,436.4
			S727.3,749.8,789.8,571.3L789.8,571.3z"/>
		<path class="st122" d="M789.2,571c-62.4,178.2-257.4,272.1-435.6,209.7S81.6,523.3,144,345.2S401.3,73.2,579.5,135.6
			S851.5,392.9,789.2,571z M791.1,571.7c62.8-179.2-31.6-375.4-210.9-438.1s-375.4,31.7-438.1,211S173.7,719.9,353,782.7
			S728.3,751,791.1,571.7z"/>
		<path class="st123" d="M790.5,571.6C727.8,750.5,532.1,844.7,353.2,782S80.1,523.6,142.7,344.7S401.1,71.6,580,134.3
			S853.1,392.7,790.5,571.6z M792.5,572.3c62.9-180-31.8-376.9-211.8-440s-377,31.8-440,211.7s31.8,377,211.8,440
			S729.4,752.2,792.5,572.3L792.5,572.3z"/>
		<path class="st123" d="M791.8,572c-62.9,179.6-259.4,274.2-439.1,211.3s-274.1-259.4-211.3-439S400.8,70.1,580.5,133
			S854.6,392.4,791.8,572z M793.8,572.7C857,392,761.8,194.3,581.1,131s-378.4,31.9-441.7,212.6S171.4,722,352,785.3
			S730.5,753.4,793.8,572.7L793.8,572.7z"/>
		<path class="st123" d="M793.1,572.4C730,752.8,532.6,847.8,352.2,784.7S77,524.1,140.1,343.9S400.5,68.5,580.9,131.6
			S856.2,392.2,793.1,572.4z M795.1,573.1c63.5-181.4-32.1-379.9-213.5-443.4s-380,32-443.5,213.4s32.1,380,213.4,443.4
			S731.5,754.6,795.1,573.1L795.1,573.1z"/>
		<path class="st124" d="M794.3,572.9C731,754,532.9,849.3,351.8,786s-276.5-261.6-213-442.7S400.3,67,581.3,130.3
			S857.8,391.9,794.3,572.9z M796.3,573.6c63.8-182.1-32.2-381.5-214.3-445.3s-381.4,32.2-445.2,214.3S169,724.2,351.1,787.9
			S732.5,755.7,796.3,573.6L796.3,573.6z"/>
		<path class="st124" d="M795.6,573.4C732,755.1,533.1,850.9,351.4,787.2s-277.6-262.6-214-444.3S400,65.4,581.8,129
			S859.3,391.6,795.6,573.4z M797.6,574.1c64-182.8-32.3-383-215.2-447s-383,32.3-446.9,215.2s32.3,383,215.2,447
			S733.7,756.9,797.6,574.1L797.6,574.1z"/>
		<path class="st124" d="M797,573.8c-63.9,182.5-263.6,278.6-446.1,214.7S72.3,525,136.1,342.5S399.8,63.9,582.3,127.8
			S860.9,391.4,797,573.8z M798.9,574.5C863.2,391,766.5,190.1,583,125.8s-384.5,32.4-448.7,216s32.4,384.4,215.9,448.7
			S734.7,758.1,798.9,574.5L798.9,574.5z"/>
		<path class="st2" d="M798.3,574.3C734.2,757.5,533.6,854,350.4,789.8S70.7,525.2,134.8,342S399.5,62.3,582.7,126.5
			S862.4,391,798.3,574.3z M800.3,575c64.5-184.3-32.6-386-216.9-450.5s-386,32.6-450.5,216.8s32.6,386.1,216.9,450.5
			S735.7,759.2,800.3,575L800.3,575z"/>
		<path class="st2" d="M799.6,574.8c-64.4,184-265.7,280.8-449.6,216.5S69.2,525.5,133.6,341.5S399.3,60.7,583.1,125.1
			S864,390.8,799.6,574.8z M800.9,575.2c64.7-184.6-32.6-386.7-217.2-451.4S197,156.5,132.3,341.1s32.6,386.7,217.2,451.4
			S736.2,759.8,800.9,575.2z"/>
	</g>
</g>
</svg>
