<svg id="Layer_1" data-name="Layer 1" xmlns="http://www.w3.org/2000/svg" xmlns:xlink="http://www.w3.org/1999/xlink" viewBox="0 0 2316.79 790.35"><defs><style>.cls-1{fill:none;clip-rule:evenodd;}.cls-2{clip-path:url(#clip-path);}.cls-3{fill:#002d44;}.cls-10,.cls-100,.cls-101,.cls-102,.cls-103,.cls-104,.cls-105,.cls-106,.cls-107,.cls-108,.cls-109,.cls-11,.cls-110,.cls-111,.cls-112,.cls-113,.cls-114,.cls-115,.cls-116,.cls-117,.cls-118,.cls-119,.cls-12,.cls-120,.cls-121,.cls-122,.cls-123,.cls-124,.cls-125,.cls-13,.cls-14,.cls-15,.cls-16,.cls-17,.cls-18,.cls-19,.cls-20,.cls-21,.cls-22,.cls-23,.cls-24,.cls-25,.cls-26,.cls-27,.cls-28,.cls-29,.cls-3,.cls-30,.cls-31,.cls-32,.cls-33,.cls-34,.cls-35,.cls-36,.cls-37,.cls-38,.cls-39,.cls-4,.cls-40,.cls-41,.cls-42,.cls-43,.cls-44,.cls-45,.cls-46,.cls-47,.cls-48,.cls-49,.cls-5,.cls-50,.cls-51,.cls-52,.cls-53,.cls-54,.cls-55,.cls-56,.cls-57,.cls-58,.cls-59,.cls-6,.cls-60,.cls-61,.cls-62,.cls-63,.cls-64,.cls-65,.cls-66,.cls-67,.cls-68,.cls-69,.cls-7,.cls-70,.cls-71,.cls-72,.cls-73,.cls-74,.cls-75,.cls-76,.cls-77,.cls-78,.cls-79,.cls-8,.cls-80,.cls-81,.cls-82,.cls-83,.cls-84,.cls-85,.cls-86,.cls-87,.cls-88,.cls-89,.cls-9,.cls-90,.cls-91,.cls-92,.cls-93,.cls-94,.cls-95,.cls-96,.cls-97,.cls-98,.cls-99{fill-rule:evenodd;}.cls-4{fill:#086e8a;}.cls-5{fill:#086d89;}.cls-6{fill:#086d88;}.cls-7{fill:#086c88;}.cls-8{fill:#086c87;}.cls-9{fill:#086b87;}.cls-10{fill:#086b86;}.cls-11{fill:#086a86;}.cls-12{fill:#076a85;}.cls-13{fill:#076985;}.cls-14{fill:#076984;}.cls-15{fill:#076884;}.cls-16{fill:#076883;}.cls-17{fill:#076783;}.cls-18{fill:#076782;}.cls-19{fill:#076682;}.cls-20{fill:#076681;}.cls-21{fill:#076581;}.cls-22{fill:#076580;}.cls-23{fill:#076480;}.cls-24{fill:#07647f;}.cls-25{fill:#07637f;}.cls-26{fill:#07637e;}.cls-27{fill:#07627d;}.cls-28{fill:#06627d;}.cls-29{fill:#06617d;}.cls-30{fill:#06617c;}.cls-31{fill:#06607b;}.cls-32{fill:#06607a;}.cls-33{fill:#065f7a;}.cls-34{fill:#065e79;}.cls-35{fill:#065e78;}.cls-36{fill:#065d78;}.cls-37{fill:#065d77;}.cls-38{fill:#065c77;}.cls-39{fill:#065c76;}.cls-40{fill:#065b76;}.cls-41{fill:#065b75;}.cls-42{fill:#065a75;}.cls-43{fill:#065a74;}.cls-44{fill:#055a74;}.cls-45{fill:#055974;}.cls-46{fill:#055973;}.cls-47{fill:#055873;}.cls-48{fill:#055872;}.cls-49{fill:#055772;}.cls-50{fill:#055771;}.cls-51{fill:#055671;}.cls-52{fill:#055670;}.cls-53{fill:#05556f;}.cls-54{fill:#05546e;}.cls-55{fill:#05536d;}.cls-56{fill:#05536c;}.cls-57{fill:#05526c;}.cls-58{fill:#04526b;}.cls-59{fill:#04516b;}.cls-60{fill:#04516a;}.cls-61{fill:#04506a;}.cls-62{fill:#045069;}.cls-63{fill:#044f69;}.cls-64{fill:#044f68;}.cls-65{fill:#044e68;}.cls-66{fill:#044e67;}.cls-67{fill:#044d67;}.cls-68{fill:#044d66;}.cls-69{fill:#044c66;}.cls-70{fill:#044c65;}.cls-71{fill:#044b65;}.cls-72{fill:#044b64;}.cls-73{fill:#044a64;}.cls-74{fill:#044a63;}.cls-75{fill:#034963;}.cls-76{fill:#034962;}.cls-77{fill:#034862;}.cls-78{fill:#034861;}.cls-79{fill:#034760;}.cls-80{fill:#03465f;}.cls-81{fill:#03465e;}.cls-82{fill:#03455e;}.cls-83{fill:#03455d;}.cls-84{fill:#03445d;}.cls-85{fill:#03445c;}.cls-86{fill:#03435c;}.cls-87{fill:#03435b;}.cls-88{fill:#03425b;}.cls-89{fill:#03425a;}.cls-90{fill:#03415a;}.cls-91{fill:#02415a;}.cls-92{fill:#024159;}.cls-93{fill:#024059;}.cls-94{fill:#024058;}.cls-95{fill:#023f58;}.cls-96{fill:#023f57;}.cls-97{fill:#023e57;}.cls-98{fill:#023e56;}.cls-99{fill:#023d56;}.cls-100{fill:#023d55;}.cls-101{fill:#023c54;}.cls-102{fill:#023b53;}.cls-103{fill:#023a52;}.cls-104{fill:#023951;}.cls-105{fill:#013951;}.cls-106{fill:#013850;}.cls-107{fill:#01384f;}.cls-108{fill:#01374f;}.cls-109{fill:#01374e;}.cls-110{fill:#01364e;}.cls-111{fill:#01364d;}.cls-112{fill:#01354d;}.cls-113{fill:#01354c;}.cls-114{fill:#01344c;}.cls-115{fill:#01344b;}.cls-116{fill:#01334b;}.cls-117{fill:#01334a;}.cls-118{fill:#01324a;}.cls-119{fill:#013249;}.cls-120{fill:#013149;}.cls-121{fill:#013148;}.cls-122{fill:#003148;}.cls-123{fill:#003047;}.cls-124{fill:#002f46;}.cls-125{fill:#002e45;}.cls-126{font-size:405.12px;}.cls-126,.cls-127{font-family:Play-Regular, Play;}.cls-127{font-size:161px;fill:#fff;}</style><clipPath id="clip-path" transform="translate(39.79 -84.65)"><path class="cls-1" d="M382,203.43c4.44-1.47,8.08,1.16,8.08,5.84V690.8c0,4.68-3.63,7.3-8.07,5.81L60,588.54c-4.44-1.49-4.53-1.25-.2.53L382.19,721.68a24.05,24.05,0,0,0,15.76,0l322.4-131A13.68,13.68,0,0,0,728.23,579V322.75A13.77,13.77,0,0,0,720.36,311L397.93,178.32a24,24,0,0,0-15.75,0L59.77,309.35c-4.33,1.76-4.24,2,.2.54Zm-42.26,438.2c0,4.69-3.54,7.07-7.88,5.31l-221.73-90.1a13.69,13.69,0,0,1-7.88-11.71V354.94a13.7,13.7,0,0,1,7.88-11.72L152.56,326V519.76l43.25,17.56V308.39l50.33-20.49V557.81l35.36,14.36c4.34,1.76,7.89-.63,7.89-5.31v-288a13.7,13.7,0,0,1,7.88-11.72l34.57-14.07c4.34-1.76,7.88.62,7.88,5.31ZM669.39,424.87a8.54,8.54,0,0,1,8.51,8.51V545.13A13.69,13.69,0,0,1,670,556.84l-221.72,90.1c-4.34,1.76-7.89-.62-7.89-5.31V534.2a8.54,8.54,0,0,1,8.51-8.51h33.32a8.54,8.54,0,0,1,8.51,8.51v32.66c0,4.68,3.55,7.07,7.88,5.3l121-49.19a13.7,13.7,0,0,0,7.89-11.72V483.72a8.54,8.54,0,0,0-8.51-8.51H448.91a8.54,8.54,0,0,1-8.51-8.52V258.37c0-4.69,3.55-7.07,7.88-5.31L670,343.23a13.69,13.69,0,0,1,7.89,11.71v11.3a8.54,8.54,0,0,1-8.51,8.51H622.46a52.26,52.26,0,0,1-16.4-3.2L498.62,327.91c-4.33-1.77-7.88.62-7.88,5.3v83.15a8.54,8.54,0,0,0,8.51,8.51Z"/></clipPath></defs><title>WS-logo-blue-edit-v2</title><g class="cls-2"><path class="cls-3" d="M131.71,84.65,811.88,322.77a8.53,8.53,0,0,1,5.22,10.84L651.22,807.39a8.52,8.52,0,0,1-10.84,5.22L-39.79,574.42" transform="translate(39.79 -84.65)"/><path class="cls-4" d="M393.06,449.89a1.77,1.77,0,0,0-1.1-2.27,1.74,1.74,0,0,0-2.26,1.1,1.7,1.7,0,0,0,1.09,2.19A1.75,1.75,0,0,0,393.06,449.89Z" transform="translate(39.79 -84.65)"/><path class="cls-4" d="M392.48,449.67a1.17,1.17,0,1,1-.74-1.54A1.18,1.18,0,0,1,392.48,449.67Zm1.68.59a3,3,0,0,0-1.83-3.74,2.85,2.85,0,0,0-3.73,1.76,3,3,0,0,0,1.83,3.8A2.94,2.94,0,0,0,394.16,450.26Z" transform="translate(39.79 -84.65)"/><path class="cls-4" d="M393.57,450a2.31,2.31,0,0,1-3,1.46,2.36,2.36,0,0,1-1.39-3,2.32,2.32,0,0,1,3-1.46A2.36,2.36,0,0,1,393.57,450Zm1.69.58a4.11,4.11,0,1,0-5.27,2.56A4.11,4.11,0,0,0,395.26,450.62Z" transform="translate(39.79 -84.65)"/><path class="cls-5" d="M394.74,450.4a3.53,3.53,0,0,1-4.53,2.2,3.59,3.59,0,0,1-2.2-4.47,3.55,3.55,0,0,1,6.73,2.27Zm1.61.59a5.2,5.2,0,0,0-3.21-6.73,5.28,5.28,0,0,0-6.74,3.29,5.22,5.22,0,0,0,3.22,6.73A5.28,5.28,0,0,0,396.35,451Z" transform="translate(39.79 -84.65)"/><path class="cls-5" d="M395.84,450.84a4.74,4.74,0,0,1-6,2.86,4.66,4.66,0,0,1-2.92-6,4.73,4.73,0,0,1,8.92,3.15Zm1.68.59a6.51,6.51,0,1,0-8.26,3.95A6.52,6.52,0,0,0,397.52,451.43Z" transform="translate(39.79 -84.65)"/><path class="cls-5" d="M396.94,451.21a5.9,5.9,0,0,1-7.54,3.58,5.78,5.78,0,0,1-3.58-7.46,5.9,5.9,0,0,1,7.53-3.59A5.79,5.79,0,0,1,396.94,451.21Zm1.68.58a7.67,7.67,0,1,0-9.8,4.69A7.67,7.67,0,0,0,398.62,451.79Z" transform="translate(39.79 -84.65)"/><path class="cls-5" d="M398,451.57a7,7,0,1,1-4.32-9A7.08,7.08,0,0,1,398,451.57Zm1.68.59a8.83,8.83,0,1,0-11.27,5.41A8.76,8.76,0,0,0,399.72,452.16Z" transform="translate(39.79 -84.65)"/><path class="cls-6" d="M399.14,452a8.23,8.23,0,1,1-5.05-10.53A8.28,8.28,0,0,1,399.14,452Zm1.68.59a10,10,0,1,0-12.73,6.14A10,10,0,0,0,400.82,452.6Z" transform="translate(39.79 -84.65)"/><path class="cls-7" d="M400.3,452.38a9.45,9.45,0,1,1-5.78-12A9.46,9.46,0,0,1,400.3,452.38Zm1.62.58a11.17,11.17,0,1,0-14.27,6.88A11.2,11.2,0,0,0,401.92,453Z" transform="translate(39.79 -84.65)"/><path class="cls-7" d="M401.4,452.74a10.61,10.61,0,1,1-6.51-13.46A10.58,10.58,0,0,1,401.4,452.74Zm1.68.59a12.39,12.39,0,1,0-15.8,7.61A12.4,12.4,0,0,0,403.08,453.33Z" transform="translate(39.79 -84.65)"/><path class="cls-7" d="M402.5,453.18a11.79,11.79,0,1,1-7.24-15A11.68,11.68,0,0,1,402.5,453.18Zm1.68.59A13.57,13.57,0,1,0,386.92,462,13.57,13.57,0,0,0,404.18,453.77Z" transform="translate(39.79 -84.65)"/><path class="cls-8" d="M403.6,453.55A12.95,12.95,0,1,1,395.7,437,13,13,0,0,1,403.6,453.55Zm1.68.58a14.73,14.73,0,1,0-18.73,9A14.67,14.67,0,0,0,405.28,454.13Z" transform="translate(39.79 -84.65)"/><path class="cls-9" d="M404.7,453.91a14.11,14.11,0,1,1-8.64-18A14.13,14.13,0,0,1,404.7,453.91Zm1.68.59a15.89,15.89,0,1,0-20.27,9.8A15.92,15.92,0,0,0,406.38,454.5Z" transform="translate(39.79 -84.65)"/><path class="cls-9" d="M405.79,454.35a15.32,15.32,0,1,1-9.36-19.53A15.25,15.25,0,0,1,405.79,454.35Zm1.69.59a17.07,17.07,0,1,0-21.73,10.46A17.07,17.07,0,0,0,407.48,454.94Z" transform="translate(39.79 -84.65)"/><path class="cls-9" d="M407,454.72a16.51,16.51,0,1,1-10.17-21A16.52,16.52,0,0,1,407,454.72Zm1.61.58a18.22,18.22,0,1,0-23.19,11.2A18.24,18.24,0,0,0,408.57,455.3Z" transform="translate(39.79 -84.65)"/><path class="cls-9" d="M408.06,455.08a17.66,17.66,0,1,1-10.83-22.46A17.68,17.68,0,0,1,408.06,455.08Zm1.68.59a19.45,19.45,0,1,0-24.8,11.93A19.45,19.45,0,0,0,409.74,455.67Z" transform="translate(39.79 -84.65)"/><path class="cls-10" d="M409.16,455.53a18.85,18.85,0,1,1-11.56-24.08A18.85,18.85,0,0,1,409.16,455.53Zm1.68.58a20.63,20.63,0,1,0-26.27,12.58A20.62,20.62,0,0,0,410.84,456.11Z" transform="translate(39.79 -84.65)"/><path class="cls-11" d="M410.26,455.89A20,20,0,1,1,398,430.36,20,20,0,0,1,410.26,455.89Zm1.68.59a21.79,21.79,0,1,0-27.73,13.39A21.86,21.86,0,0,0,411.94,456.48Z" transform="translate(39.79 -84.65)"/><path class="cls-11" d="M411.35,456.26a21.16,21.16,0,1,1-13-27A21.16,21.16,0,0,1,411.35,456.26Zm1.69.58A22.94,22.94,0,1,0,383.77,471,23,23,0,0,0,413,456.84Z" transform="translate(39.79 -84.65)"/><path class="cls-11" d="M412.52,456.69a22.41,22.41,0,1,1-13.75-28.53A22.4,22.4,0,0,1,412.52,456.69Zm1.61.59a24.12,24.12,0,1,0-30.73,14.78A24.11,24.11,0,0,0,414.13,457.28Z" transform="translate(39.79 -84.65)"/><path class="cls-12" d="M413.62,457.06a23.56,23.56,0,1,1-14.48-30A23.52,23.52,0,0,1,413.62,457.06Zm1.69.59A25.35,25.35,0,1,0,383,473.16,25.31,25.31,0,0,0,415.31,457.65Z" transform="translate(39.79 -84.65)"/><path class="cls-12" d="M414.72,457.43a24.73,24.73,0,1,1-15.15-31.54A24.86,24.86,0,0,1,414.72,457.43Zm1.68.58a26.5,26.5,0,1,0-33.8,16.24A26.5,26.5,0,0,0,416.4,458Z" transform="translate(39.79 -84.65)"/><path class="cls-13" d="M415.82,457.86a25.91,25.91,0,1,1-15.88-33.07A25.92,25.92,0,0,1,415.82,457.86Zm1.68.59a27.67,27.67,0,1,0-35.27,17A27.65,27.65,0,0,0,417.5,458.45Z" transform="translate(39.79 -84.65)"/><path class="cls-13" d="M416.91,458.23A27.06,27.06,0,1,1,400.3,423.7,27,27,0,0,1,416.91,458.23Zm1.69.59a28.85,28.85,0,1,0-36.73,17.7A28.86,28.86,0,0,0,418.6,458.82Z" transform="translate(39.79 -84.65)"/><path class="cls-13" d="M418.08,458.6a28.29,28.29,0,1,1-17.34-36A28.25,28.25,0,0,1,418.08,458.6Zm1.61.58a30,30,0,1,0-38.26,18.44A30,30,0,0,0,419.69,459.18Z" transform="translate(39.79 -84.65)"/><path class="cls-14" d="M419.18,459a29.46,29.46,0,1,1-18.07-37.54A29.44,29.44,0,0,1,419.18,459Zm1.69.51a31.23,31.23,0,1,0-39.81,19.17A31.27,31.27,0,0,0,420.87,459.55Z" transform="translate(39.79 -84.65)"/><path class="cls-15" d="M420.28,459.4a30.63,30.63,0,1,1-18.8-39A30.64,30.64,0,0,1,420.28,459.4ZM422,460a32.4,32.4,0,1,0-41.26,19.82A32.38,32.38,0,0,0,422,460Z" transform="translate(39.79 -84.65)"/><path class="cls-15" d="M421.38,459.77a31.78,31.78,0,1,1-19.46-40.54A31.8,31.8,0,0,1,421.38,459.77Zm1.68.58A33.56,33.56,0,1,0,380.26,481,33.48,33.48,0,0,0,423.06,460.35Z" transform="translate(39.79 -84.65)"/><path class="cls-15" d="M422.47,460.13a32.94,32.94,0,1,1-20.19-42A33,33,0,0,1,422.47,460.13Zm1.69.59a34.72,34.72,0,1,0-44.27,21.36A34.77,34.77,0,0,0,424.16,460.72Z" transform="translate(39.79 -84.65)"/><path class="cls-16" d="M423.65,460.57a34.19,34.19,0,1,1-21-43.53A34.23,34.23,0,0,1,423.65,460.57Zm1.6.59a35.9,35.9,0,1,0-45.72,22A35.92,35.92,0,0,0,425.25,461.16Z" transform="translate(39.79 -84.65)"/><path class="cls-16" d="M424.74,460.94a35.34,35.34,0,1,1-21.66-45A35.35,35.35,0,0,1,424.74,460.94Zm1.69.58a37.13,37.13,0,1,0-47.34,22.76A37.16,37.16,0,0,0,426.43,461.52Z" transform="translate(39.79 -84.65)"/><path class="cls-17" d="M425.84,461.3a36.5,36.5,0,1,1-22.39-46.46A36.41,36.41,0,0,1,425.84,461.3Zm1.68.59a38.28,38.28,0,1,0-48.8,23.48A38.25,38.25,0,0,0,427.52,461.89Z" transform="translate(39.79 -84.65)"/><path class="cls-17" d="M426.94,461.74a37.68,37.68,0,1,1-23.12-48.07A37.7,37.7,0,0,1,426.94,461.74Zm1.68.59a39.46,39.46,0,1,0-50.27,24.14A39.48,39.48,0,0,0,428.62,462.33Z" transform="translate(39.79 -84.65)"/><path class="cls-18" d="M428,462.11a38.84,38.84,0,1,1-23.77-49.53A38.86,38.86,0,0,1,428,462.11Zm1.69.58a40.62,40.62,0,1,0-51.8,24.95A40.72,40.72,0,0,0,429.72,462.69Z" transform="translate(39.79 -84.65)"/><path class="cls-18" d="M429.21,462.47a40.07,40.07,0,1,1-24.59-51A40.06,40.06,0,0,1,429.21,462.47Zm1.6.59a41.78,41.78,0,1,0-53.26,25.68A41.7,41.7,0,0,0,430.81,463.06Z" transform="translate(39.79 -84.65)"/><path class="cls-18" d="M430.3,462.91A41.24,41.24,0,1,1,405,410.38,41.26,41.26,0,0,1,430.3,462.91Zm1.69.59a43,43,0,1,0-54.8,26.34A43,43,0,0,0,432,463.5Z" transform="translate(39.79 -84.65)"/><path class="cls-19" d="M431.4,463.28a42.4,42.4,0,1,1-26-54A42.39,42.39,0,0,1,431.4,463.28Zm1.68.59a44.18,44.18,0,1,0-56.26,27.06A44.15,44.15,0,0,0,433.08,463.87Z" transform="translate(39.79 -84.65)"/><path class="cls-19" d="M432.5,463.65a43.56,43.56,0,1,1-26.71-55.54A43.6,43.6,0,0,1,432.5,463.65Zm1.68.58a45.34,45.34,0,1,0-57.8,27.8A45.29,45.29,0,0,0,434.18,464.23Z" transform="translate(39.79 -84.65)"/><path class="cls-20" d="M433.6,464.09A44.75,44.75,0,1,1,406.16,407,44.73,44.73,0,0,1,433.6,464.09Zm1.68.58A46.52,46.52,0,1,0,376,493.2,46.53,46.53,0,0,0,435.28,464.67Z" transform="translate(39.79 -84.65)"/><path class="cls-20" d="M434.77,464.45a46,46,0,1,1-28.24-58.53A46,46,0,0,1,434.77,464.45Zm1.6.59a47.68,47.68,0,1,0-60.72,29.26A47.69,47.69,0,0,0,436.37,465Z" transform="translate(39.79 -84.65)"/><path class="cls-20" d="M435.86,464.82a47.12,47.12,0,1,1-28.9-60A47.11,47.11,0,0,1,435.86,464.82Zm1.61.58a48.84,48.84,0,1,0-62.26,30A48.83,48.83,0,0,0,437.47,465.4Z" transform="translate(39.79 -84.65)"/><path class="cls-21" d="M437,465.25a48.3,48.3,0,1,1-29.63-61.53A48.23,48.23,0,0,1,437,465.25Zm1.68.59a50.09,50.09,0,1,0-63.8,30.66A50,50,0,0,0,438.64,465.84Z" transform="translate(39.79 -84.65)"/><path class="cls-22" d="M438.06,465.62a49.46,49.46,0,1,1-30.37-63.07A49.48,49.48,0,0,1,438.06,465.62Zm1.68.59a51.24,51.24,0,1,0-65.26,31.38A51.19,51.19,0,0,0,439.74,466.21Z" transform="translate(39.79 -84.65)"/><path class="cls-22" d="M439.16,466a50.62,50.62,0,1,1-31-64.54A50.66,50.66,0,0,1,439.16,466Zm1.68.58A52.4,52.4,0,1,0,374,498.76,52.45,52.45,0,0,0,440.84,466.57Z" transform="translate(39.79 -84.65)"/><path class="cls-22" d="M440.25,466.42a51.8,51.8,0,1,1-31.75-66.06A51.78,51.78,0,0,1,440.25,466.42Zm1.69.59a53.58,53.58,0,1,0-68.27,32.85A53.61,53.61,0,0,0,441.94,467Z" transform="translate(39.79 -84.65)"/><path class="cls-23" d="M441.42,466.79a53,53,0,1,1-32.56-67.53A53.07,53.07,0,0,1,441.42,466.79Zm1.61.59A54.74,54.74,0,1,0,373.31,501,54.71,54.71,0,0,0,443,467.38Z" transform="translate(39.79 -84.65)"/><path class="cls-24" d="M442.52,467.16a54.18,54.18,0,1,1-33.22-69A54.14,54.14,0,0,1,442.52,467.16Zm1.68.58a56,56,0,1,0-71.33,34.32A56,56,0,0,0,444.2,467.74Z" transform="translate(39.79 -84.65)"/><path class="cls-24" d="M443.62,467.6A55.35,55.35,0,1,1,409.67,397,55.38,55.38,0,0,1,443.62,467.6Zm1.68.58a57.13,57.13,0,1,0-72.8,35A57.14,57.14,0,0,0,445.3,468.18Z" transform="translate(39.79 -84.65)"/><path class="cls-24" d="M444.72,468A56.52,56.52,0,1,1,410,395.89,56.5,56.5,0,0,1,444.72,468Zm1.68.59a58.3,58.3,0,1,0-74.26,35.77A58.37,58.37,0,0,0,446.4,468.55Z" transform="translate(39.79 -84.65)"/><path class="cls-24" d="M445.81,468.33a57.68,57.68,0,1,1-35.33-73.53A57.71,57.71,0,0,1,445.81,468.33Zm1.69.58a59.46,59.46,0,1,0-75.8,36.51A59.48,59.48,0,0,0,447.5,468.91Z" transform="translate(39.79 -84.65)"/><path class="cls-25" d="M447,468.69a58.9,58.9,0,1,1-36.14-75A58.88,58.88,0,0,1,447,468.69Zm1.62.59a60.62,60.62,0,1,0-77.27,37.24A60.57,60.57,0,0,0,448.6,469.28Z" transform="translate(39.79 -84.65)"/><path class="cls-26" d="M448.08,469.13a60.08,60.08,0,1,1-36.87-76.53A60,60,0,0,1,448.08,469.13Zm1.68.59A61.86,61.86,0,1,0,371,507.62,61.82,61.82,0,0,0,449.76,469.72Z" transform="translate(39.79 -84.65)"/><path class="cls-26" d="M449.18,469.5a61.24,61.24,0,1,1-37.54-78A61.35,61.35,0,0,1,449.18,469.5Zm1.68.58a63,63,0,1,0-80.33,38.64A63,63,0,0,0,450.86,470.08Z" transform="translate(39.79 -84.65)"/><path class="cls-26" d="M450.28,469.87A62.4,62.4,0,1,1,412,390.33,62.47,62.47,0,0,1,450.28,469.87Zm1.68.58a64.18,64.18,0,1,0-81.8,39.43A64.15,64.15,0,0,0,452,470.45Z" transform="translate(39.79 -84.65)"/><path class="cls-26" d="M451.38,470.3a63.58,63.58,0,1,1-39-81.07A63.51,63.51,0,0,1,451.38,470.3Zm1.68.59A65.36,65.36,0,1,0,369.79,511,65.39,65.39,0,0,0,453.06,470.89Z" transform="translate(39.79 -84.65)"/><path class="cls-27" d="M452.54,470.67a64.8,64.8,0,1,1-39.72-82.53A64.78,64.78,0,0,1,452.54,470.67Zm1.62.58a66.52,66.52,0,1,0-84.8,40.83A66.53,66.53,0,0,0,454.16,471.25Z" transform="translate(39.79 -84.65)"/><path class="cls-27" d="M453.64,471a66,66,0,1,1-40.46-84A66,66,0,0,1,453.64,471Zm1.69.59A67.74,67.74,0,1,0,369,513.18,67.8,67.8,0,0,0,455.33,471.62Z" transform="translate(39.79 -84.65)"/><path class="cls-27" d="M454.74,471.47a67.14,67.14,0,1,1-41.19-85.53A67.05,67.05,0,0,1,454.74,471.47Zm1.68.59a68.92,68.92,0,1,0-87.8,42.22A68.89,68.89,0,0,0,456.42,472.06Z" transform="translate(39.79 -84.65)"/><path class="cls-28" d="M455.84,471.84A68.3,68.3,0,1,1,414,384.77,68.33,68.33,0,0,1,455.84,471.84Zm1.68.59a70.08,70.08,0,1,0-89.33,42.94A70,70,0,0,0,457.52,472.43Z" transform="translate(39.79 -84.65)"/><path class="cls-29" d="M456.94,472.21a69.46,69.46,0,1,1-42.59-88.54A69.51,69.51,0,0,1,456.94,472.21Zm1.68.58a71.24,71.24,0,1,0-90.8,43.75A71.3,71.3,0,0,0,458.62,472.79Z" transform="translate(39.79 -84.65)"/><path class="cls-30" d="M458.11,472.65a70.71,70.71,0,1,1-43.39-90.07A70.75,70.75,0,0,1,458.11,472.65Zm1.61.58a72.42,72.42,0,1,0-92.27,44.41A72.47,72.47,0,0,0,459.72,473.23Z" transform="translate(39.79 -84.65)"/><path class="cls-30" d="M459.2,473a71.86,71.86,0,1,1-44.11-91.53A71.84,71.84,0,0,1,459.2,473Zm1.69.59a73.65,73.65,0,1,0-93.8,45.14A73.67,73.67,0,0,0,460.89,473.6Z" transform="translate(39.79 -84.65)"/><path class="cls-30" d="M460.3,473.38a73,73,0,1,1-44.78-93A72.94,72.94,0,0,1,460.3,473.38ZM462,474a74.8,74.8,0,1,0-95.33,45.88A74.77,74.77,0,0,0,462,474Z" transform="translate(39.79 -84.65)"/><path class="cls-30" d="M461.4,473.81a74.2,74.2,0,1,1-45.51-94.6A74.23,74.23,0,0,1,461.4,473.81Zm1.68.59a76,76,0,1,0-96.8,46.53A76,76,0,0,0,463.08,474.4Z" transform="translate(39.79 -84.65)"/><path class="cls-31" d="M462.5,474.18a75.36,75.36,0,1,1-46.24-96.07A75.32,75.32,0,0,1,462.5,474.18Zm1.68.59a77.14,77.14,0,1,0-98.26,47.34A77.15,77.15,0,0,0,464.18,474.77Z" transform="translate(39.79 -84.65)"/><path class="cls-31" d="M463.67,474.55a76.58,76.58,0,1,1-47-97.53A76.58,76.58,0,0,1,463.67,474.55Zm1.61.58a78.3,78.3,0,1,0-99.8,48.07A78.28,78.28,0,0,0,465.28,475.13Z" transform="translate(39.79 -84.65)"/><path class="cls-31" d="M464.76,475a77.76,77.76,0,1,1-47.7-99.07A77.76,77.76,0,0,1,464.76,475Zm1.62.58A79.48,79.48,0,1,0,365.11,524.3,79.47,79.47,0,0,0,466.38,475.57Z" transform="translate(39.79 -84.65)"/><path class="cls-31" d="M465.86,475.35a78.91,78.91,0,1,1-48.44-100.53A78.87,78.87,0,0,1,465.86,475.35Zm1.68.59A80.7,80.7,0,1,0,364.75,525.4,80.68,80.68,0,0,0,467.54,475.94Z" transform="translate(39.79 -84.65)"/><path class="cls-32" d="M467,475.72a80.07,80.07,0,1,1-49.09-102.07A80.15,80.15,0,0,1,467,475.72Zm1.68.58a81.85,81.85,0,1,0-104.33,50.2A81.81,81.81,0,0,0,468.64,476.3Z" transform="translate(39.79 -84.65)"/><path class="cls-33" d="M468.06,476.16a81.26,81.26,0,1,1-49.83-103.61A81.18,81.18,0,0,1,468.06,476.16Zm1.68.58a83,83,0,1,0-105.8,50.93A83.1,83.1,0,0,0,469.74,476.74Z" transform="translate(39.79 -84.65)"/><path class="cls-33" d="M469.15,476.52A82.41,82.41,0,1,1,418.6,371.46,82.36,82.36,0,0,1,469.15,476.52Zm1.69.59a84.2,84.2,0,1,0-107.26,51.65A84.25,84.25,0,0,0,470.84,477.11Z" transform="translate(39.79 -84.65)"/><path class="cls-33" d="M470.33,476.89A83.64,83.64,0,1,1,419,370.36,83.65,83.65,0,0,1,470.33,476.89Zm1.61.58a85.35,85.35,0,1,0-108.8,52.39A85.37,85.37,0,0,0,471.94,477.47Z" transform="translate(39.79 -84.65)"/><path class="cls-33" d="M471.42,477.33a84.81,84.81,0,1,1-52-108.07A84.76,84.76,0,0,1,471.42,477.33Zm1.69.51A86.58,86.58,0,1,0,362.77,531,86.53,86.53,0,0,0,473.11,477.84Z" transform="translate(39.79 -84.65)"/><path class="cls-34" d="M472.52,477.69a86,86,0,1,1-52.75-109.6A86,86,0,0,1,472.52,477.69Zm1.68.59a87.76,87.76,0,1,0-111.79,53.78A87.75,87.75,0,0,0,474.2,478.28Z" transform="translate(39.79 -84.65)"/><path class="cls-34" d="M473.62,478.06A87.13,87.13,0,1,1,420.21,367,87.19,87.19,0,0,1,473.62,478.06Zm1.68.58A88.91,88.91,0,1,0,362,533.23,89,89,0,0,0,475.3,478.64Z" transform="translate(39.79 -84.65)"/><path class="cls-34" d="M474.71,478.43A88.29,88.29,0,1,1,420.57,365.9,88.28,88.28,0,0,1,474.71,478.43Zm1.69.58a90.07,90.07,0,1,0-114.8,55.31A90.09,90.09,0,0,0,476.4,479Z" transform="translate(39.79 -84.65)"/><path class="cls-34" d="M475.89,478.86A89.54,89.54,0,1,1,420.94,364.8,89.61,89.61,0,0,1,475.89,478.86Zm1.61.59a91.26,91.26,0,1,0-116.27,56A91.25,91.25,0,0,0,477.5,479.45Z" transform="translate(39.79 -84.65)"/><path class="cls-35" d="M477,479.23a90.7,90.7,0,1,1-55.6-115.53A90.67,90.67,0,0,1,477,479.23Zm1.69.58A92.48,92.48,0,1,0,360.8,536.52,92.51,92.51,0,0,0,478.67,479.81Z" transform="translate(39.79 -84.65)"/><path class="cls-36" d="M478.08,479.59a91.85,91.85,0,1,1-56.34-117A91.86,91.86,0,0,1,478.08,479.59Zm1.68.59a93.63,93.63,0,1,0-119.33,57.44A93.6,93.6,0,0,0,479.76,480.18Z" transform="translate(39.79 -84.65)"/><path class="cls-36" d="M479.18,480a93,93,0,1,1-57.07-118.61A93,93,0,0,1,479.18,480Zm1.68.58a94.81,94.81,0,1,0-120.8,58.17A94.77,94.77,0,0,0,480.86,480.62Z" transform="translate(39.79 -84.65)"/><path class="cls-36" d="M480.27,480.4a94.19,94.19,0,1,1-57.72-120.06A94.2,94.2,0,0,1,480.27,480.4ZM482,481a96,96,0,1,0-122.33,58.89A96,96,0,0,0,482,481Z" transform="translate(39.79 -84.65)"/><path class="cls-37" d="M481.45,480.77a95.42,95.42,0,1,1-58.54-121.53A95.43,95.43,0,0,1,481.45,480.77Zm1.61.58A97.13,97.13,0,1,0,359.26,541,97.14,97.14,0,0,0,483.06,481.35Z" transform="translate(39.79 -84.65)"/><path class="cls-37" d="M482.54,481.21a96.6,96.6,0,1,1-59.26-123.07A96.55,96.55,0,0,1,482.54,481.21Zm1.69.58a98.38,98.38,0,1,0-125.34,60.29A98.37,98.37,0,0,0,484.23,481.79Z" transform="translate(39.79 -84.65)"/><path class="cls-38" d="M483.64,481.57A97.75,97.75,0,1,1,423.72,357,97.77,97.77,0,0,1,483.64,481.57Zm1.68.59a99.54,99.54,0,1,0-126.79,61A99.53,99.53,0,0,0,485.32,482.16Z" transform="translate(39.79 -84.65)"/><path class="cls-38" d="M484.74,481.94a98.91,98.91,0,1,1-60.66-126.07A99,99,0,0,1,484.74,481.94Zm1.68.58a100.69,100.69,0,1,0-128.33,61.75A100.68,100.68,0,0,0,486.42,482.52Z" transform="translate(39.79 -84.65)"/><path class="cls-38" d="M485.84,482.38a100.09,100.09,0,1,1-61.39-127.61A100,100,0,0,1,485.84,482.38Zm1.68.58a101.87,101.87,0,1,0-129.8,62.48A101.92,101.92,0,0,0,487.52,483Z" transform="translate(39.79 -84.65)"/><path class="cls-39" d="M487,482.74a101.32,101.32,0,1,1-62.19-129.06A101.27,101.27,0,0,1,487,482.74Zm1.61.59a103,103,0,1,0-131.26,63.21A103,103,0,0,0,488.62,483.33Z" transform="translate(39.79 -84.65)"/><path class="cls-39" d="M488.1,483.11a102.47,102.47,0,1,1-62.85-130.53A102.48,102.48,0,0,1,488.1,483.11Zm1.69.58a104.26,104.26,0,1,0-132.87,63.95A104.26,104.26,0,0,0,489.79,483.69Z" transform="translate(39.79 -84.65)"/><path class="cls-40" d="M489.2,483.55a103.65,103.65,0,1,1-63.58-132.07A103.62,103.62,0,0,1,489.2,483.55Zm1.68.58a105.44,105.44,0,1,0-134.33,64.61A105.42,105.42,0,0,0,490.88,484.13Z" transform="translate(39.79 -84.65)"/><path class="cls-40" d="M490.3,483.91A104.81,104.81,0,1,1,426,350.31,104.8,104.8,0,0,1,490.3,483.91Zm1.68.59a106.59,106.59,0,1,0-135.79,65.33A106.52,106.52,0,0,0,492,484.5Z" transform="translate(39.79 -84.65)"/><path class="cls-41" d="M491.4,484.28a106,106,0,1,1-65-135.07A106,106,0,0,1,491.4,484.28Zm1.68.58A107.75,107.75,0,1,0,355.75,551,107.82,107.82,0,0,0,493.08,484.86Z" transform="translate(39.79 -84.65)"/><path class="cls-41" d="M492.57,484.72a107.22,107.22,0,1,1-65.78-136.6A107.29,107.29,0,0,1,492.57,484.72Zm1.61.58a108.93,108.93,0,1,0-138.8,66.8A109,109,0,0,0,494.18,485.3Z" transform="translate(39.79 -84.65)"/><path class="cls-42" d="M493.66,485.08A108.37,108.37,0,1,1,427.16,347,108.29,108.29,0,0,1,493.66,485.08Zm1.61.59A110.12,110.12,0,1,0,355,553.2,110.06,110.06,0,0,0,495.27,485.67Z" transform="translate(39.79 -84.65)"/><path class="cls-42" d="M494.76,485.45A109.53,109.53,0,1,1,427.6,345.92,109.45,109.45,0,0,1,494.76,485.45Zm1.69.58A111.32,111.32,0,1,0,354.58,554.3,111.28,111.28,0,0,0,496.45,486Z" transform="translate(39.79 -84.65)"/><path class="cls-43" d="M495.86,485.89A110.7,110.7,0,1,1,428,344.75,110.73,110.73,0,0,1,495.86,485.89Zm1.68.58A112.48,112.48,0,1,0,354.21,555.4,112.5,112.5,0,0,0,497.54,486.47Z" transform="translate(39.79 -84.65)"/><path class="cls-43" d="M497,486.25a111.87,111.87,0,1,1-68.63-142.6A111.85,111.85,0,0,1,497,486.25Zm1.68.59a113.65,113.65,0,1,0-144.8,69.73A113.66,113.66,0,0,0,498.64,486.84Z" transform="translate(39.79 -84.65)"/><path class="cls-44" d="M498.06,486.62a113,113,0,1,1-69.29-144.06A113,113,0,0,1,498.06,486.62Zm1.68.58a114.81,114.81,0,1,0-146.33,70.46A114.8,114.8,0,0,0,499.74,487.2Z" transform="translate(39.79 -84.65)"/><path class="cls-45" d="M499.22,487.06a114.26,114.26,0,1,1-70.09-145.6A114.29,114.29,0,0,1,499.22,487.06Zm1.61.51A116,116,0,1,0,353,558.76,116,116,0,0,0,500.83,487.57Z" transform="translate(39.79 -84.65)"/><path class="cls-45" d="M500.32,487.42A115.43,115.43,0,1,1,429.5,340.36,115.4,115.4,0,0,1,500.32,487.42ZM502,488a117.22,117.22,0,1,0-149.34,71.85A117.21,117.21,0,0,0,502,488Z" transform="translate(39.79 -84.65)"/><path class="cls-46" d="M501.42,487.79a116.59,116.59,0,1,1-71.48-148.6A116.66,116.66,0,0,1,501.42,487.79Zm1.68.58A118.37,118.37,0,1,0,352.23,561,118.34,118.34,0,0,0,503.1,488.37Z" transform="translate(39.79 -84.65)"/><path class="cls-46" d="M502.52,488.16A117.75,117.75,0,1,1,430.3,338.09,117.71,117.71,0,0,1,502.52,488.16Zm1.68.58a119.53,119.53,0,1,0-152.33,73.39A119.57,119.57,0,0,0,504.2,488.74Z" transform="translate(39.79 -84.65)"/><path class="cls-46" d="M503.62,488.6A118.93,118.93,0,1,1,430.67,337,118.89,118.89,0,0,1,503.62,488.6Zm1.68.58a120.71,120.71,0,1,0-153.8,74A120.77,120.77,0,0,0,505.3,489.18Z" transform="translate(39.79 -84.65)"/><path class="cls-47" d="M504.78,489A120.15,120.15,0,1,1,431.11,335.9,120.16,120.16,0,0,1,504.78,489Zm1.62.59a121.87,121.87,0,1,0-155.34,74.77A121.92,121.92,0,0,0,506.4,489.55Z" transform="translate(39.79 -84.65)"/><path class="cls-48" d="M505.88,489.33A121.31,121.31,0,1,1,431.47,334.8,121.27,121.27,0,0,1,505.88,489.33Zm1.69.58A123.09,123.09,0,1,0,350.7,565.42,123.06,123.06,0,0,0,507.57,489.91Z" transform="translate(39.79 -84.65)"/><path class="cls-48" d="M507,489.77A122.49,122.49,0,1,1,431.84,333.7,122.58,122.58,0,0,1,507,489.77Zm1.68.58a124.27,124.27,0,1,0-158.33,76.17A124.28,124.28,0,0,0,508.66,490.35Z" transform="translate(39.79 -84.65)"/><path class="cls-48" d="M508.08,490.13a123.65,123.65,0,1,1-75.8-157.6A123.71,123.71,0,0,1,508.08,490.13Zm1.68.59a125.43,125.43,0,1,0-159.87,77A125.37,125.37,0,0,0,509.76,490.72Z" transform="translate(39.79 -84.65)"/><path class="cls-49" d="M509.18,490.5a124.81,124.81,0,1,1-76.54-159.07A124.81,124.81,0,0,1,509.18,490.5Zm1.68.58a126.59,126.59,0,1,0-161.33,77.7A126.59,126.59,0,0,0,510.86,491.08Z" transform="translate(39.79 -84.65)"/><path class="cls-49" d="M510.35,490.93A126.05,126.05,0,1,1,433,330.34,126.1,126.1,0,0,1,510.35,490.93Zm1.61.59a127.77,127.77,0,1,0-162.8,78.36A127.76,127.76,0,0,0,512,491.52Z" transform="translate(39.79 -84.65)"/><path class="cls-50" d="M511.44,491.3a127.21,127.21,0,1,1-78.06-162.06A127.16,127.16,0,0,1,511.44,491.3Zm1.69.59A129,129,0,1,0,348.8,571,129,129,0,0,0,513.13,491.89Z" transform="translate(39.79 -84.65)"/><path class="cls-50" d="M512.54,491.67a128.36,128.36,0,1,1-78.73-163.53A128.4,128.4,0,0,1,512.54,491.67Zm1.68.58a130.15,130.15,0,1,0-165.86,79.83A130.12,130.12,0,0,0,514.22,492.25Z" transform="translate(39.79 -84.65)"/><path class="cls-50" d="M513.64,492.11A129.55,129.55,0,1,1,434.18,327,129.53,129.53,0,0,1,513.64,492.11Zm1.68.58A131.33,131.33,0,1,0,348,573.18,131.24,131.24,0,0,0,515.32,492.69Z" transform="translate(39.79 -84.65)"/><path class="cls-51" d="M514.74,492.47a130.71,130.71,0,1,1-80.19-166.6A130.71,130.71,0,0,1,514.74,492.47Zm1.68.59a132.49,132.49,0,1,0-168.79,81.29A132.52,132.52,0,0,0,516.42,493.06Z" transform="translate(39.79 -84.65)"/><path class="cls-52" d="M515.91,492.84A131.93,131.93,0,1,1,435,324.78,132,132,0,0,1,515.91,492.84Zm1.61.58a133.64,133.64,0,1,0-170.33,82A133.66,133.66,0,0,0,517.52,493.42Z" transform="translate(39.79 -84.65)"/><path class="cls-52" d="M517,493.28a133.11,133.11,0,1,1-81.65-169.6A133.08,133.08,0,0,1,517,493.28Zm1.69.58a134.89,134.89,0,1,0-171.87,82.68A134.89,134.89,0,0,0,518.69,493.86Z" transform="translate(39.79 -84.65)"/><path class="cls-52" d="M518.1,493.64a134.27,134.27,0,1,1-82.38-171.06A134.26,134.26,0,0,1,518.1,493.64Zm1.69.59a136.05,136.05,0,1,0-173.34,83.41A136.07,136.07,0,0,0,519.79,494.23Z" transform="translate(39.79 -84.65)"/><path class="cls-52" d="M519.2,494a135.42,135.42,0,1,1-83-172.6A135.47,135.47,0,0,1,519.2,494Zm1.68.58A137.21,137.21,0,1,0,346,578.74,137.18,137.18,0,0,0,520.88,494.59Z" transform="translate(39.79 -84.65)"/><path class="cls-53" d="M520.3,494.45a136.61,136.61,0,1,1-83.78-174.14A136.57,136.57,0,0,1,520.3,494.45ZM522,495a138.39,138.39,0,1,0-176.33,84.88A138.48,138.48,0,0,0,522,495Z" transform="translate(39.79 -84.65)"/><path class="cls-53" d="M521.47,494.81a137.83,137.83,0,1,1-84.58-175.59A137.79,137.79,0,0,1,521.47,494.81Zm1.61.59A139.55,139.55,0,1,0,345.28,581,139.57,139.57,0,0,0,523.08,495.4Z" transform="translate(39.79 -84.65)"/><path class="cls-53" d="M522.57,495.18a139,139,0,0,1-177.14,85.24C273,555.1,234.88,475.79,260.19,403.36a139,139,0,0,1,177.14-85.24C509.76,343.43,547.88,422.75,522.57,495.18Zm1.61.58c25.75-73.31-13-153.64-86.27-179.32a140.74,140.74,0,1,0,86.27,179.32Z" transform="translate(39.79 -84.65)"/><path class="cls-53" d="M523.66,495.62a140.16,140.16,0,1,1-86-178.6C510.71,342.56,549.2,422.53,523.66,495.62Zm1.69.58a141.94,141.94,0,1,0-180.87,87A141.93,141.93,0,0,0,525.35,496.2Z" transform="translate(39.79 -84.65)"/><path class="cls-53" d="M524.76,496a141.32,141.32,0,1,1-86.7-180.13A141.31,141.31,0,0,1,524.76,496Zm1.68.59A143.11,143.11,0,1,0,344.11,584.3,143,143,0,0,0,526.44,496.57Z" transform="translate(39.79 -84.65)"/><path class="cls-54" d="M525.86,496.35a142.48,142.48,0,1,1-87.36-181.6A142.53,142.53,0,0,1,525.86,496.35Zm1.68.59a144.26,144.26,0,1,0-183.87,88.53A144.33,144.33,0,0,0,527.54,496.94Z" transform="translate(39.79 -84.65)"/><path class="cls-54" d="M527,496.72a143.64,143.64,0,1,1-88.1-183.07A143.66,143.66,0,0,1,527,496.72Zm1.68.58a145.42,145.42,0,1,0-185.33,89.26A145.44,145.44,0,0,0,528.64,497.3Z" transform="translate(39.79 -84.65)"/><path class="cls-54" d="M528.13,497.16C501.64,572.66,419,612.47,343.53,586a144.84,144.84,0,1,1,184.6-88.82Zm1.61.58a146.6,146.6,0,1,0-186.8,89.92A146.62,146.62,0,0,0,529.74,497.74Z" transform="translate(39.79 -84.65)"/><path class="cls-54" d="M529.23,497.52a146.05,146.05,0,1,1-89.56-186.06A146,146,0,0,1,529.23,497.52Zm1.68.59A147.83,147.83,0,1,0,342.5,588.76,147.84,147.84,0,0,0,530.91,498.11Z" transform="translate(39.79 -84.65)"/><path class="cls-55" d="M530.32,497.89A147.2,147.2,0,1,1,440,310.29,147.25,147.25,0,0,1,530.32,497.89Zm1.68.58a149,149,0,0,0-281.25-98.41c-27.14,77.63,13.76,162.65,91.39,189.8A148.93,148.93,0,0,0,532,498.47Z" transform="translate(39.79 -84.65)"/><path class="cls-55" d="M531.42,498.33a148.38,148.38,0,1,1-91-189.14A148.39,148.39,0,0,1,531.42,498.33Zm1.68.58A150.16,150.16,0,1,0,341.77,591,150.19,150.19,0,0,0,533.1,498.91Z" transform="translate(39.79 -84.65)"/><path class="cls-55" d="M532.52,498.69a149.54,149.54,0,1,1-91.68-190.6A149.54,149.54,0,0,1,532.52,498.69Zm1.68.59a151.34,151.34,0,0,0-92.78-192.87c-78.94-27.58-165.28,14-192.86,92.85a151.32,151.32,0,0,0,92.77,192.86C420.28,619.71,506.61,578.15,534.2,499.28Z" transform="translate(39.79 -84.65)"/><path class="cls-55" d="M533.69,499.06A150.77,150.77,0,1,1,441.2,307,150.81,150.81,0,0,1,533.69,499.06Zm1.61.58c27.87-79.46-14-166.45-93.51-194.33A152.53,152.53,0,1,0,535.3,499.64Z" transform="translate(39.79 -84.65)"/><path class="cls-56" d="M534.79,499.5a152,152,0,1,1-93.22-193.6A151.95,151.95,0,0,1,534.79,499.5Zm1.68.58A153.73,153.73,0,0,0,246.29,398.45c-28,80.12,14.19,167.85,94.31,195.87A153.67,153.67,0,0,0,536.47,500.08Z" transform="translate(39.79 -84.65)"/><path class="cls-57" d="M535.88,499.86c-27.95,79.83-115.31,121.82-195.13,93.95A153.12,153.12,0,0,1,442,304.8C521.76,332.68,563.83,420,535.88,499.86Zm1.68.59a154.85,154.85,0,0,0-95-197.33c-80.7-28.32-169,14.27-197.33,95A154.89,154.89,0,0,0,537.56,500.45Z" transform="translate(39.79 -84.65)"/><path class="cls-57" d="M537,500.23a154.26,154.26,0,1,1-291.2-101.92C274,317.9,362,275.46,442.38,303.63A154.28,154.28,0,0,1,537,500.23Zm1.68.58A156,156,0,1,0,339.8,596.59,156,156,0,0,0,538.66,500.81Z" transform="translate(39.79 -84.65)"/><path class="cls-57" d="M538.08,500.67a155.44,155.44,0,1,1-95.34-198.14A155.42,155.42,0,0,1,538.08,500.67Zm1.68.58A157.22,157.22,0,1,0,243,397.28c-28.68,82,14.49,171.72,96.43,200.41A157.22,157.22,0,0,0,539.76,501.25Z" transform="translate(39.79 -84.65)"/><path class="cls-57" d="M539.25,501c-28.61,81.66-118,124.68-199.6,96.07a156.72,156.72,0,0,1-96.14-199.6c28.61-81.65,118-124.67,199.6-96.06A156.71,156.71,0,0,1,539.25,501Zm1.61.59a158.33,158.33,0,0,0-97.17-201.87c-82.53-28.9-172.89,14.64-201.79,97.17a158.38,158.38,0,1,0,299,104.7Z" transform="translate(39.79 -84.65)"/><path class="cls-58" d="M540.35,501.4a157.8,157.8,0,0,1-201.14,96.8C257,569.44,213.66,479.38,242.41,397.14a157.79,157.79,0,0,1,201.14-96.8C525.78,329.09,569.1,419.16,540.35,501.4ZM542,502a159.61,159.61,0,1,0-203.4,97.89A159.56,159.56,0,0,0,542,502Z" transform="translate(39.79 -84.65)"/><path class="cls-59" d="M541.44,501.84a159,159,0,1,1-97.53-202.6A159.08,159.08,0,0,1,541.44,501.84Zm1.68.58A160.78,160.78,0,0,0,444.5,297.56C360.72,268.22,269,312.34,239.63,396.11A160.79,160.79,0,0,0,338.26,601C422,630.32,513.79,586.2,543.12,502.42Z" transform="translate(39.79 -84.65)"/><path class="cls-59" d="M542.54,502.2C513.35,585.69,422,629.66,338.48,600.47a160.15,160.15,0,0,1-98.26-204.14c29.19-83.48,120.58-127.45,204.06-98.26A160.15,160.15,0,0,1,542.54,502.2Zm1.68.59a161.94,161.94,0,0,0-305.68-107C209,480.18,253.46,572.59,337.89,602.08A161.9,161.9,0,0,0,544.22,502.79Z" transform="translate(39.79 -84.65)"/><path class="cls-59" d="M543.64,502.57C514.22,586.71,422.18,631,338,601.56S209.63,480,239.12,396s121.46-128.41,205.6-99S573.12,418.5,543.64,502.57Zm1.68.59a163.12,163.12,0,0,0-100-207.87c-85-29.78-178.08,15.07-207.86,100.09a163.12,163.12,0,0,0,100,207.87C422.47,633,515.54,588.17,545.32,503.16Z" transform="translate(39.79 -84.65)"/><path class="cls-60" d="M544.81,503C515.1,587.66,422.4,632.37,337.68,602.66S208.32,480.25,238,395.53a162.62,162.62,0,0,1,207.13-99.65C529.81,325.51,574.44,418.28,544.81,503Zm1.61.58a164.29,164.29,0,0,0-100.75-209.4c-85.61-30-179.41,15.15-209.33,100.75a164.27,164.27,0,0,0,100.75,209.4C422.69,634.34,516.49,589.2,546.42,503.59Z" transform="translate(39.79 -84.65)"/><path class="cls-61" d="M545.91,503.37C516,588.69,422.62,633.68,337.31,603.76S207,480.47,236.85,395.16s123.29-130.31,208.6-100.38A163.7,163.7,0,0,1,545.91,503.37Zm1.68.59A165.51,165.51,0,1,0,336.72,605.44C422.91,635.66,517.37,590.22,547.59,504Z" transform="translate(39.79 -84.65)"/><path class="cls-61" d="M547,503.74A164.83,164.83,0,0,1,336.87,604.86C251,574.78,205.68,480.69,235.75,394.8A164.84,164.84,0,0,1,445.89,293.68C531.78,323.75,577.07,417.84,547,503.74Zm1.69.58c30.36-86.84-15.37-182-102.22-212.32a166.67,166.67,0,0,0-212.4,102.21c-30.36,86.85,15.37,182,102.22,212.33A166.68,166.68,0,0,0,548.69,504.32Z" transform="translate(39.79 -84.65)"/><path class="cls-61" d="M548.1,504.18c-30.29,86.55-125,132.14-211.6,101.85A166.14,166.14,0,0,1,234.66,394.36C265,307.8,359.7,262.22,446.25,292.51A166.13,166.13,0,0,1,548.1,504.18Zm1.68.58c30.66-87.5-15.44-183.28-102.94-213.86A167.8,167.8,0,1,0,549.78,504.76Z" transform="translate(39.79 -84.65)"/><path class="cls-61" d="M549.2,504.55A167.22,167.22,0,1,1,233.56,394c30.51-87.14,125.92-133.09,213.06-102.58S579.71,417.33,549.2,504.55Zm1.68.58C581.76,417,535.3,320.61,447.2,289.73S262.68,305.31,231.88,393.41s15.58,184.52,103.67,215.4S520.08,593.22,550.88,505.13Z" transform="translate(39.79 -84.65)"/><path class="cls-62" d="M550.37,504.91a168.44,168.44,0,1,1-103.31-214.6A168.5,168.5,0,0,1,550.37,504.91Zm1.61.59c31.09-88.68-15.66-185.77-104.34-216.87S261.8,304.29,230.78,393,246.44,578.81,335.11,609.9,521,594.25,552,505.5Z" transform="translate(39.79 -84.65)"/><path class="cls-63" d="M551.47,505.35c-31,88.38-127.75,134.92-216.14,104s-135-127.68-104-216.06A169.62,169.62,0,0,1,551.47,505.35Zm1.61.51C584.39,416.6,537.34,318.78,448,287.53a171.45,171.45,0,0,0-218.4,105.14C198.37,481.94,245.41,579.76,334.75,611S521.83,595.2,553.08,505.86Z" transform="translate(39.79 -84.65)"/><path class="cls-63" d="M552.56,505.72c-31.16,89-128.62,135.87-217.59,104.7a170.76,170.76,0,0,1-104.78-217.6c31.17-89,128.63-135.87,217.6-104.7A170.74,170.74,0,0,1,552.56,505.72Zm1.69.58c31.46-89.92-15.88-188.4-105.87-219.86s-188.33,15.87-219.87,105.8,15.88,188.4,105.87,219.86S522.71,596.22,554.25,506.3Z" transform="translate(39.79 -84.65)"/><path class="cls-63" d="M553.66,506.08C522.27,595.71,424.16,643,334.53,611.59A172,172,0,0,1,229.1,392.46C260.48,302.83,358.6,255.63,448.23,287A172,172,0,0,1,553.66,506.08Zm1.68.59C587,416.16,539.32,317,448.81,285.34s-189.72,16-221.4,106.53,16,189.65,106.53,221.33S523.66,597.25,555.34,506.67Z" transform="translate(39.79 -84.65)"/><path class="cls-64" d="M554.76,506.45c-31.61,90.28-130.38,137.84-220.6,106.23S196.39,482.3,228,392.09,358.38,254.24,448.6,285.85,586.37,416.23,554.76,506.45Zm1.68.58A174.92,174.92,0,0,0,449.18,284.17c-91.16-31.9-191,16.17-222.86,107.33A174.93,174.93,0,0,0,333.58,614.37C424.74,646.27,524.54,598.2,556.44,507Z" transform="translate(39.79 -84.65)"/><path class="cls-64" d="M555.86,506.89C524.1,597.76,424.67,645.61,333.8,613.78A174.28,174.28,0,0,1,226.9,391.65C258.66,300.78,358.09,252.93,449,284.75A174.31,174.31,0,0,1,555.86,506.89Zm1.68.58c32.12-91.82-16.17-192.28-108-224.4s-192.21,16.24-224.33,108,16.17,192.28,108,224.4S525.42,599.22,557.54,507.47Z" transform="translate(39.79 -84.65)"/><path class="cls-65" d="M557,507.25A175.52,175.52,0,0,1,333.36,614.88c-91.46-32-139.6-132.14-107.63-223.6A175.52,175.52,0,0,1,449.4,283.66C540.86,315.7,589,415.79,557,507.25Zm1.61.59C591.05,415.43,542.32,314.31,450,282S256.46,298.29,224.12,390.7s16.32,193.52,108.65,225.86S526.3,600.25,558.64,507.84Z" transform="translate(39.79 -84.65)"/><path class="cls-65" d="M558.12,507.62A176.64,176.64,0,0,1,333,616c-92-32.2-140.62-133-108.36-225.06A176.63,176.63,0,0,1,449.76,282.56C541.81,314.75,590.39,415.58,558.12,507.62Zm1.69.58c32.56-93-16.46-194.76-109.46-227.32S255.51,297.27,223,390.33,239.41,585.1,332.41,617.66,527.25,601.27,559.81,508.2Z" transform="translate(39.79 -84.65)"/><path class="cls-66" d="M559.22,508.06A177.87,177.87,0,0,1,332.63,617.15c-92.7-32.49-141.58-134-109.09-226.67A177.86,177.86,0,0,1,450.13,281.39C542.83,313.88,591.71,415.36,559.22,508.06Zm1.68.58A179.57,179.57,0,0,0,450.72,279.78C357.14,247,254.63,296.31,221.85,389.89A179.59,179.59,0,0,0,332,618.76C425.62,651.53,528.13,602.22,560.9,508.64Z" transform="translate(39.79 -84.65)"/><path class="cls-66" d="M560.32,508.42c-32.63,93.29-134.77,142.46-228.13,109.82S189.73,483.4,222.44,390.11,357.21,247.66,450.57,280.29,593,415.14,560.32,508.42ZM562,509c33-94.24-16.68-197.4-110.84-230.4s-197.41,16.68-230.4,110.92,16.68,197.4,110.84,230.4S529,603.25,562,509Z" transform="translate(39.79 -84.65)"/><path class="cls-66" d="M561.42,508.79c-32.86,93.94-135.65,143.41-229.6,110.55S188.42,483.62,221.34,389.75,357,246.34,450.94,279.19,594.34,414.92,561.42,508.79Zm1.68.58c33.22-94.82-16.76-198.64-111.58-231.86A181.91,181.91,0,0,0,219.66,389.16C186.44,484,236.41,587.81,331.24,621S529.88,604.27,563.1,509.37Z" transform="translate(39.79 -84.65)"/><path class="cls-67" d="M562.59,509.23C529.44,603.76,426,653.58,331.46,620.44S187.1,483.84,220.17,389.31,356.77,245,451.3,278.1,595.66,414.7,562.59,509.23Zm1.61.58a183.13,183.13,0,0,0-112.31-233.4c-95.48-33.43-200,16.9-233.33,112.31s16.83,200,112.31,233.4S530.83,605.22,564.2,509.81Z" transform="translate(39.79 -84.65)"/><path class="cls-68" d="M563.68,509.59C530.32,604.78,426.21,654.9,331,621.54S185.78,484.13,219.07,388.94,356.55,243.64,451.67,277,597,414.4,563.68,509.59Zm1.69.59C599,414.11,548.39,309,452.25,275.32s-201.2,17-234.86,113A184.34,184.34,0,0,0,330.51,623.22C426.57,656.88,531.71,606.25,565.37,510.18Z" transform="translate(39.79 -84.65)"/><path class="cls-68" d="M564.78,510c-33.51,95.77-138.35,146.26-234.13,112.75A183.77,183.77,0,0,1,218,388.58C251.49,292.8,356.33,242.32,452.11,275.9S598.29,414.19,564.78,510Zm1.68.59C600.34,413.89,549.34,308,452.69,274.22A185.48,185.48,0,0,0,216.29,388c-33.87,96.65,17.12,202.53,113.78,236.33A185.47,185.47,0,0,0,566.46,510.55Z" transform="translate(39.79 -84.65)"/><path class="cls-69" d="M565.88,510.4c-33.73,96.36-139.23,147.13-235.6,113.41S183.15,484.57,216.88,388.14,356.11,241,452.47,274.73A185,185,0,0,1,565.88,510.4Zm1.68.58c34.1-97.31-17.19-203.84-114.5-237.86A186.61,186.61,0,0,0,215.2,387.55c-34.1,97.31,17.19,203.84,114.5,237.94S533.47,608.29,567.56,511Z" transform="translate(39.79 -84.65)"/><path class="cls-70" d="M567,510.76c-34,97-140.12,148.09-237.06,114.14S181.76,484.79,215.78,387.77,355.89,239.68,452.84,273.63,601,413.75,567,510.76Zm1.68.59C603,413.45,551.39,306.27,453.42,272S248.34,289.29,214.1,387.19s17.27,205.08,115.23,239.4S534.42,609.25,568.66,511.35Z" transform="translate(39.79 -84.65)"/><path class="cls-70" d="M568.15,511.13c-34.24,97.6-141.07,149-238.67,114.87s-149-141-114.87-238.59,141.06-149,238.67-114.87S602.32,413.53,568.15,511.13Zm1.61.59c34.53-98.49-17.42-206.33-115.9-240.87s-206.4,17.42-240.86,116,17.41,206.33,115.89,240.86S535.3,610.27,569.76,511.72Z" transform="translate(39.79 -84.65)"/><path class="cls-71" d="M569.25,511.57C534.86,609.76,427.3,661.49,329.11,627.1S179.12,485.23,213.51,387,355.45,237.05,453.64,271.44,603.63,413.31,569.25,511.57Zm1.68.58c34.68-99.14-17.56-207.71-116.7-242.39s-207.65,17.48-242.4,116.62,17.56,207.72,116.7,242.4S536.17,611.3,570.93,512.15Z" transform="translate(39.79 -84.65)"/><path class="cls-72" d="M570.34,511.93c-34.6,98.85-142.82,150.87-241.59,116.34S177.81,485.45,212.41,386.6,355.24,235.73,454,270.34,605,413.09,570.34,511.93Zm1.69.59c34.9-99.8-17.64-209-117.44-243.86S245.7,286.29,210.73,386s17.64,209,117.43,243.86S537.05,612.25,572,512.52Z" transform="translate(39.79 -84.65)"/><path class="cls-72" d="M571.44,512.3A190.76,190.76,0,0,1,328.31,629.37c-99.43-34.83-151.82-143.7-117-243.13s143.62-151.9,243.13-117.07S606.27,412.87,571.44,512.3Zm1.68.58C608.24,412.5,555.42,302.68,455,267.56s-210.28,17.71-245.4,118.09S227.34,595.86,327.73,631,538,613.27,573.12,512.88Z" transform="translate(39.79 -84.65)"/><path class="cls-73" d="M572.54,512.74c-35,100-144.51,152.77-244.6,117.72S175.17,485.89,210.22,385.8,354.72,233,454.81,268.07,607.58,412.65,572.54,512.74Zm1.68.59C609.56,412.28,556.37,301.8,455.4,266.39S243.88,284.24,208.54,385.21A193.83,193.83,0,0,0,327.36,632.15C428.33,667.49,538.88,614.29,574.22,513.33Z" transform="translate(39.79 -84.65)"/><path class="cls-74" d="M573.71,513.11C538.44,613.78,428.25,666.83,327.58,631.56S173.86,486.11,209.05,385.43,354.5,231.71,455.18,267,608.9,412.43,573.71,513.11Zm1.61.58C611,412.06,557.39,300.85,455.77,265.29S243,283.29,207.44,384.85,225.36,597.69,327,633.25,539.76,615.32,575.32,513.69Z" transform="translate(39.79 -84.65)"/><path class="cls-74" d="M574.81,513.47A194.32,194.32,0,0,1,327.14,632.66C225.88,597.25,172.54,486.33,208,385.07A194.31,194.31,0,0,1,455.62,265.88C556.88,301.36,610.22,412.21,574.81,513.47Zm1.68.59C612.27,411.84,558.42,300,456.2,264.2S242.12,282.27,206.27,384.48s18.07,214.08,120.28,249.86S540.64,616.27,576.49,514.06Z" transform="translate(39.79 -84.65)"/><path class="cls-75" d="M575.9,513.91C540.2,615.76,428.69,669.46,326.77,633.76S171.15,486.55,206.85,384.7,354.06,229.07,456,264.78,611.61,412,575.9,513.91Zm1.69.59c36-102.88-18.22-215.41-121-251.4s-215.4,18.14-251.4,121,18.22,215.33,121,251.33S541.59,617.29,577.59,514.5Z" transform="translate(39.79 -84.65)"/><path class="cls-76" d="M577,514.28c-35.85,102.5-148.09,156.5-250.59,120.65S169.83,486.77,205.76,384.26s148.08-156.5,250.59-120.65S612.93,411.77,577,514.28Zm1.69.58C614.9,411.4,560.39,298.22,456.94,262S240.29,280.22,204.07,383.67s18.3,216.65,121.75,252.87S542.47,618.32,578.69,514.86Z" transform="translate(39.79 -84.65)"/><path class="cls-76" d="M578.1,514.64C542,617.81,429.13,672.1,326,636S168.52,487,204.66,383.89s149-157.45,252.13-121.38S614.24,411.55,578.1,514.64Zm1.68.59c36.44-104-18.36-218-122.41-254.4S239.41,279.27,203,383.31s18.36,218,122.4,254.4S543.35,619.27,579.78,515.23Z" transform="translate(39.79 -84.65)"/><path class="cls-77" d="M579.27,515C542.91,618.83,429.35,673.48,325.6,637.12S167.2,487.28,203.49,383.53,353.41,225.12,457.15,261.41,615.56,411.26,579.27,515Zm1.61.58C617.54,411,562.44,296.39,457.74,259.73s-219.2,18.51-255.86,123.21S220.32,602.15,325,638.81,544.22,620.29,580.88,515.59Z" transform="translate(39.79 -84.65)"/><path class="cls-78" d="M580.37,515.45C543.78,619.78,429.57,674.8,325.24,638.22S165.88,487.5,202.39,383.09s150.8-159.36,255.13-122.77S616.88,411,580.37,515.45Zm1.68.58c36.8-105.28-18.66-220.52-123.94-257.4S237.58,277.22,200.71,382.5,219.37,603,324.65,639.9,545.17,621.32,582.05,516Z" transform="translate(39.79 -84.65)"/><path class="cls-78" d="M581.46,515.81c-36.73,105-151.67,160.31-256.66,123.51s-160.24-151.6-123.51-256.6S353,222.42,458,259.22,618.19,410.82,581.46,515.81Zm1.69.59c37-105.87-18.73-221.77-124.6-258.86s-221.84,18.73-258.94,124.6S218.34,603.9,324.21,641,546.05,622.27,583.15,516.4Z" transform="translate(39.79 -84.65)"/><path class="cls-79" d="M582.56,516.18C545.61,621.83,430,677.44,324.43,640.49S163.25,487.94,200.2,382.36,352.75,221.1,458.32,258.05,619.51,410.6,582.56,516.18Zm1.69.58c37.31-106.45-18.81-223.08-125.34-260.32s-223.08,18.8-260.4,125.33S217.32,604.86,323.85,642.1,546.93,623.29,584.25,516.76Z" transform="translate(39.79 -84.65)"/><path class="cls-79" d="M583.66,516.62c-37.17,106.16-153.43,162.13-259.59,125s-162.21-153.43-125-259.67S352.53,219.78,458.69,257,620.9,410.38,583.66,516.62Zm1.68.58c37.54-107.11-19-224.4-126.06-261.93S235,274.22,197.42,381.33s19,224.4,126.06,261.94S547.81,624.32,585.34,517.2Z" transform="translate(39.79 -84.65)"/><path class="cls-79" d="M584.76,517c-37.39,106.83-154.31,163.09-261.13,125.7S160.54,488.37,198,381.55s154.31-163.08,261.13-125.7S622.22,410.16,584.76,517Zm1.68.59c37.75-107.7-19-225.65-126.72-263.4S234,273.19,196.32,381s19,225.64,126.72,263.4S548.76,625.34,586.44,517.57Z" transform="translate(39.79 -84.65)"/><path class="cls-80" d="M585.93,517.35c-37.61,107.48-155.26,164-262.67,126.43s-164-155.18-126.43-262.59,155.26-164,262.67-126.43S623.53,409.94,585.93,517.35Zm1.61.58c38-108.35-19.1-226.88-127.46-264.86s-227,19.17-264.86,127.53,19.1,226.89,127.46,264.86S549.64,626.29,587.54,517.93Z" transform="translate(39.79 -84.65)"/><path class="cls-80" d="M587,517.79C549.2,625.78,431,682.7,322.9,644.88s-165-156.06-127.17-264.13S351.8,215.83,459.86,253.66,624.85,409.72,587,517.79Zm1.68.58c38.12-109-19.25-228.27-128.26-266.39s-228.21,19.24-266.4,128.18,19.24,228.28,128.26,266.4S550.51,627.32,588.71,518.37Z" transform="translate(39.79 -84.65)"/><path class="cls-80" d="M588.12,518.15c-38,108.66-156.94,165.94-265.66,127.9S156.59,489,194.64,380.38,351.58,214.44,460.3,252.49,626.17,409.5,588.12,518.15Zm1.69.59c38.33-109.6-19.39-229.52-128.92-267.86S231.37,270.2,193,379.8s19.39,229.52,128.92,267.86S551.39,628.34,589.81,518.74Z" transform="translate(39.79 -84.65)"/><path class="cls-81" d="M589.22,518.52C551,627.83,431.4,685.41,322.09,647.15S155.27,489.25,193.54,380,351.36,213.13,460.67,251.39,627.48,409.28,589.22,518.52Zm1.68.59c38.56-110.19-19.46-230.77-129.65-269.4S230.41,269.24,191.86,379.43s19.46,230.77,129.65,269.4S552.34,629.29,590.9,519.11Z" transform="translate(39.79 -84.65)"/><path class="cls-82" d="M590.32,519c-38.41,109.89-158.7,167.77-268.6,129.28S154,489.47,192.44,379.58,351.14,211.81,461,250.29,628.8,409.06,590.32,519Zm1.68.58c38.85-110.84-19.54-232.08-130.38-270.93S229.54,268.22,190.76,379s19.53,232.08,130.38,270.94S553.22,630.32,592,519.54Z" transform="translate(39.79 -84.65)"/><path class="cls-82" d="M591.49,519.32c-38.71,110.48-159.65,168.73-270.13,130S152.64,489.69,191.27,379.21s159.65-168.72,270.13-130S630.12,408.84,591.49,519.32Zm1.61.59c39.07-111.43-19.68-233.4-131.12-272.4S228.66,267.19,189.66,378.63,209.34,612,320.77,651,554.1,631.34,593.1,519.91Z" transform="translate(39.79 -84.65)"/><path class="cls-83" d="M592.59,519.69C553.66,630.83,432.06,689.36,320.92,650.44S151.25,489.91,190.17,378.85,350.7,209.17,461.84,248.1,631.51,408.62,592.59,519.69Zm1.68.59c39.22-112-19.83-234.65-131.85-273.86S227.78,266.17,188.49,378.26,208.32,612.9,320.33,652.12,555,632.37,594.27,520.28Z" transform="translate(39.79 -84.65)"/><path class="cls-84" d="M593.68,520.13c-39.14,111.72-161.4,170.55-273.13,131.48S149.93,490.13,189.08,378.41,350.48,207.86,462.2,246.93,632.83,408.4,593.68,520.13Zm1.69.58c39.43-112.67-19.91-236-132.58-275.39s-236,19.9-275.4,132.5,19.9,236,132.58,275.4S555.93,633.32,595.37,520.71Z" transform="translate(39.79 -84.65)"/><path class="cls-84" d="M594.78,520.49C555.49,632.8,432.5,692,320.19,652.71S148.61,490.42,188,378s162.28-171.5,274.59-132.21S634.14,408.11,594.78,520.49Zm1.68.59c39.66-113.26-20-237.2-133.31-276.86S226,264.2,186.29,377.46,206.34,614.73,319.6,654.39,556.81,634.34,596.46,521.08Z" transform="translate(39.79 -84.65)"/><path class="cls-85" d="M595.88,520.86c-39.51,113-163.16,172.45-276.13,132.94S147.3,490.64,186.88,377.68,350,205.22,463,244.73,635.46,407.89,595.88,520.86Zm1.68.59c39.88-113.85-20.12-238.52-134-278.4s-238.52,20.12-278.39,134,20.12,238.52,134,278.4S557.69,635.37,597.56,521.45Z" transform="translate(39.79 -84.65)"/><path class="cls-86" d="M597.05,521.3c-39.8,113.55-164.11,173.4-277.67,133.6S146,490.86,185.71,377.24s164.11-173.41,277.66-133.6S636.78,407.67,597.05,521.3Zm1.61.59C638.75,407.38,578.46,282.05,464,242S224.2,262.22,184.1,376.65s20.19,239.84,134.7,279.93S558.56,636.32,598.66,521.89Z" transform="translate(39.79 -84.65)"/><path class="cls-86" d="M598.15,521.67C558.12,635.88,433.16,696,319,656S144.66,491.08,184.61,376.87s165-174.35,279.13-134.33S638.09,407.45,598.15,521.67Zm1.68.58c40.24-115.09-20.34-241.08-135.5-281.4S223.24,261.2,182.93,376.29s20.34,241.08,135.5,281.39S559.51,637.34,599.83,522.25Z" transform="translate(39.79 -84.65)"/><path class="cls-87" d="M599.24,522c-40.17,114.8-165.86,175.31-280.66,135.14S143.35,491.3,183.51,376.5,349.38,201.2,464.18,241.44,639.41,407.23,599.24,522Zm1.69.59c40.53-115.68-20.49-242.33-136.17-282.86S222.37,260.17,181.83,375.92,202.32,618.32,318,658.78,560.39,638.36,600.93,522.62Z" transform="translate(39.79 -84.65)"/><path class="cls-88" d="M600.34,522.47C560,637.85,433.6,698.66,318.21,658.27S142,491.52,182.42,376.07s166.74-176.19,282.13-135.8S640.73,407,600.34,522.47Zm1.68.59c40.76-116.34-20.56-243.72-136.89-284.4s-243.64,20.49-284.4,136.89,20.56,243.64,136.9,284.33S561.27,639.39,602,523.06Z" transform="translate(39.79 -84.65)"/><path class="cls-88" d="M601.44,522.84C560.83,638.88,433.81,700,317.85,659.36S140.64,491.74,181.32,375.7,348.94,198.56,464.91,239.17,642.12,406.8,601.44,522.84Zm1.68.58c41-117-20.63-245-137.62-285.93s-245,20.71-285.86,137.62,20.63,245,137.62,285.94S562.22,640.34,603.12,523.42Z" transform="translate(39.79 -84.65)"/><path class="cls-89" d="M602.61,523.2c-40.9,116.63-168.5,178.09-285.2,137.26S139.32,492,180.15,375.33s168.5-178.08,285.2-137.26S643.44,406.58,602.61,523.2Zm1.61.59c41.19-117.58-20.78-246.21-138.29-287.4S219.66,257.17,178.54,374.75,199.32,621,316.82,662.14,563.1,641.37,604.22,523.79Z" transform="translate(39.79 -84.65)"/><path class="cls-90" d="M603.71,523.64C562.66,640.85,434.33,702.61,317,661.56S138,492.18,179.05,375s169.38-179,286.67-138S644.75,406.36,603.71,523.64Zm1.68.59C646.73,406,584.46,276.71,466.3,235.29S218.78,256.15,177.37,374.38,198.29,621.9,316.46,663.24,564,642.39,605.39,524.23Z" transform="translate(39.79 -84.65)"/><path class="cls-91" d="M604.8,524C563.54,641.88,434.55,704,316.68,662.66S136.69,492.4,178,374.53,348.21,194.61,466.08,235.88,646.07,406.14,604.8,524Zm1.69.58c41.56-118.82-21-248.83-139.82-290.39s-248.77,21-290.4,139.74,21,248.84,139.82,290.4S564.86,643.34,606.49,524.59Z" transform="translate(39.79 -84.65)"/><path class="cls-92" d="M605.9,524.37C564.42,642.9,434.77,705.31,316.24,663.83S135.37,492.62,176.86,374.16,348,193.22,466.52,234.71,647.39,405.92,605.9,524.37Zm1.68.59c41.78-119.41-21.07-250.08-140.47-291.86S217,254.17,175.17,373.58s21.08,250.08,140.48,291.86S565.81,644.37,607.58,525Z" transform="translate(39.79 -84.65)"/><path class="cls-93" d="M607,524.74C565.3,643.85,435,706.63,315.87,664.92S134.05,492.84,175.76,373.8s172-181.89,291.13-140.19S648.7,405.7,607,524.74Zm1.68.58c42-120-21.22-251.32-141.21-293.39s-251.4,21.22-293.39,141.28,21.21,251.33,141.21,293.4S566.68,645.39,608.68,525.32Z" transform="translate(39.79 -84.65)"/><path class="cls-93" d="M608.17,525.18C566.25,644.88,435.21,708,315.51,666s-182.77-173-140.92-292.66,173-182.77,292.66-140.85S650,405.48,608.17,525.18Zm1.61.58c42.29-120.65-21.29-252.71-141.94-294.93S215.2,252.2,173,372.77,194.27,625.49,314.92,667.7,567.56,646.41,609.78,525.76Z" transform="translate(39.79 -84.65)"/><path class="cls-94" d="M609.27,525.54C567.12,645.9,435.42,709.26,315.07,667.12S131.35,493.28,173.49,373s173.84-183.72,294.2-141.57S651.41,405.26,609.27,525.54Zm1.68.59c42.44-121.24-21.44-254-142.67-296.4s-254,21.44-296.47,142.68,21.44,254,142.67,296.39S568.44,647.37,611,526.13Z" transform="translate(39.79 -84.65)"/><path class="cls-95" d="M610.36,525.91C568,646.85,435.64,710.58,314.7,668.22S130,493.57,172.39,372.63,347.11,188,468.06,230.32,652.73,405,610.36,525.91Zm1.69.59c42.65-121.83-21.59-255.21-143.41-297.86S213.37,250.15,170.71,372s21.58,255.2,143.41,297.86S569.39,648.39,612.05,526.5Z" transform="translate(39.79 -84.65)"/><path class="cls-95" d="M611.46,526.35c-42.58,121.53-175.6,185.55-297.12,143s-185.63-175.6-143-297.2,175.59-185.55,297.12-143S654,404.75,611.46,526.35Zm1.68.58C656,404.45,591.49,270.41,469,227.54S212.49,249.12,169.61,371.6,191.27,628.12,313.75,671,570.27,649.41,613.14,526.93Z" transform="translate(39.79 -84.65)"/><path class="cls-96" d="M612.56,526.72C569.83,648.9,436.08,713.21,313.9,670.49S127.4,494,170.2,371.82s176.47-186.5,298.66-143.77S655.36,404.53,612.56,526.72Zm1.68.58c43.1-123.06-21.73-257.84-144.79-300.93s-257.84,21.8-300.93,144.87,21.73,257.83,144.79,300.93S571.15,650.37,614.24,527.3Z" transform="translate(39.79 -84.65)"/><path class="cls-96" d="M613.66,527.08C570.71,649.93,436.3,714.6,313.53,671.58S126.08,494.23,169.1,371.46,346.45,183.93,469.23,227,656.68,404.31,613.66,527.08Zm1.68.59c43.31-123.66-21.8-259.09-145.53-302.4s-259.08,21.88-302.39,145.6S189.22,630,313,673.27,572,651.39,615.34,527.67Z" transform="translate(39.79 -84.65)"/><path class="cls-97" d="M614.83,527.52c-43.24,123.36-178.31,188.4-301.67,145.16S124.76,494.45,167.93,371,346.24,182.61,469.59,225.86,658,404.09,614.83,527.52Zm1.61.58c43.53-124.3-22-260.39-146.26-303.93s-260.4,22-303.86,146.26,22,260.4,146.26,303.93S573,652.41,616.44,528.1Z" transform="translate(39.79 -84.65)"/><path class="cls-98" d="M615.92,527.89c-43.46,124-179.18,189.35-303.2,145.89S123.45,494.67,166.83,370.65,346,181.3,470,224.76,659.31,403.87,615.92,527.89Zm1.69.58c43.75-124.89-22.1-261.64-147.07-305.39s-261.64,22.09-305.39,147,22.1,261.64,147.06,305.39S573.86,653.36,617.61,528.47Z" transform="translate(39.79 -84.65)"/><path class="cls-98" d="M617,528.25C573.42,652.93,437,718.56,312.36,675S122.13,494.89,165.74,370.29,345.8,180,470.4,223.59,660.63,403.65,617,528.25Zm1.69.59c44-125.56-22.17-263-147.73-306.86S208,244.15,164.05,369.7s22.17,263,147.72,306.86S574.73,654.39,618.71,528.84Z" transform="translate(39.79 -84.65)"/><path class="cls-99" d="M618.12,528.69C574.29,653.88,437.25,719.87,312,676.05S120.74,495.11,164.64,369.85,345.5,178.66,470.76,222.49,662,403.43,618.12,528.69Zm1.68.58C664,403.06,597.49,265,471.35,220.81S207.15,243.12,163,369.26s22.32,264.28,148.46,308.47S575.61,655.41,619.8,529.27Z" transform="translate(39.79 -84.65)"/><path class="cls-100" d="M619.22,529.05C575.17,654.9,437.47,721.19,311.63,677.14S119.42,495.33,163.54,369.48,345.28,177.35,471.13,221.39,663.34,403.21,619.22,529.05Zm1.68.59c44.41-126.8-22.39-265.52-149.19-309.93S206.2,242.1,161.86,368.9,184.25,634.41,311,678.83,576.56,656.44,620.9,529.64Z" transform="translate(39.79 -84.65)"/><path class="cls-100" d="M620.39,529.42c-44.34,126.51-182.7,193.09-309.2,148.82S118.1,495.55,162.37,369.11,345.06,176,471.57,220.3,664.65,403,620.39,529.42ZM622,530c44.63-127.39-22.46-266.77-149.85-311.4S205.32,241.15,160.76,368.53,183.22,635.29,310.6,679.92,577.44,657.39,622,530Z" transform="translate(39.79 -84.65)"/><path class="cls-101" d="M621.49,529.86c-44.49,127-183.58,194-310.67,149.48s-194-183.58-149.55-310.66,183.58-194,310.67-149.48S666,402.77,621.49,529.86Zm1.68.59c44.78-128-22.61-268.16-150.65-312.93s-268.08,22.6-312.93,150.57S182.2,636.24,310.24,681,578.32,658.41,623.17,530.45Z" transform="translate(39.79 -84.65)"/><path class="cls-101" d="M622.58,530.23c-44.7,127.67-184.45,195-312.12,150.28S115.47,496,160.17,368.31,344.63,173.32,472.3,218,667.29,402.55,622.58,530.23Zm1.69.58c45-128.62-22.76-269.4-151.38-314.39S203.56,239.1,158.49,367.73s22.76,269.39,151.38,314.39S579.2,659.44,624.27,530.81Z" transform="translate(39.79 -84.65)"/><path class="cls-101" d="M623.68,530.59C578.76,658.93,438.35,726.53,310,681.61S114.15,496.2,159.08,367.94,344.41,172,472.74,216.93,668.61,402.33,623.68,530.59Zm1.68.59c45.22-129.21-22.82-270.64-152-315.86s-270.72,22.83-315.94,152,22.83,270.64,152,315.93S580.15,660.39,625.36,531.18Z" transform="translate(39.79 -84.65)"/><path class="cls-102" d="M624.78,531C579.64,660,438.57,727.85,309.65,682.7S112.84,496.42,158,367.51,344.19,170.69,473.11,215.83,669.92,402.11,624.78,531Zm1.68.59c45.51-129.87-22.9-272-152.77-317.47s-272,23-317.39,152.77,22.9,272,152.77,317.47S581,661.41,626.46,531.62Z" transform="translate(39.79 -84.65)"/><path class="cls-102" d="M626,531.4C580.59,660.9,438.79,729.17,309.29,683.8S111.52,496.72,156.81,367.14,344,169.37,473.47,214.74,671.24,401.89,626,531.4Zm1.61.58c45.73-130.45-23-273.27-153.5-318.93s-273.2,23-318.86,153.5,23.05,273.28,153.5,318.94S581.9,662.44,627.56,532Z" transform="translate(39.79 -84.65)"/><path class="cls-102" d="M627.05,531.76C581.46,661.93,439,730.48,308.85,684.9s-198.72-188-153.14-318.13,188-198.71,318.2-153.13S672.63,401.6,627.05,531.76Zm1.68.59c45.88-131-23.2-274.52-154.24-320.4S200,235.08,154,366.19s23.19,274.52,154.23,320.39S582.78,663.46,628.73,532.35Z" transform="translate(39.79 -84.65)"/><path class="cls-103" d="M628.14,532.2C582.34,663,439.23,731.8,308.48,686.07S108.81,497.16,154.61,366.33,343.53,166.74,474.28,212.54,673.94,401.38,628.14,532.2Zm1.69.59c46.09-131.7-23.27-275.84-155-321.93S199,234.12,152.93,365.82s23.27,275.77,155,321.86S583.73,664.41,629.83,532.79Z" transform="translate(39.79 -84.65)"/><path class="cls-103" d="M629.24,532.57c-46,131.33-189.79,200.55-321.12,154.6S107.49,497.38,153.52,366s189.79-200.55,321.12-154.6S675.26,401.16,629.24,532.57Zm1.69.58c46.31-132.28-23.42-277.08-155.7-323.39S198.15,233.1,151.83,365.38s23.42,277.08,155.7,323.47S584.61,665.44,630.93,533.15Z" transform="translate(39.79 -84.65)"/><path class="cls-103" d="M630.34,532.93c-46.17,132-190.67,201.58-322.66,155.34S106.18,497.59,152.42,365.6,343.09,164.1,475.08,210.27,676.58,400.94,630.34,532.93Zm1.68.59c46.53-132.87-23.49-278.4-156.35-324.93S197.27,232.08,150.74,365,174.22,643.41,307.09,690,585.49,666.46,632,533.52Z" transform="translate(39.79 -84.65)"/><path class="cls-104" d="M631.51,533.37c-46.46,132.58-191.62,202.45-324.2,156S104.86,497.81,151.25,365.24s191.62-202.53,324.2-156.07S677.9,400.72,631.51,533.37Zm1.61.51C679.87,400.43,609.56,254.24,476,207.49S196.39,231.12,149.64,364.65s23.56,279.64,157.09,326.4S586.37,667.41,633.12,533.88Z" transform="translate(39.79 -84.65)"/><path class="cls-105" d="M632.61,533.74C585.93,667,440.11,737.14,307,690.46S103.54,498,150.15,364.8s192.5-203.4,325.66-156.72S679.21,400.5,632.61,533.74Zm1.68.58c46.9-134.18-23.71-281-157.89-327.93s-281,23.71-327.93,157.82,23.7,281,157.89,327.93S587.32,668.44,634.29,534.32Z" transform="translate(39.79 -84.65)"/><path class="cls-105" d="M633.71,534.1C586.88,667.92,440.4,738.46,306.51,691.56S102.23,498.25,149.05,364.43,342.36,160.08,476.25,207,680.53,400.28,633.71,534.1Zm1.68.59c47.19-134.77-23.85-282.2-158.55-329.39S194.56,229.07,147.37,363.85s23.85,282.2,158.55,329.39S588.2,669.46,635.39,534.69Z" transform="translate(39.79 -84.65)"/><path class="cls-106" d="M634.8,534.47c-47,134.48-194.18,205.3-328.66,158.26S100.84,498.47,148,364.07,342.14,158.76,476.62,205.81,681.92,400.06,634.8,534.47Zm1.69.59C683.9,399.7,612.56,251.54,477.2,204.2S193.68,228.05,146.27,363.48,170.2,647,305.55,694.34,589.07,670.49,636.49,535.06Z" transform="translate(39.79 -84.65)"/><path class="cls-106" d="M635.9,534.91C588.63,670,440.84,741.09,305.77,693.83S99.52,498.69,146.86,363.63,341.92,157.45,477,204.71,683.24,399.84,635.9,534.91Zm1.68.58c47.63-136-24-284.83-160-332.46S192.81,227.1,145.18,363s24,284.84,160,332.47S590,671.44,637.58,535.49Z" transform="translate(39.79 -84.65)"/><path class="cls-106" d="M637.07,535.28c-47.56,135.64-196,207.13-331.73,159.64S98.2,498.91,145.69,363.26s196-207.13,331.73-159.65S684.55,399.62,637.07,535.28Zm1.61.58C686.53,399.26,614.54,249.78,478,201.93S191.86,226.08,144.08,362.68s24.14,286.07,160.67,333.93S590.9,672.46,638.68,535.86Z" transform="translate(39.79 -84.65)"/><path class="cls-107" d="M638.17,535.64C590.46,672,441.28,743.72,305,696S96.89,499.13,144.59,362.9s196.89-208.09,333.2-160.38S685.87,399.41,638.17,535.64Zm1.68.59c48-137.19-24.29-287.33-161.48-335.4S191,225.05,142.91,362.31,167.2,649.63,304.38,697.7,591.78,673.48,639.85,536.23Z" transform="translate(39.79 -84.65)"/><path class="cls-108" d="M639.27,536.08c-47.93,136.89-197.77,209-334.67,161s-209-197.77-161.11-334.66,197.77-209,334.66-161S687.19,399.19,639.27,536.08Zm1.68.58C689.16,398.82,616.58,248,478.74,199.74S190.1,224.1,141.81,361.87,166.17,650.58,304,698.8,592.66,674.44,641,536.66Z" transform="translate(39.79 -84.65)"/><path class="cls-108" d="M640.36,536.45c-48.14,137.55-198.64,210-336.2,161.84S94.25,499.57,142.4,362.09,341,152.1,478.59,200.25,688.51,399,640.36,536.45Zm1.69.58c48.43-138.43-24.44-290-162.87-338.39s-290,24.44-338.47,162.87,24.44,290,162.87,338.39S593.54,675.46,642.05,537Z" transform="translate(39.79 -84.65)"/><path class="cls-109" d="M641.46,536.81C593.1,675,441.94,747.75,303.8,699.39S92.94,499.86,141.3,361.72,340.82,150.79,479,199.15,689.82,398.75,641.46,536.81Zm1.68.59c48.73-139-24.58-291.2-163.6-339.93S188.27,222.05,139.62,361.14s24.58,291.2,163.59,339.93S594.49,676.48,643.14,537.4Z" transform="translate(39.79 -84.65)"/><path class="cls-110" d="M642.56,537.25C594.05,676,442.16,749.07,303.43,700.48S91.62,500.08,140.13,361.29,340.6,149.47,479.32,198.05,691.14,398.45,642.56,537.25Zm1.68.59c49-139.68-24.66-292.52-164.33-341.47S187.39,221.1,138.52,360.7s24.65,292.52,164.33,341.47S595.37,677.51,644.24,537.84Z" transform="translate(39.79 -84.65)"/><path class="cls-110" d="M643.73,537.62C594.93,677,442.38,750.38,303,701.58S90.23,500.3,139,360.92,340.38,148.15,479.69,197,692.53,398.23,643.73,537.62Zm1.61.58c49.17-140.26-24.73-293.83-165.07-342.93S186.51,220.08,137.42,360.34s24.73,293.83,165.06,342.92S596.24,678.46,645.34,538.2Z" transform="translate(39.79 -84.65)"/><path class="cls-111" d="M644.83,538c-49,140-202.23,213.72-342.2,164.7S88.91,500.52,137.93,360.56s202.23-213.72,342.2-164.7S693.85,398,644.83,538Zm1.68.59c49.31-140.85-25-295.08-165.79-344.39S185.64,219.05,136.25,360,161.2,655.05,302,704.36,597.12,679.48,646.51,538.57Z" transform="translate(39.79 -84.65)"/><path class="cls-112" d="M645.92,538.42C596.68,679,442.81,753,302.26,703.85S87.59,500.74,136.83,360.12,339.94,145.52,480.5,194.69,695.16,397.8,645.92,538.42Zm1.69.59c49.53-141.51-25-296.4-166.53-345.93S184.69,218,135.15,359.53s25,296.4,166.53,345.93S598.07,680.51,647.61,539Z" transform="translate(39.79 -84.65)"/><path class="cls-112" d="M647,538.79C597.64,680,443,754.33,301.9,705S86.28,501,135.74,359.75s204-215.55,345.12-166.16S696.48,397.58,647,538.79Zm1.68.58c49.76-142.09-25.09-297.64-167.25-347.46s-297.64,25.17-347.4,167.25,25.1,297.64,167.26,347.47S599,681.46,648.7,539.37Z" transform="translate(39.79 -84.65)"/><path class="cls-113" d="M648.12,539.15C598.51,681,443.25,755.72,301.46,706S85,501.18,134.64,359.38,339.5,142.81,481.3,192.49,697.8,397.36,648.12,539.15Zm1.68.59c50-142.75-25.17-299-167.92-348.93S182.93,216.05,133,358.8s25.17,299,167.91,348.93S599.83,682.49,649.8,539.74Z" transform="translate(39.79 -84.65)"/><path class="cls-114" d="M649.29,539.59C599.39,682,443.55,757,301.09,707.14S83.64,501.4,133.47,358.94,339.21,141.5,481.67,191.39,699.12,397.14,649.29,539.59Zm1.61.59c50.19-143.41-25.32-300.28-168.65-350.47S182.05,215,131.86,358.36s25.32,300.27,168.65,350.46S600.71,683.51,650.9,540.18Z" transform="translate(39.79 -84.65)"/><path class="cls-114" d="M650.39,540c-50.12,143-206.62,218.4-349.66,168.28S82.33,501.62,132.37,358.58,339,140.18,482,190.3,700.43,396.92,650.39,540Zm1.68.58c50.41-144-25.46-301.51-169.45-351.93S181.1,214.08,130.69,358s25.46,301.52,169.45,351.93S601.66,684.53,652.07,540.54Z" transform="translate(39.79 -84.65)"/><path class="cls-115" d="M651.48,540.32C601.22,684,444,759.68,300.29,709.41S81,501.84,131.27,358.21s207.5-219.35,351.2-169.08S701.75,396.7,651.48,540.32Zm1.69.59c50.63-144.58-25.54-302.76-170.11-353.39S180.22,213.05,129.59,357.63,155.13,660.39,299.7,711,602.54,685.49,653.17,540.91Z" transform="translate(39.79 -84.65)"/><path class="cls-116" d="M652.58,540.76C602.1,685,444.2,761,299.92,710.51S79.62,502.06,130.18,357.77,338.55,137.54,482.84,188,703.14,396.48,652.58,540.76Zm1.68.59c50.86-145.24-25.68-304.15-170.84-354.93S179.34,212,128.49,357.19s25.68,304.15,170.85,355S603.42,686.51,654.26,541.35Z" transform="translate(39.79 -84.65)"/><path class="cls-116" d="M653.68,541.13C603,686,444.42,762.31,299.56,711.6S78.3,502.28,129.08,357.41,338.33,136.23,483.2,186.93,704.46,396.26,653.68,541.13Zm1.68.58c51.07-145.82-25.75-305.39-171.57-356.46S178.47,211,127.4,356.82,153.15,662.22,299,713.29,604.29,687.53,655.36,541.71Z" transform="translate(39.79 -84.65)"/><path class="cls-117" d="M654.85,541.49C603.85,687,444.64,763.63,299.12,712.7S77,502.5,127.91,357s210.2-222.13,355.73-171.21S705.77,396,654.85,541.49Zm1.61.59c51.29-146.41-25.83-306.64-172.23-357.93S177.52,210.05,126.3,356.46s25.83,306.63,172.23,357.92S605.24,688.48,656.46,542.08Z" transform="translate(39.79 -84.65)"/><path class="cls-118" d="M656,541.93C604.8,688,444.86,765,298.75,713.8S75.67,502.72,126.81,356.68,337.89,133.59,484,184.74,707.09,395.82,656,541.93Zm1.68.59c51.43-147.07-26-308-173-359.47s-307.95,26-359.46,173,26,308,173,359.39S606.12,689.51,657.63,542.52Z" transform="translate(39.79 -84.65)"/><path class="cls-119" d="M657,542.3c-51.36,146.7-212,224-358.66,172.67s-224-212-172.67-358.73,212-224,358.66-172.6S708.41,395.6,657,542.3Zm1.69.59C710.38,395.24,632.61,233.61,485,182S175.76,208,124,355.65,150.15,664.92,297.8,716.58,607,690.53,658.73,542.89Z" transform="translate(39.79 -84.65)"/><path class="cls-119" d="M658.14,542.66C606.56,690,445.3,767.65,298,716.07S73,503.23,124.62,355.87s212.83-225,360.19-173.4S709.72,395.31,658.14,542.66Zm1.68.59C711.7,395,633.63,232.73,485.4,180.86S174.81,207.05,122.93,355.29s26.2,310.51,174.43,362.46S607.88,691.48,659.82,543.25Z" transform="translate(39.79 -84.65)"/><path class="cls-120" d="M659.24,543c-51.8,148-213.72,225.94-361.66,174.13S71.72,503.45,123.52,355.51,337.24,129.57,485.18,181.37,711,395.09,659.24,543Zm1.68.59c52.17-148.82-26.26-311.76-175.16-363.93S173.93,206,121.84,354.92,148.1,666.68,297,718.85,608.83,692.51,660.92,543.62Z" transform="translate(39.79 -84.65)"/><path class="cls-121" d="M660.41,543.47c-52,148.53-214.67,226.81-363.2,174.79S70.33,503.67,122.35,355.07,337,128.25,485.54,180.27,712.43,394.87,660.41,543.47Zm1.61.58C714.41,394.58,635.61,231,486.13,178.59S173.05,205,120.74,354.48,147.15,667.63,296.63,720,609.71,693.53,662,544.05Z" transform="translate(39.79 -84.65)"/><path class="cls-122" d="M661.51,543.84C609.27,693,446,771.6,296.78,719.36S69,503.89,121.25,354.7,336.8,126.93,486,179.18,713.75,394.65,661.51,543.84Zm1.68.58C715.72,394.36,636.63,230,486.57,177.49s-314.4,26.49-367,176.63S146.13,668.51,296.19,721,610.58,694.56,663.19,544.42Z" transform="translate(39.79 -84.65)"/><path class="cls-122" d="M662.6,544.2C610.14,694.05,446.18,772.92,296.41,720.46S67.69,504.11,120.15,354.34s216.43-228.72,366.2-176.26S715.07,394.43,662.6,544.2Zm1.69.59C717,394.14,637.66,229.15,486.93,176.4S171.22,203,118.47,353.75,145.1,669.39,295.82,722.14,611.54,695.51,664.29,544.79Z" transform="translate(39.79 -84.65)"/><path class="cls-123" d="M663.7,544.64C611,695,446.4,774.23,296,721.63S66.38,504.32,119.06,353.9s217.3-229.6,367.65-177S716.38,394.21,663.7,544.64Zm1.68.58c53-151.38-26.77-317-178.08-369.92s-317,26.7-369.93,178,26.71,317,178.09,369.93S612.41,696.53,665.38,545.22Z" transform="translate(39.79 -84.65)"/><path class="cls-123" d="M664.8,545C612,696,446.69,775.63,295.6,722.73S65.06,504.55,118,353.53,336.07,122.91,487.15,175.81,717.7,394,664.8,545Zm1.68.59c53.19-152-26.85-318.27-178.74-371.46S169.47,201,116.28,353,143.13,671.22,295,724.41,613.29,697.56,666.48,545.59Z" transform="translate(39.79 -84.65)"/><path class="cls-123" d="M666,545.37C612.85,697,446.91,776.94,295.24,723.82S63.74,504.76,116.79,353.16,335.85,121.59,487.52,174.71,719,393.77,666,545.37Zm1.61.59C721,393.41,640.65,226.44,488.1,173S168.59,200,115.18,352.58,142.1,672.1,294.65,725.51,614.17,698.51,667.58,546Z" transform="translate(39.79 -84.65)"/><path class="cls-124" d="M667.07,545.81c-53.34,152.26-219.94,232.45-372.2,179.11S62.42,505,115.69,352.73,335.63,120.28,487.88,173.62,720.33,393.55,667.07,545.81Zm1.68.59c53.56-153.21-27.07-320.84-180.28-374.47S167.64,199,114,352.14,141.08,673,294.29,726.6,615.12,699.53,668.75,546.4Z" transform="translate(39.79 -84.65)"/><path class="cls-124" d="M668.17,546.18C614.61,699,447.35,779.58,294.43,726S61.11,505.2,114.59,352.36,335.41,119,488.33,172.52,721.65,393.33,668.17,546.18Zm1.68.58c53.85-153.79-27.22-322.07-181-375.92S166.76,198,112.91,351.77,140.13,673.85,293.85,727.7,616,700.56,669.85,546.76Z" transform="translate(39.79 -84.65)"/><path class="cls-124" d="M669.26,546.54C615.56,700,447.57,780.89,294.07,727.19S59.72,505.42,113.49,352s221.7-234.35,375.2-180.64S723,393.11,669.26,546.54Zm1.69.59c54.07-154.38-27.3-323.4-181.67-377.39S165.88,197,111.81,351.41,139.1,674.8,293.48,728.8,616.88,701.58,671,547.13Z" transform="translate(39.79 -84.65)"/><path class="cls-125" d="M670.36,547C616.44,701.07,447.79,782.21,293.7,728.29S58.4,505.64,112.4,351.56,335,116.33,489.06,170.25,724.36,392.89,670.36,547Zm1.68.59c54.29-155-27.36-324.71-182.4-379S165,196,110.71,351s27.37,324.71,182.41,379S617.76,702.53,672,547.57Z" transform="translate(39.79 -84.65)"/><path class="cls-125" d="M671.46,547.35C617.32,702,448,783.53,293.34,729.38S57.08,505.86,111.23,351.19,334.75,115,489.42,169.15,725.67,392.67,671.46,547.35Zm1.68.58C727.65,392.31,645.63,222,490,167.47S164.05,195,109.62,350.6s27.51,326,183.13,380.47S618.71,703.56,673.14,547.93Z" transform="translate(39.79 -84.65)"/><path class="cls-125" d="M672.63,547.71C618.19,703,448.23,784.84,292.9,730.48S55.77,506.15,110.13,350.82s224.4-237.13,379.73-182.76S727,392.46,672.63,547.71Zm1.61.59C729,392.09,646.65,221.1,490.45,166.37S163.17,194,108.52,350.24s27.58,327.2,183.79,381.92S619.58,704.58,674.24,548.3Z" transform="translate(39.79 -84.65)"/><path class="cls-3" d="M673.73,548.15c-54.59,155.92-225.28,238.09-381.2,183.43S54.45,506.37,109,350.38,334.31,112.3,490.23,167,728.31,392.16,673.73,548.15Zm1.68.59c54.87-156.87-27.73-328.59-184.6-383.46S162.3,193,107.35,349.8,135.08,678.39,292,733.26,620.46,705.53,675.41,548.74Z" transform="translate(39.79 -84.65)"/><path class="cls-3" d="M674.82,548.52c-54.8,156.57-226.15,239-382.65,184.23S53.13,506.59,107.93,350,334.09,111,490.59,165.79,729.63,391.94,674.82,548.52Zm1.1.36c55-157.16-27.73-329.17-184.89-384.19s-329.17,27.8-384.19,185,27.73,329.18,184.89,384.2S620.9,706,675.92,548.88Z" transform="translate(39.79 -84.65)"/></g><text class="cls-126" transform="translate(802.79 499.23) scale(0.69 1)">WebSystem</text><rect x="812.42" y="622.19" width="1483.38" height="168.16" rx="20.99"/><text class="cls-127" transform="translate(802.79 754.93) scale(1.75 1)">Ecommerce</text></svg>